<svg xmlns="http://www.w3.org/2000/svg" viewBox="0 0 23.36 21.73"><defs><style>.cls-1{fill:#02568a;}</style></defs><title>Cloud Native1x</title><g id="Layer_2" data-name="Layer 2"><g id="Layer_1-2" data-name="Layer 1"><path class="cls-1" d="M16.31,1.14A1.74,1.74,0,0,0,16.05,1,6.26,6.26,0,0,0,9,1.24,6.16,6.16,0,0,0,7.23,3.31a.66.66,0,0,1-.64.39H6.38a4.32,4.32,0,0,0-4,2.74,1.17,1.17,0,0,1-.65.66A2.67,2.67,0,0,0,0,9.51a2.7,2.7,0,0,0,1.51,2.63,2.8,2.8,0,0,0,1.33.34,7.13,7.13,0,0,1,1,0v1.18a5.24,5.24,0,0,1-1,0A1.11,1.11,0,0,0,1.64,13a1.09,1.09,0,0,0-.83,1,1.07,1.07,0,0,0,.74,1c.52.17,1,0,1.36-.64a.64.64,0,0,1,.28,0h.87c.41,0,.51-.11.52-.53,0-.25,0-.51,0-.76V12.5H7.65V17h-2c-.4-.71-.91-1-1.5-.83a1.26,1.26,0,0,0-.93,1.18,1.24,1.24,0,0,0,.91,1.19c.59.17,1.09-.09,1.53-.83H7.94c.29,0,.39-.1.41-.39a2.71,2.71,0,0,0,0-.29V12.88c0-.12,0-.22,0-.4,1,0,2.07,0,3.08,0v6.33a1.51,1.51,0,0,0-1.06,1.75,1.47,1.47,0,0,0,1.37,1.15,1.47,1.47,0,0,0,1.38-2,1.59,1.59,0,0,0-1-.85V12.48h.48a1.41,1.41,0,0,0,.29,0,.31.31,0,0,0,.29-.35.32.32,0,0,0-.3-.32c-.1,0-.22,0-.33,0H2.73a2.19,2.19,0,0,1-2-1.73A2.06,2.06,0,0,1,2,7.72a1.73,1.73,0,0,0,1-1A3.55,3.55,0,0,1,5.2,4.58a4,4,0,0,1,1.4-.21,1.21,1.21,0,0,0,1.22-.71c0-.06.07-.12.1-.19a5.55,5.55,0,0,1,7.76-1.94l.25.15a.33.33,0,0,0,.42-.11A.31.31,0,0,0,16.31,1.14ZM1.86,14.44a.38.38,0,0,1,0-.75.36.36,0,0,1,.4.37A.38.38,0,0,1,1.86,14.44Zm2.59,3.49a.54.54,0,0,1,0-1.08.53.53,0,0,1,.52.54A.54.54,0,0,1,4.45,17.93Zm8.1,2.35a.77.77,0,1,1-.78-.78A.77.77,0,0,1,12.55,20.28Z"/><path class="cls-1" d="M22.1,13.07a1.1,1.1,0,0,0-.65-.05,1.29,1.29,0,0,0-.77.67h-1v-1.3a5.33,5.33,0,0,0,1-.36,4.44,4.44,0,0,0-1.84-8.48.76.76,0,0,1-.79-.45,4.17,4.17,0,0,0-.56-.81c-.18-.2-.35-.23-.51-.1a.35.35,0,0,0,0,.52c.23.29.43.62.63.93a1.2,1.2,0,0,0,1.07.58,5.29,5.29,0,0,1,.8.06,3.79,3.79,0,0,1-.66,7.51c-1.38,0-2.75,0-4.12,0a1.79,1.79,0,0,0-.33,0,.3.3,0,0,0-.28.33.3.3,0,0,0,.27.33c.11,0,.22,0,.33,0h.48v4c0,.26,0,.52,0,.77s.09.41.42.41h2.26c.4.72.88,1,1.48.86a1.26,1.26,0,0,0,1-1.15,1.24,1.24,0,0,0-.87-1.22,1.2,1.2,0,0,0-.75,0,1.44,1.44,0,0,0-.82.82H16a.7.7,0,0,1-.12,0v-4.5c.37,0,2.78,0,3.06,0,.06.1,0,.21,0,.32,0,.39,0,.78,0,1.17s.12.37.38.4h.32a7.77,7.77,0,0,1,1,0,1.1,1.1,0,0,0,1.3.65,1.06,1.06,0,0,0,.11-2Zm-3,3.78a.54.54,0,0,1,.53.54.55.55,0,0,1-.52.54.54.54,0,1,1,0-1.08Zm2.57-2.41a.38.38,0,0,1-.37-.37.38.38,0,0,1,.76,0A.39.39,0,0,1,21.7,14.44Z"/></g></g></svg>