<svg xmlns="http://www.w3.org/2000/svg" viewBox="0 0 26 26"><defs><style>.cls-1{fill:#02568a;}</style></defs><title>Zero Downtime1x</title><g id="Layer_2" data-name="Layer 2"><g id="Layer_1-2" data-name="Layer 1"><path class="cls-1" d="M25.89,14.69A12.56,12.56,0,0,1,22,22.38,13,13,0,1,1,12.74,0V1A11.83,11.83,0,0,0,4,5.15a11.52,11.52,0,0,0-2.9,7.09,11.94,11.94,0,0,0,22.51,6.28A11.87,11.87,0,0,0,21.68,4.84l-.39-.39,0,.55a5.06,5.06,0,0,0,0,1c0,.22,0,.43.05.64L21,6.65l-.64,0L20,2.8l3.9-.33c0,.2,0,.41.05.62l0,.44c-.16,0-.35,0-.53,0l-.53.06-.74.08.32.36A13,13,0,0,1,25.89,14.69Z"/><path class="cls-1" d="M13.51,13.25l-2.34,2-.67-.81,2-1.68V9h1C13.48,9.72,13.51,11.8,13.51,13.25Z"/><path class="cls-1" d="M18.68,7.41A7.93,7.93,0,0,0,13,5h0A8,8,0,0,0,7.39,7.35,7.86,7.86,0,0,0,5,13,8,8,0,0,0,13,21h0A8,8,0,0,0,21,13,7.81,7.81,0,0,0,18.68,7.41Zm1.15,6.33a6.79,6.79,0,0,1-6,6.09l-.24,0,0-.24a4.65,4.65,0,0,1,0-.74,2.81,2.81,0,0,0,0-.41h-1c0,.16,0,.31,0,.48a4.44,4.44,0,0,1,0,.63l0,.24h-.24a6.78,6.78,0,0,1-6.06-6l0-.23.23,0a4,4,0,0,1,.76,0h.39v-1a4,4,0,0,0-.49,0,4.28,4.28,0,0,1-.62,0l-.23,0V12.2a6.75,6.75,0,0,1,6-6.06l.24,0,0,.23a5.94,5.94,0,0,1,0,.73,3.08,3.08,0,0,0,0,.43c.26,0,.53,0,.8,0h.22a4.17,4.17,0,0,0,0-.5c0-.22,0-.44,0-.66l0-.25.24,0a6.9,6.9,0,0,1,6.05,6l0,.23-.23,0a3.7,3.7,0,0,1-.74,0h-.43q0,.39,0,.81v.19h1.37Z"/><path class="cls-1" d="M13.51,13.25l-2.34,2-.67-.81,2-1.68V9h1C13.48,9.72,13.51,11.8,13.51,13.25Z"/><path class="cls-1" d="M13.51,13.25l-2.34,2-.67-.81,2-1.68V9h1C13.48,9.72,13.51,11.8,13.51,13.25Z"/><rect class="cls-1" x="12.44" y="6.01" width="1.11" height="1.63"/><rect class="cls-1" x="12.44" y="18.28" width="1.11" height="1.63"/><rect class="cls-1" x="18.58" y="12.13" width="1.11" height="1.63" transform="translate(32.08 -6.19) rotate(90)"/><rect class="cls-1" x="6.15" y="12.13" width="1.11" height="1.63" transform="translate(19.65 6.24) rotate(90)"/></g></g></svg>