<svg xmlns="http://www.w3.org/2000/svg" viewBox="0 0 71.94 71.98"><defs><style>.cls-1{fill:#02568a;}</style></defs><g id="Layer_2" data-name="Layer 2"><g id="Layer_1-2" data-name="Layer 1"><path class="cls-1" d="M36,72a35.92,35.92,0,1,1,23-63.48A1,1,0,1,1,57.77,10a33.93,33.93,0,1,0,12.17,26,1,1,0,0,1,2,0A35.92,35.92,0,0,1,36,72Z"/><path class="cls-1" d="M59.8,11h-10a1,1,0,0,1,0-2h8V1a1,1,0,0,1,2,0Z"/><path class="cls-1" d="M14.07,43.62a1.36,1.36,0,0,1-1.26-.81,1.25,1.25,0,0,1,.29-1.38l7.6-6.93A2.24,2.24,0,0,0,21.32,33a3.41,3.41,0,0,0-2.59-3.37,3.27,3.27,0,0,0-3.93,3.19,1,1,0,0,1-2,0,5.26,5.26,0,0,1,6.31-5.15A5.35,5.35,0,0,1,23.32,33a4.2,4.2,0,0,1-1.24,3l-6.22,5.66h6.46a1,1,0,1,1,0,2Z"/><path class="cls-1" d="M32.2,43.65a1,1,0,0,1-1-1V39.87H26.37A1.65,1.65,0,0,1,25,37.34l5.72-9.07A1.36,1.36,0,0,1,33.2,29v8.88h1.64a1,1,0,0,1,0,2H33.2v2.78A1,1,0,0,1,32.2,43.65ZM27,37.87h4.2V31.21Z"/><path class="cls-1" d="M53.86,43.59a1,1,0,0,1-1-1c0-5.52,1.07-9.92,3.25-13.09H48.68a1,1,0,0,1,0-2H57.5a1.3,1.3,0,0,1,1.19.76,1.32,1.32,0,0,1-.19,1.4c-2.44,2.86-3.66,7.2-3.64,12.92a1,1,0,0,1-1,1ZM57.5,29.5h0Z"/><path class="cls-1" d="M38,48a1,1,0,0,1-.35-.06,1,1,0,0,1-.59-1.29l8.5-22.95a1,1,0,1,1,1.87.69l-8.5,23A1,1,0,0,1,38,48Z"/></g></g></svg>