<svg xmlns="http://www.w3.org/2000/svg" viewBox="0 0 71.92 72"><defs><style>.cls-1{fill:#02568a;}</style></defs><g id="Layer_2" data-name="Layer 2"><g id="Layer_1-2" data-name="Layer 1"><path class="cls-1" d="M68.17,13H3.76A3.73,3.73,0,0,1,0,9.3V3.69A3.73,3.73,0,0,1,3.76,0H68.17a3.73,3.73,0,0,1,3.75,3.69V9.3A3.73,3.73,0,0,1,68.17,13ZM3.76,2A1.73,1.73,0,0,0,2,3.69V9.3A1.73,1.73,0,0,0,3.76,11H68.17A1.72,1.72,0,0,0,69.92,9.3V3.69A1.72,1.72,0,0,0,68.17,2Z"/><path class="cls-1" d="M28.63,9.5H15.41a2.16,2.16,0,0,1-2.16-2.16V5.49a2.16,2.16,0,0,1,2.16-2.16H28.63A2.17,2.17,0,0,1,30.8,5.49V7.34A2.17,2.17,0,0,1,28.63,9.5ZM15.41,5.33a.16.16,0,0,0-.16.16V7.34a.16.16,0,0,0,.16.16H28.63a.17.17,0,0,0,.17-.16V5.49a.17.17,0,0,0-.17-.16Z"/><path class="cls-1" d="M61,9.5H56.09a2.16,2.16,0,0,1-2.16-2.16V5.49a2.16,2.16,0,0,1,2.16-2.16H61a2.17,2.17,0,0,1,2.17,2.16V7.34A2.17,2.17,0,0,1,61,9.5ZM56.09,5.33a.16.16,0,0,0-.16.16V7.34a.16.16,0,0,0,.16.16H61a.17.17,0,0,0,.17-.16V5.49A.17.17,0,0,0,61,5.33Z"/><path class="cls-1" d="M68.17,29.12H3.76A3.73,3.73,0,0,1,0,25.43V19.82a3.72,3.72,0,0,1,3.76-3.69H68.17a3.72,3.72,0,0,1,3.75,3.69v5.61A3.73,3.73,0,0,1,68.17,29.12Zm-64.41-11A1.72,1.72,0,0,0,2,19.82v5.61a1.73,1.73,0,0,0,1.76,1.69H68.17a1.72,1.72,0,0,0,1.75-1.69V19.82a1.71,1.71,0,0,0-1.75-1.69Z"/><path class="cls-1" d="M28.63,25.63H15.41a2.16,2.16,0,0,1-2.16-2.16V21.62a2.17,2.17,0,0,1,2.16-2.17H28.63a2.17,2.17,0,0,1,2.17,2.17v1.85A2.17,2.17,0,0,1,28.63,25.63ZM15.41,21.45a.17.17,0,0,0-.16.17v1.85a.16.16,0,0,0,.16.16H28.63a.17.17,0,0,0,.17-.16V21.62a.18.18,0,0,0-.17-.17Z"/><path class="cls-1" d="M61,25.63H56.09a2.16,2.16,0,0,1-2.16-2.16V21.62a2.17,2.17,0,0,1,2.16-2.17H61a2.17,2.17,0,0,1,2.17,2.17v1.85A2.17,2.17,0,0,1,61,25.63Zm-4.93-4.18a.17.17,0,0,0-.16.17v1.85a.16.16,0,0,0,.16.16H61a.17.17,0,0,0,.17-.16V21.62a.18.18,0,0,0-.17-.17Z"/><path class="cls-1" d="M68.17,45.26H3.76A3.72,3.72,0,0,1,0,41.57V36a3.73,3.73,0,0,1,3.76-3.69H68.17A3.73,3.73,0,0,1,71.92,36v5.61A3.72,3.72,0,0,1,68.17,45.26Zm-64.41-11A1.73,1.73,0,0,0,2,36v5.61a1.73,1.73,0,0,0,1.76,1.69H68.17a1.72,1.72,0,0,0,1.75-1.69V36a1.72,1.72,0,0,0-1.75-1.69Z"/><path class="cls-1" d="M28.63,41.86H15.41a2.17,2.17,0,0,1-2.16-2.17V37.84a2.16,2.16,0,0,1,2.16-2.16H28.63a2.17,2.17,0,0,1,2.17,2.16v1.85A2.17,2.17,0,0,1,28.63,41.86ZM15.41,37.68a.16.16,0,0,0-.16.16v1.85a.17.17,0,0,0,.16.17H28.63a.18.18,0,0,0,.17-.17V37.84a.17.17,0,0,0-.17-.16Z"/><path class="cls-1" d="M61,41.86H56.09a2.17,2.17,0,0,1-2.16-2.17V37.84a2.16,2.16,0,0,1,2.16-2.16H61a2.17,2.17,0,0,1,2.17,2.16v1.85A2.17,2.17,0,0,1,61,41.86Zm-4.93-4.18a.16.16,0,0,0-.16.16v1.85a.17.17,0,0,0,.16.17H61a.18.18,0,0,0,.17-.17V37.84a.17.17,0,0,0-.17-.16Z"/><path class="cls-1" d="M68.17,61.3H3.76A3.72,3.72,0,0,1,0,57.61V52a3.73,3.73,0,0,1,3.76-3.69H68.17A3.73,3.73,0,0,1,71.92,52v5.61A3.72,3.72,0,0,1,68.17,61.3Zm-64.41-11A1.73,1.73,0,0,0,2,52v5.61A1.73,1.73,0,0,0,3.76,59.3H68.17a1.72,1.72,0,0,0,1.75-1.69V52a1.72,1.72,0,0,0-1.75-1.69Z"/><path class="cls-1" d="M28.63,57.9H15.41a2.17,2.17,0,0,1-2.16-2.17V53.88a2.16,2.16,0,0,1,2.16-2.16H28.63a2.17,2.17,0,0,1,2.17,2.16v1.85A2.17,2.17,0,0,1,28.63,57.9ZM15.41,53.72a.16.16,0,0,0-.16.16v1.85a.17.17,0,0,0,.16.17H28.63a.18.18,0,0,0,.17-.17V53.88a.17.17,0,0,0-.17-.16Z"/><path class="cls-1" d="M61,57.9H56.09a2.17,2.17,0,0,1-2.16-2.17V53.88a2.16,2.16,0,0,1,2.16-2.16H61a2.17,2.17,0,0,1,2.17,2.16v1.85A2.17,2.17,0,0,1,61,57.9Zm-4.93-4.18a.16.16,0,0,0-.16.16v1.85a.17.17,0,0,0,.16.17H61a.18.18,0,0,0,.17-.17V53.88a.17.17,0,0,0-.17-.16Z"/><path class="cls-1" d="M48.93,71.91H23a1,1,0,0,1,0-2H48.93a1,1,0,1,1,0,2Z"/><path class="cls-1" d="M35.93,72a1,1,0,0,1-1-1V60.66a1,1,0,0,1,2,0V71A1,1,0,0,1,35.93,72Z"/></g></g></svg>