<svg xmlns="http://www.w3.org/2000/svg" viewBox="0 0 73.09 72.02"><defs><style>.cls-1{fill:#02568a;}</style></defs><g id="Layer_2" data-name="Layer 2"><g id="Layer_1-2" data-name="Layer 1"><path class="cls-1" d="M52.77,56.33c-9.37,0-20.32-1.95-20.32-7.44s10.95-7.44,20.32-7.44,20.32,1.95,20.32,7.44S62.14,56.33,52.77,56.33Zm0-12.88c-10.27,0-18.32,2.39-18.32,5.44s8,5.44,18.32,5.44,18.32-2.39,18.32-5.44S63,43.45,52.77,43.45Z"/><path class="cls-1" d="M52.77,61.48c-9.37,0-20.32-1.95-20.32-7.44a4.34,4.34,0,0,1,1.66-3.31,1,1,0,1,1,1.32,1.5,2.41,2.41,0,0,0-1,1.81c0,3.05,8,5.44,18.32,5.44S71.09,57.09,71.09,54a2.35,2.35,0,0,0-.92-1.75,1,1,0,0,1-.07-1.41,1,1,0,0,1,1.42-.07A4.29,4.29,0,0,1,73.09,54C73.09,59.53,62.14,61.48,52.77,61.48Z"/><path class="cls-1" d="M52.77,66.63c-9.37,0-20.32-1.94-20.32-7.44A4.23,4.23,0,0,1,34,56a1,1,0,0,1,1.36,1.46,2.31,2.31,0,0,0-.86,1.7c0,3.05,8,5.44,18.32,5.44s18.32-2.39,18.32-5.44a2.43,2.43,0,0,0-1-1.82,1,1,0,1,1,1.31-1.51,4.35,4.35,0,0,1,1.69,3.33C73.09,64.69,62.14,66.63,52.77,66.63Z"/><path class="cls-1" d="M52.77,72c-9.37,0-20.32-2-20.32-7.59a4.43,4.43,0,0,1,1.66-3.36,1,1,0,0,1,1.33,1.49,2.49,2.49,0,0,0-1,1.87c0,3.19,7.87,5.59,18.32,5.59s18.32-2.4,18.32-5.59a2.43,2.43,0,0,0-.93-1.81,1,1,0,0,1,0-1.42,1,1,0,0,1,1.41-.05,4.4,4.4,0,0,1,1.57,3.28C73.09,70,62.14,72,52.77,72Z"/><path class="cls-1" d="M22.84,68.05a7.35,7.35,0,0,1-2.66-.47,7.1,7.1,0,0,1-4-3.77L.62,29A7.15,7.15,0,0,1,4.26,19.5L27,9.54l.8,1.84L5.06,21.33a5.16,5.16,0,0,0-2.61,6.8L18,63a5.14,5.14,0,0,0,2.86,2.71,5.65,5.65,0,0,0,1.93.34,5.27,5.27,0,0,0,2-.41l4.65-2.09a1,1,0,0,1,.82,1.83l-4.67,2.09A7.08,7.08,0,0,1,22.84,68.05Z"/><path class="cls-1" d="M28.3,55.71a2.21,2.21,0,0,1-.84-.17l-9-3.45a7.5,7.5,0,0,1-4.32-9.66l3.27-8.58a1.89,1.89,0,0,1,.11-.25l11-28.79A7.5,7.5,0,0,1,38.06.43h0l.22.11,29,11.09a7.52,7.52,0,0,1,4.33,9.65l-7.29,19a1,1,0,1,1-1.87-.72l7.29-19a5.5,5.5,0,0,0-3.18-7.07L37.52,2.36a5.51,5.51,0,0,0-7.1,3.17L16,43.14a5.51,5.51,0,0,0,3.16,7.09l9,3.45h0a1.07,1.07,0,0,1,1.06,1,1,1,0,0,1-1,1Z"/><path class="cls-1" d="M31.39,34.13h0a5.52,5.52,0,0,1-2-.38,5.6,5.6,0,1,1,7.25-3.21h0a5.6,5.6,0,0,1-3,3.13A5.71,5.71,0,0,1,31.39,34.13Zm0-9.21A3.6,3.6,0,0,0,28,27.23a3.61,3.61,0,0,0,2.07,4.66,3.54,3.54,0,0,0,1.28.24h0a4.11,4.11,0,0,0,1.48-.29A3.59,3.59,0,0,0,34.7,29.9l.07-.17a3.59,3.59,0,0,0-2.1-4.57A3.65,3.65,0,0,0,31.37,24.92Z"/><path class="cls-1" d="M55.05,28.47h0a5.23,5.23,0,0,1-1.76-.33A5,5,0,0,1,52.94,19a5,5,0,0,1,6.62,2.4,5,5,0,0,1,.13,3.86A5,5,0,0,1,55.05,28.47Zm0-2h0a3,3,0,1,0-1.07-.2,3.21,3.21,0,0,0,1.06.2Z"/><path class="cls-1" d="M50.34,40.75h0a4.77,4.77,0,0,1-1.75-.33A5,5,0,0,1,45.72,34a4.93,4.93,0,1,1,4.63,6.71Zm0-7.87a2.85,2.85,0,0,0-1.17.24,2.94,2.94,0,0,0,.16,5.43,2.88,2.88,0,0,0,1.05.2,2.94,2.94,0,0,0,0-5.87Z"/><path class="cls-1" d="M46.4,35.47a.84.84,0,0,1-.35-.07L35.31,31.32A1,1,0,0,1,34.74,30,1,1,0,0,1,36,29.45l10.73,4.08a1,1,0,0,1,.58,1.29A1,1,0,0,1,46.4,35.47Z"/><path class="cls-1" d="M41.35,33.28a1,1,0,0,1-.33-.06A1,1,0,0,1,40.4,32l3.51-10.1a3.5,3.5,0,0,1,4.43-2.08L51.73,21a1,1,0,1,1-.67,1.88l-3.39-1.2a1.48,1.48,0,0,0-1.88.87l-3.5,10.08A1,1,0,0,1,41.35,33.28Z"/><path class="cls-1" d="M62.23,49.84H43.17a1,1,0,0,1,0-2H62.23a1,1,0,0,1,0,2Z"/></g></g></svg>