<svg xmlns="http://www.w3.org/2000/svg" viewBox="0 0 71.91 72.04"><defs><style>.cls-1{fill:#02568a;}</style></defs><g id="Layer_2" data-name="Layer 2"><g id="Layer_1-2" data-name="Layer 1"><path class="cls-1" d="M22.66,45.2H16.58A16.53,16.53,0,0,1,0,28.93v-.12a16.42,16.42,0,0,1,16.4-16.4,3.54,3.54,0,0,0,3.23-2,17.94,17.94,0,0,1,32.54,0,3.51,3.51,0,0,0,3.17,2h0a16.41,16.41,0,0,1,16,20.14,1,1,0,1,1-2-.45A14.41,14.41,0,0,0,58.69,14.79a14.63,14.63,0,0,0-3.29-.38,5.55,5.55,0,0,1-5-3.17,15.94,15.94,0,0,0-28.92,0,5.52,5.52,0,0,1-5,3.17h0A14.43,14.43,0,0,0,2,28.81v.12A14.52,14.52,0,0,0,16.58,43.2h6.08a1,1,0,0,1,0,2Z"/><path class="cls-1" d="M49.21,72a22.7,22.7,0,1,1,22.7-22.7A22.72,22.72,0,0,1,49.21,72Zm0-43.4a20.7,20.7,0,1,0,20.7,20.7A20.72,20.72,0,0,0,49.21,28.64Z"/><path class="cls-1" d="M49.21,65.65A16.31,16.31,0,1,1,65.52,49.34,16.33,16.33,0,0,1,49.21,65.65Zm0-30.62A14.31,14.31,0,1,0,63.52,49.34,14.33,14.33,0,0,0,49.21,35Z"/><path class="cls-1" d="M49.21,43.81a16.2,16.2,0,0,1-11.5-4.74,1,1,0,0,1,1.41-1.42,14.32,14.32,0,0,0,20.12.06,1,1,0,1,1,1.4,1.42A16.21,16.21,0,0,1,49.21,43.81Z"/><path class="cls-1" d="M59.94,60.43a1,1,0,0,1-.71-.3,14.32,14.32,0,0,0-20.11-.05,1,1,0,0,1-1.41,0,1,1,0,0,1,0-1.42,16.31,16.31,0,0,1,22.92.07,1,1,0,0,1,0,1.41A1,1,0,0,1,59.94,60.43Z"/><path class="cls-1" d="M49.21,65.65c-4.24,0-7.44-7-7.44-16.31S45,33,49.21,33s7.43,7,7.43,16.31S53.45,65.65,49.21,65.65Zm0-30.62c-2.57,0-5.44,5.88-5.44,14.31s2.87,14.31,5.44,14.31,5.43-5.88,5.43-14.31S51.78,35,49.21,35Z"/><path class="cls-1" d="M64.5,50.35H34.05a1,1,0,0,1,0-2H64.5a1,1,0,0,1,0,2Z"/><path class="cls-1" d="M49.28,65.57a1,1,0,0,1-1-1V34.12a1,1,0,0,1,2,0V64.57A1,1,0,0,1,49.28,65.57Z"/></g></g></svg>