<svg xmlns="http://www.w3.org/2000/svg" viewBox="0 0 71.87 72"><defs><style>.cls-1{fill:#02568a;}</style></defs><g id="Layer_2" data-name="Layer 2"><g id="Layer_1-2" data-name="Layer 1"><path class="cls-1" d="M59.91,66.44H43.14a1,1,0,0,1,0-2H57.91V39.55a1.66,1.66,0,0,0-1.66-1.66H14.9a1.66,1.66,0,0,0-1.66,1.66V64.44H27.86a1,1,0,0,1,0,2H11.24V39.55a3.67,3.67,0,0,1,3.66-3.66H56.25a3.67,3.67,0,0,1,3.66,3.66Z"/><path class="cls-1" d="M59.76,72H11.22a2.1,2.1,0,0,1-2.1-2.1V64.46H29.69v2.43a.27.27,0,0,0,.27.27H41.31a.27.27,0,0,0,.27-.27V64.46H61.86V69.9A2.1,2.1,0,0,1,59.76,72ZM11.12,66.46V69.9a.11.11,0,0,0,.1.1H59.76a.11.11,0,0,0,.1-.1V66.46H43.58v.43a2.27,2.27,0,0,1-2.27,2.27H30a2.27,2.27,0,0,1-2.27-2.27v-.43Z"/><path class="cls-1" d="M57.44,28.65h0A3.45,3.45,0,0,1,54.62,27a3.86,3.86,0,0,0-4.15-1.68c-.18,0-.36.06-.5.08l-.21,0a3.29,3.29,0,0,1-2.64-1.18,3.22,3.22,0,0,1-.66-2.68A4,4,0,0,0,44.64,17a3.15,3.15,0,0,1,0-5.39,4,4,0,0,0,1.83-4.48,3.27,3.27,0,0,1,.86-2.94,3.19,3.19,0,0,1,2.93-.86,4,4,0,0,0,4.54-1.88A3.15,3.15,0,0,1,57.44,0h0a3.24,3.24,0,0,1,2.7,1.5,3.89,3.89,0,0,0,4.4,1.85,3.3,3.3,0,0,1,3,.84,3.27,3.27,0,0,1,.85,3,4,4,0,0,0,1.88,4.48,3.16,3.16,0,0,1,1.47,2.67,3.29,3.29,0,0,1-1.54,2.73,3.81,3.81,0,0,0-1.82,4.28,3.22,3.22,0,0,1-4,3.93,3.9,3.9,0,0,0-4.1,1.66A3.47,3.47,0,0,1,57.44,28.65Zm-6.06-5.48a5.8,5.8,0,0,1,4.9,2.67,1.53,1.53,0,0,0,1.15.81h0a1.6,1.6,0,0,0,1.2-.85,5.88,5.88,0,0,1,6.16-2.5A1.43,1.43,0,0,0,66.14,23a1.46,1.46,0,0,0,.3-1.34,5.81,5.81,0,0,1,2.68-6.32,1.3,1.3,0,0,0,.64-1.07,1.18,1.18,0,0,0-.58-1h0a5.93,5.93,0,0,1-2.73-6.5,1.32,1.32,0,0,0-.3-1.2,1.36,1.36,0,0,0-1.22-.3,5.85,5.85,0,0,1-6.46-2.7,1.23,1.23,0,0,0-1-.61h0a1.2,1.2,0,0,0-1,.58,6,6,0,0,1-6.58,2.73,1.25,1.25,0,0,0-1.14.31,1.27,1.27,0,0,0-.31,1.14,5.89,5.89,0,0,1-2.68,6.53,1.17,1.17,0,0,0,0,2.07,5.89,5.89,0,0,1,2.67,6.54,1.19,1.19,0,0,0,.24,1,1.33,1.33,0,0,0,1,.46h.05a2.67,2.67,0,0,0,.33-.05A6.56,6.56,0,0,1,51.38,23.17Zm6.06-4a4.83,4.83,0,1,1,4.83-4.83A4.83,4.83,0,0,1,57.44,19.15Zm0-7.66a2.83,2.83,0,1,0,2.83,2.83A2.83,2.83,0,0,0,57.44,11.49Z"/><path class="cls-1" d="M12,45.17a.85.85,0,0,1-.23,0,15.39,15.39,0,0,1,1.46-30.2,15.24,15.24,0,0,1,6.75.55,2.24,2.24,0,0,0,2.76-1.28,15.37,15.37,0,0,1,24.82-5,1,1,0,1,1-1.39,1.43A13.37,13.37,0,0,0,24.57,15a4.26,4.26,0,0,1-5.2,2.4,13.26,13.26,0,0,0-5.88-.48A13.4,13.4,0,0,0,12.23,43.2a1,1,0,0,1-.24,2Z"/><path class="cls-1" d="M59.13,45.32a1,1,0,0,1-.18-2,13.35,13.35,0,0,0,7.9-21.59,1,1,0,0,1,.14-1.4,1,1,0,0,1,1.41.14A15.35,15.35,0,0,1,59.32,45.3.62.62,0,0,1,59.13,45.32Z"/></g></g></svg>