<svg xmlns="http://www.w3.org/2000/svg" viewBox="0 0 72 71.96"><defs><style>.cls-1{fill:#02568a;}</style></defs><g id="Layer_2" data-name="Layer 2"><g id="Layer_1-2" data-name="Layer 1"><path class="cls-1" d="M36,72A36,36,0,1,1,72,36,36,36,0,0,1,36,72ZM36,2A34,34,0,1,0,70,36,34,34,0,0,0,36,2Z"/><path class="cls-1" d="M26.93,53.68,16.2,43a5.07,5.07,0,0,1-1.5-3.62,5.12,5.12,0,0,1,5.13-5.13h0a5.1,5.1,0,0,1,3.63,1.5l3.47,3.47L44.86,21.23a5.13,5.13,0,0,1,7.26,7.25ZM19.83,36.2a3.09,3.09,0,0,0-2.21.91,3.13,3.13,0,0,0,0,4.43l9.31,9.31L50.71,27.07a3.14,3.14,0,0,0,0-4.43,3.2,3.2,0,0,0-4.42,0L26.93,42,22,37.11a3.09,3.09,0,0,0-2.21-.91Z"/><path class="cls-1" d="M36,5.86a1,1,0,0,1-1-1V1.06a1,1,0,0,1,2,0v3.8A1,1,0,0,1,36,5.86Z"/><path class="cls-1" d="M36,72a1,1,0,0,1-1-1v-3.8a1,1,0,0,1,2,0V71A1,1,0,0,1,36,72Z"/><path class="cls-1" d="M71,37H67.21a1,1,0,0,1,0-2H71a1,1,0,0,1,0,2Z"/><path class="cls-1" d="M4.79,37H1a1,1,0,0,1,0-2H4.79a1,1,0,0,1,0,2Z"/></g></g></svg>