<svg xmlns="http://www.w3.org/2000/svg" viewBox="0 0 71.85 71.85"><defs><style>.cls-1{fill:#02568a;}</style></defs><g id="Layer_2" data-name="Layer 2"><g id="Layer_1-2" data-name="Layer 1"><path class="cls-1" d="M35.93,71.85A35.93,35.93,0,1,1,71.85,35.93,36,36,0,0,1,35.93,71.85ZM35.93,2A33.93,33.93,0,1,0,69.85,35.93,34,34,0,0,0,35.93,2Z"/><path class="cls-1" d="M35.93,42.14a6.21,6.21,0,1,1,6.21-6.21A6.22,6.22,0,0,1,35.93,42.14Zm0-10.42a4.21,4.21,0,1,0,4.21,4.21A4.21,4.21,0,0,0,35.93,31.72Z"/><path class="cls-1" d="M40,33.39a1,1,0,0,1-.7-.29,1,1,0,0,1,0-1.41L55,15.84a1,1,0,0,1,1.42,0,1,1,0,0,1,0,1.41L40.66,33.1A1,1,0,0,1,40,33.39Z"/><path class="cls-1" d="M44,18.53a.94.94,0,0,1-.37-.07,1,1,0,0,1-.56-1.3l2.82-7.06a1,1,0,0,1,1.86.74L44.91,17.9A1,1,0,0,1,44,18.53Z"/><path class="cls-1" d="M54.72,29.66a1,1,0,0,1-.93-.63,1,1,0,0,1,.56-1.3l7.45-3a1,1,0,1,1,.74,1.86l-7.45,3A1,1,0,0,1,54.72,29.66Z"/><path class="cls-1" d="M64.21,37.66H56.29a1,1,0,1,1,0-2h7.92a1,1,0,0,1,0,2Z"/><path class="cls-1" d="M62,48.17a1,1,0,0,1-.41-.09l-7.14-3.22A1,1,0,1,1,55.29,43l7.13,3.22A1,1,0,0,1,62,48.17Z"/><path class="cls-1" d="M10,48.33A1,1,0,0,1,9,47.71a1,1,0,0,1,.55-1.31l7.37-3.06a1,1,0,0,1,.76,1.85l-7.37,3.06A1,1,0,0,1,10,48.33Z"/><path class="cls-1" d="M15.83,37.5H8a1,1,0,0,1,0-2h7.84a1,1,0,0,1,0,2Z"/><path class="cls-1" d="M17.32,29.51a1.15,1.15,0,0,1-.36-.07l-7.53-2.9a1,1,0,0,1,.72-1.87l7.53,2.9a1,1,0,0,1-.36,1.94Z"/><path class="cls-1" d="M21.63,23a1,1,0,0,1-.71-.3l-5.33-5.41A1,1,0,0,1,17,15.89l5.33,5.41a1,1,0,0,1,0,1.41A1,1,0,0,1,21.63,23Z"/><path class="cls-1" d="M28.06,18.61a1,1,0,0,1-.93-.63l-2.82-7a1,1,0,0,1,1.85-.75l2.83,7a1,1,0,0,1-.55,1.3A1,1,0,0,1,28.06,18.61Z"/><path class="cls-1" d="M36.14,17a1,1,0,0,1-1-1V8.28a1,1,0,0,1,2,0V16A1,1,0,0,1,36.14,17Z"/><path class="cls-1" d="M35.75,58.7A5.23,5.23,0,0,1,33.19,58a6,6,0,0,1-2.64-3.34,16,16,0,0,1-1-4.2h0a6.47,6.47,0,0,1,1.66-4.89,6.1,6.1,0,0,1,4.64-1.77,5.82,5.82,0,0,1,4.5,1.78A6.38,6.38,0,0,1,42,50.48a14.85,14.85,0,0,1-1,4.21A6,6,0,0,1,38.35,58,5.2,5.2,0,0,1,35.75,58.7Zm-4.21-8.35A13.92,13.92,0,0,0,32.43,54a4.09,4.09,0,0,0,1.73,2.29,3.38,3.38,0,0,0,3.2,0A4.1,4.1,0,0,0,39.09,54a13.19,13.19,0,0,0,.9-3.65A4.42,4.42,0,0,0,38.9,47a4,4,0,0,0-3.06-1.16A4,4,0,0,0,32.65,47,4.42,4.42,0,0,0,31.54,50.35Z"/><path class="cls-1" d="M49.23,68a1,1,0,0,1-1-.82,4.84,4.84,0,0,0-3-3.6c-2.18-.9-5.18-2.21-5.18-2.21l-.22-.09-.19.13h0a6.63,6.63,0,0,1-7.41.32l-.23-.16h0l-.45-.32-.22.09s-3,1.31-5.18,2.2a4.94,4.94,0,0,0-2.95,3.63,1,1,0,0,1-2-.39,6.92,6.92,0,0,1,4.15-5.09c2.16-.88,5.14-2.18,5.14-2.18l1.26-.56,1.06.77.25.17.18.12a4.65,4.65,0,0,0,5.21-.21l1.12-.82,1.26.56h0s3,1.3,5.13,2.18a6.82,6.82,0,0,1,4.16,5.1,1,1,0,0,1-.8,1.17Z"/></g></g></svg>