<svg xmlns="http://www.w3.org/2000/svg" viewBox="0 0 72.18 72.9"><defs><style>.cls-1{fill:#02568a;}</style></defs><g id="Layer_2" data-name="Layer 2"><g id="Layer_1-2" data-name="Layer 1"><path class="cls-1" d="M25.37,72.9a1,1,0,0,1-.74-.32c-5.7-6.22-11.95-14.69-9.37-19.74.8-1.57,2.64-3.36,6.84-3.4V17.09a7.09,7.09,0,0,1,14.18,0V41.14c6-.9,18.07-1.65,24.64,5.53,4.89,5.35,5.62,13.7,2.17,24.82a1,1,0,0,1-1.26.65,1,1,0,0,1-.65-1.25C64.4,60.5,63.82,52.81,59.44,48c-6.36-7-18.9-5.62-24-4.72l-1.17.21V17.09a5.09,5.09,0,0,0-10.18,0V51.53L23,51.47c-3.12-.19-5.13.58-6,2.27-1.58,3.11,1.72,9.48,9.06,17.49A1,1,0,0,1,26,72.64,1,1,0,0,1,25.37,72.9Z"/><path class="cls-1" d="M71.18,15.85a1,1,0,0,1-.71-.29L56.62,1.71A1,1,0,0,1,58,.29L71.89,14.15a1,1,0,0,1,0,1.41A1,1,0,0,1,71.18,15.85Z"/><path class="cls-1" d="M57.33,15.85a1,1,0,0,1-.71-.29,1,1,0,0,1,0-1.41L70.47.29a1,1,0,1,1,1.42,1.42L58,15.56A1,1,0,0,1,57.33,15.85Z"/><path class="cls-1" d="M4.79,16.27l-4.5-4.5a1,1,0,1,1,1.42-1.42l3.08,3.09L17.94.29a1,1,0,0,1,1.41,0,1,1,0,0,1,0,1.42Z"/></g></g></svg>