<svg xmlns="http://www.w3.org/2000/svg" viewBox="0 0 72.01 72.12"><defs><style>.cls-1{fill:#02568a;}</style></defs><g id="Layer_2" data-name="Layer 2"><g id="Layer_1-2" data-name="Layer 1"><path class="cls-1" d="M34,72.12H22.56l-1.25-6.54a21.5,21.5,0,0,1-3.47-1.44l-5.51,3.74L4.24,59.79,8,54.28A22.39,22.39,0,0,1,6.53,50.8L0,49.55V38.11l6.54-1.25A21.5,21.5,0,0,1,8,33.39L4.24,27.88l8.09-8.09,5.51,3.74a21.5,21.5,0,0,1,3.47-1.44l1.25-6.54H33.17a1,1,0,0,1,0,2h-9L23,23.66l-.58.17a20.1,20.1,0,0,0-4.2,1.74l-.54.29-5.15-3.49L6.82,28.12l3.49,5.15-.29.54A20.1,20.1,0,0,0,8.28,38l-.17.58L2,39.76V47.9l6.1,1.16.17.59A20.58,20.58,0,0,0,10,53.86l.29.54L6.82,59.54l5.75,5.76,5.15-3.5.54.3a20.56,20.56,0,0,0,4.2,1.74L23,64l1.17,6.11h8.13L33.51,64l.59-.17a20.58,20.58,0,0,0,4.21-1.75l.54-.29L44,65.3l5.75-5.76L46.26,54.4l.29-.54a20.58,20.58,0,0,0,1.75-4.21l.17-.59,6-1.15-1-8.69a1,1,0,1,1,2-.23l1.24,10.54L50,50.8a22.44,22.44,0,0,1-1.45,3.48l3.74,5.51-8.09,8.09-5.51-3.74a21.5,21.5,0,0,1-3.48,1.45Z"/><path class="cls-1" d="M28.29,55.3a11.48,11.48,0,0,1-11.15-8.83,11.45,11.45,0,0,1,8.52-13.79A11.46,11.46,0,1,1,28.29,55.3Zm0-20.93a9.06,9.06,0,0,0-2.17.26h0a9.47,9.47,0,0,0-7,11.38,9.46,9.46,0,1,0,9.21-11.64Zm-2.4-.72h0Z"/><path class="cls-1" d="M41.1,39.93a1,1,0,0,1-.71-.3,1,1,0,0,1,0-1.42L60.3,18.64V32.92a4.86,4.86,0,1,0,9.71,0V2H39.08a4.86,4.86,0,0,0,0,9.71H53.5L33.59,31.29a1,1,0,0,1-1.42,0,1,1,0,0,1,0-1.41L48.61,13.71H39.08A6.86,6.86,0,0,1,39.08,0H72V32.92a6.86,6.86,0,1,1-13.71,0V23.41L41.8,39.64A1,1,0,0,1,41.1,39.93Z"/></g></g></svg>