<svg xmlns="http://www.w3.org/2000/svg" viewBox="0 0 72.02 71.89"><defs><style>.cls-1{fill:#02568a;}</style></defs><g id="Layer_2" data-name="Layer 2"><g id="Layer_1-2" data-name="Layer 1"><path class="cls-1" d="M53.51,57H21a21,21,0,0,1-7.39-40.65A23.29,23.29,0,0,1,36,0,23.62,23.62,0,0,1,59.38,21,18.32,18.32,0,0,1,72,38.51,18.52,18.52,0,0,1,53.51,57ZM36,2A21.31,21.31,0,0,0,15.39,17.41l-.14.5-.49.17A19,19,0,0,0,21,55h32.5A16.52,16.52,0,0,0,70,38.51,16.34,16.34,0,0,0,58.17,22.69l-.67-.2,0-.69A21.6,21.6,0,0,0,36,2Z"/><path class="cls-1" d="M17.57,47.68a6.27,6.27,0,1,1,6.26-6.27A6.28,6.28,0,0,1,17.57,47.68Zm0-10.54a4.27,4.27,0,1,0,4.26,4.27A4.27,4.27,0,0,0,17.57,37.14Z"/><path class="cls-1" d="M35.73,31.18A7.16,7.16,0,1,1,42.9,24,7.17,7.17,0,0,1,35.73,31.18Zm0-12.32A5.16,5.16,0,1,0,40.9,24,5.17,5.17,0,0,0,35.73,18.86Z"/><path class="cls-1" d="M53.55,48a5.2,5.2,0,1,1,5.21-5.2A5.21,5.21,0,0,1,53.55,48Zm0-8.4a3.2,3.2,0,1,0,3.21,3.2A3.2,3.2,0,0,0,53.55,39.61Z"/><path class="cls-1" d="M29.33,71.8a1,1,0,0,1-1-1V45.85a3.1,3.1,0,0,0-3.1-3.09H23a1,1,0,0,1,0-2h2.27a5.1,5.1,0,0,1,5.1,5.09V70.8A1,1,0,0,1,29.33,71.8Z"/><path class="cls-1" d="M42.7,71.8a1,1,0,0,1-1-1V45.85a5.1,5.1,0,0,1,5.1-5.09h2.26a1,1,0,0,1,0,2H46.8a3.1,3.1,0,0,0-3.1,3.09V70.8A1,1,0,0,1,42.7,71.8Z"/><path class="cls-1" d="M35.85,71.89a1,1,0,0,1-1-1V30.47a1,1,0,1,1,2,0V70.89A1,1,0,0,1,35.85,71.89Z"/></g></g></svg>