<svg xmlns="http://www.w3.org/2000/svg" viewBox="0 0 72.01 72.1"><defs><style>.cls-1{fill:#02568a;}</style></defs><g id="Layer_2" data-name="Layer 2"><g id="Layer_1-2" data-name="Layer 1"><path class="cls-1" d="M43.72,61.53H41a1,1,0,0,1,0-2h2.73a2.73,2.73,0,0,0,2.73-2.73V51.44l.72-.21a21.57,21.57,0,0,0,4.36-1.81l.65-.36,3.8,3.8a2.84,2.84,0,0,0,3.85,0l3.51-3.5a2.74,2.74,0,0,0,0-3.85l-3.8-3.8L59.9,41a21.49,21.49,0,0,0,1.81-4.35l.21-.73h5.37a2.71,2.71,0,0,0,1.92-.79,2.74,2.74,0,0,0,.8-1.93v-5a2.72,2.72,0,0,0-2.72-2.72H61.92l-.21-.72a21,21,0,0,0-1.81-4.36l-.36-.66,3.8-3.8a2.73,2.73,0,0,0,0-3.84L59.83,8.67a2.82,2.82,0,0,0-3.85,0l-3.8,3.8-.66-.37a21.45,21.45,0,0,0-4.35-1.8l-.73-.21V4.72A2.72,2.72,0,0,0,43.72,2h-5A2.72,2.72,0,0,0,36,4.72v5.37l-.72.21A20.9,20.9,0,0,0,31,12.1l-.66.37-3.8-3.8a2.82,2.82,0,0,0-3.85,0l-3.51,3.51a2.72,2.72,0,0,0,0,3.84l3.8,3.8-.36.66a21.34,21.34,0,0,0-1.81,4.36l-.21.72H15.2a2.73,2.73,0,0,0-2.72,2.72v2.89a1,1,0,0,1-2,0V28.28a4.71,4.71,0,0,1,4.72-4.72h3.88a24.3,24.3,0,0,1,1.4-3.38l-2.74-2.74a4.73,4.73,0,0,1,0-6.68l3.51-3.51a4.79,4.79,0,0,1,6.67,0L30.67,10A23,23,0,0,1,34,8.6V4.72A4.73,4.73,0,0,1,38.76,0h5a4.72,4.72,0,0,1,4.72,4.72V8.6A23.14,23.14,0,0,1,51.82,10l2.75-2.75a4.79,4.79,0,0,1,6.67,0l3.51,3.51a4.73,4.73,0,0,1,0,6.68L62,20.18a24.3,24.3,0,0,1,1.4,3.38h3.88A4.73,4.73,0,0,1,72,28.28v5A4.71,4.71,0,0,1,67.29,38H63.41A24.3,24.3,0,0,1,62,41.34l2.74,2.75a4.72,4.72,0,0,1,0,6.67l-3.51,3.51a4.78,4.78,0,0,1-6.67,0l-2.75-2.74a23.69,23.69,0,0,1-3.37,1.4v3.88A4.74,4.74,0,0,1,43.72,61.53Z"/><path class="cls-1" d="M41.24,45a1,1,0,0,1,0-2A12.22,12.22,0,1,0,29,30.76a1,1,0,1,1-2,0A14.22,14.22,0,1,1,41.24,45Z"/><path class="cls-1" d="M6.85,72.1a6.86,6.86,0,0,1-4.8-11.75L18.47,44.2H9A6.86,6.86,0,1,1,9,30.49H41.87V63.41a6.86,6.86,0,1,1-13.71,0V53.9L11.66,70.13A6.82,6.82,0,0,1,6.85,72.1ZM9,32.49A4.86,4.86,0,1,0,9,42.2H23.36L3.45,61.78a4.85,4.85,0,1,0,6.81,6.92l19.9-19.58V63.41a4.86,4.86,0,1,0,9.71,0V32.49Z"/></g></g></svg>