<svg xmlns="http://www.w3.org/2000/svg" viewBox="0 0 72.15 67.6"><defs><style>.cls-1{fill:#02568a;}</style></defs><g id="Layer_2" data-name="Layer 2"><g id="Layer_1-2" data-name="Layer 1"><path class="cls-1" d="M61,54.53a3.92,3.92,0,0,1-3.91-3.91V28.78a3.91,3.91,0,0,1,7.82,0V50.62A3.91,3.91,0,0,1,61,54.53Zm0-27.66a1.92,1.92,0,0,0-1.91,1.91V50.62a1.91,1.91,0,1,0,3.82,0V28.78A1.91,1.91,0,0,0,61,26.87Z"/><path class="cls-1" d="M40.58,67.6H33.3a3.91,3.91,0,0,1,0-7.82h7.28a3.91,3.91,0,1,1,0,7.82ZM33.3,61.78a1.91,1.91,0,0,0,0,3.82h7.28a1.91,1.91,0,1,0,0-3.82Z"/><path class="cls-1" d="M61,26.75a1,1,0,0,1-1-1,23.75,23.75,0,0,0-47.5,0,1,1,0,0,1-2,0,25.75,25.75,0,0,1,51.5,0A1,1,0,0,1,61,26.75Z"/><path class="cls-1" d="M63.87,51.62a1,1,0,0,1,0-2c3.47,0,6.28-4.45,6.28-9.92s-2.81-9.92-6.28-9.92a1,1,0,0,1,0-2c4.57,0,8.28,5.35,8.28,11.92S68.44,51.62,63.87,51.62Z"/><path class="cls-1" d="M11.19,54.53a3.91,3.91,0,0,1-3.91-3.91V28.78a3.91,3.91,0,0,1,7.82,0V50.62A3.91,3.91,0,0,1,11.19,54.53Zm0-27.66a1.92,1.92,0,0,0-1.91,1.91V50.62a1.91,1.91,0,1,0,3.82,0V28.78A1.91,1.91,0,0,0,11.19,26.87Z"/><path class="cls-1" d="M8.28,51.62C3.71,51.62,0,46.27,0,39.7S3.71,27.78,8.28,27.78a1,1,0,1,1,0,2C4.82,29.78,2,34.23,2,39.7s2.82,9.92,6.28,9.92a1,1,0,1,1,0,2Z"/><path class="cls-1" d="M49.32,64.69H43.49a1,1,0,0,1,0-2h5.83c6.12,0,10-3.29,10.56-9a1,1,0,0,1,1.1-.89,1,1,0,0,1,.89,1.09C61.17,60.64,56.48,64.69,49.32,64.69Z"/></g></g></svg>