<svg xmlns="http://www.w3.org/2000/svg" viewBox="0 0 71.66 71.87"><defs><style>.cls-1{fill:#02568a;}</style></defs><g id="Layer_2" data-name="Layer 2"><g id="Layer_1-2" data-name="Layer 1"><path class="cls-1" d="M27,71.87H23a4,4,0,0,1-4-4v-3a19.34,19.34,0,0,1-2.5-1L14.39,66a4.05,4.05,0,0,1-5.65,0L5.91,63.13a4,4,0,0,1,0-5.65L8,55.36a18.64,18.64,0,0,1-1-2.49H4a4,4,0,0,1-4-4v-4a4,4,0,0,1,4-4H7a18.11,18.11,0,0,1,1-2.49L5.91,36.26a4,4,0,0,1,0-5.65l2.83-2.83a4,4,0,0,1,5.65,0l2.12,2.11a18.64,18.64,0,0,1,2.49-1v-3a4,4,0,0,1,4-4h4a4,4,0,0,1,4,4v3a18.64,18.64,0,0,1,2.49,1l2.12-2.11a4,4,0,0,1,5.65,0l2.83,2.83a4,4,0,0,1,0,5.65L42,38.38a18.64,18.64,0,0,1,1,2.49h3a4,4,0,0,1,4,4v4a4,4,0,0,1-4,4H43a18.64,18.64,0,0,1-1,2.49l2.11,2.12a4,4,0,0,1,0,5.65L41.26,66a4,4,0,0,1-5.65,0l-2.12-2.11a18.11,18.11,0,0,1-2.49,1v3A4,4,0,0,1,27,71.87ZM16.14,61.38l.66.37a17.37,17.37,0,0,0,3.48,1.44l.72.2v4.48a2,2,0,0,0,2,2h4a2,2,0,0,0,2-2V63.4l.72-.21a18,18,0,0,0,3.48-1.44l.65-.37L37,64.55a2.08,2.08,0,0,0,2.83,0l2.83-2.83a2,2,0,0,0,0-2.83l-3.17-3.17.37-.65a16.77,16.77,0,0,0,1.43-3.48l.21-.72H46a2,2,0,0,0,2-2v-4a2,2,0,0,0-2-2H41.52l-.2-.72a17.37,17.37,0,0,0-1.44-3.48L39.51,38l3.17-3.16a2,2,0,0,0,0-2.83l-2.83-2.83a2.08,2.08,0,0,0-2.83,0l-3.17,3.17L33.19,32a16,16,0,0,0-3.47-1.44L29,30.35V25.87a2,2,0,0,0-2-2H23a2,2,0,0,0-2,2v4.48l-.72.21A16.27,16.27,0,0,0,16.8,32l-.65.36L13,29.19a2.08,2.08,0,0,0-2.83,0L7.32,32a2,2,0,0,0,0,2.83L10.49,38l-.37.65a18,18,0,0,0-1.44,3.48l-.2.72H4a2,2,0,0,0-1.42.59A2,2,0,0,0,2,44.87v4a2,2,0,0,0,2,2H8.47l.21.72a17,17,0,0,0,1.44,3.47l.37.66L7.32,58.89a2,2,0,0,0,0,2.83l2.83,2.83a2.08,2.08,0,0,0,2.83,0Z"/><path class="cls-1" d="M25,57.87a11,11,0,1,1,11-11A11,11,0,0,1,25,57.87Zm0-20a9,9,0,1,0,9,9A9,9,0,0,0,25,37.87Z"/><path class="cls-1" d="M59.41,9.77H39.79a2.19,2.19,0,0,1-2.2-2.19V2.2A2.2,2.2,0,0,1,39.79,0H59.41a2.21,2.21,0,0,1,2.2,2.2V7.58A2.2,2.2,0,0,1,59.41,9.77ZM39.79,2a.2.2,0,0,0-.2.2V7.58a.19.19,0,0,0,.2.19H59.41a.19.19,0,0,0,.2-.19V2.2a.2.2,0,0,0-.2-.2Z"/><path class="cls-1" d="M69.47,71.69H39.41a1,1,0,0,1,0-2H69.47a.19.19,0,0,0,.19-.19V6.18A.18.18,0,0,0,69.47,6h-6a1,1,0,0,1,0-2h6a2.19,2.19,0,0,1,2.19,2.19V69.5A2.2,2.2,0,0,1,69.47,71.69Z"/><path class="cls-1" d="M29.2,19.19a1,1,0,0,1-1-1v-12A2.19,2.19,0,0,1,30.4,4h5.27a1,1,0,0,1,0,2H30.4a.19.19,0,0,0-.2.19v12A1,1,0,0,1,29.2,19.19Z"/><path class="cls-1" d="M63.13,23.74H36.48a1,1,0,0,1,0-2H63.13a1,1,0,1,1,0,2Z"/><path class="cls-1" d="M63.13,41.21H52.26a1,1,0,0,1,0-2H63.13a1,1,0,0,1,0,2Z"/><path class="cls-1" d="M63.13,58.63H47.23a1,1,0,0,1,0-2h15.9a1,1,0,0,1,0,2Z"/></g></g></svg>