<svg xmlns="http://www.w3.org/2000/svg" viewBox="0 0 72.3 71.82"><defs><style>.cls-1{fill:#02568a;}</style></defs><g id="Layer_2" data-name="Layer 2"><g id="Layer_1-2" data-name="Layer 1"><path class="cls-1" d="M29.05,71.82l-.41-.18a89.25,89.25,0,0,1-14.2-8.32C4.86,56.38,0,49.44,0,42.67V12L28.47.12a1.46,1.46,0,0,1,1.16,0L58.1,12V31.2a1,1,0,0,1-2,0V13.32L29.05,2,2,13.32V42.67c0,7.59,7.4,14.53,13.61,19a89.63,89.63,0,0,0,13.44,7.92,90,90,0,0,0,8.17-4.42,1,1,0,0,1,1.37.33,1,1,0,0,1-.33,1.38,86.14,86.14,0,0,1-8.8,4.73Z"/><path class="cls-1" d="M58.13,62.05h-15a2.56,2.56,0,0,1-2.55-2.56V51.31a2.55,2.55,0,0,1,2.55-2.55h15a2.55,2.55,0,0,1,2.55,2.55v8.18A2.56,2.56,0,0,1,58.13,62.05Zm-15-11.29a.55.55,0,0,0-.55.55v8.18a.55.55,0,0,0,.55.56h15a.55.55,0,0,0,.55-.56V51.31a.55.55,0,0,0-.55-.55Z"/><path class="cls-1" d="M57.43,50.76a1,1,0,0,1-1-1V45.24a5.78,5.78,0,0,0-11.55,0v4.52a1,1,0,0,1-2,0V45.24a7.78,7.78,0,0,1,15.55,0v4.52A1,1,0,0,1,57.43,50.76Z"/><path class="cls-1" d="M51.17,71.7A21.14,21.14,0,1,1,72.3,50.56,21.16,21.16,0,0,1,51.17,71.7Zm0-40.28A19.14,19.14,0,1,0,70.3,50.56,19.16,19.16,0,0,0,51.17,31.42Z"/></g></g></svg>