<svg xmlns="http://www.w3.org/2000/svg" viewBox="0 0 72.1 72.1"><defs><style>.cls-1{fill:#02568a;}</style></defs><g id="Layer_2" data-name="Layer 2"><g id="Layer_1-2" data-name="Layer 1"><path class="cls-1" d="M5.19,34.89H5.14a1,1,0,0,1-.95-1.06A32,32,0,0,1,26.57,5.1a1,1,0,0,1,1.25.66A1,1,0,0,1,27.17,7a29.94,29.94,0,0,0-21,26.93A1,1,0,0,1,5.19,34.89Z"/><path class="cls-1" d="M5.29,36.34.27,31a1,1,0,1,1,1.46-1.37l3.66,3.93,4.07-3.8a1,1,0,0,1,1.37,1.47Z"/><path class="cls-1" d="M45.23,67.05a1,1,0,0,1-.29-2,30,30,0,0,0,21-26.94,1,1,0,0,1,1-.94,1,1,0,0,1,1,1.05A32,32,0,0,1,45.53,67,1,1,0,0,1,45.23,67.05Z"/><path class="cls-1" d="M71.1,42.84a1,1,0,0,1-.73-.32l-3.65-3.93-4.08,3.8a1,1,0,0,1-1.36-1.47l5.54-5.15,5,5.39a1,1,0,0,1,0,1.41A1,1,0,0,1,71.1,42.84Z"/><path class="cls-1" d="M33.89,67.91h0A32,32,0,0,1,5.1,45.53a1,1,0,0,1,.66-1.25A1,1,0,0,1,7,44.94a29.93,29.93,0,0,0,26.93,21,1,1,0,0,1,0,2Z"/><path class="cls-1" d="M30.26,72.1a1,1,0,0,1-.73-.32,1,1,0,0,1,0-1.41l3.93-3.65-3.79-4.08a1,1,0,1,1,1.46-1.36l5.16,5.54-5.39,5A1,1,0,0,1,30.26,72.1Z"/><path class="cls-1" d="M66.05,27.87a1,1,0,0,1-1-.71,30,30,0,0,0-26.94-21,1,1,0,0,1-.94-1.05,1,1,0,0,1,1.05-.95A32,32,0,0,1,67,26.57a1,1,0,0,1-.66,1.25A1,1,0,0,1,66.05,27.87Z"/><path class="cls-1" d="M41.66,11.15a1,1,0,0,1-.74-.32L35.77,5.28l5.39-5a1,1,0,0,1,1.41,0,1,1,0,0,1,0,1.41L38.59,5.39l3.8,4.07a1,1,0,0,1-.73,1.69Z"/><path class="cls-1" d="M37.66,55.89h-3.2a3.4,3.4,0,0,1-3.4-3.4V50.24a15.91,15.91,0,0,1-1.76-.73L27.7,51.1a3.45,3.45,0,0,1-4.81,0l-2.26-2.27a3.39,3.39,0,0,1,0-4.81l1.59-1.59a15.91,15.91,0,0,1-.73-1.76H19.24a3.4,3.4,0,0,1-3.4-3.4V34.06a3.4,3.4,0,0,1,3.4-3.4h2.25a15.91,15.91,0,0,1,.73-1.76l-1.59-1.59a3.4,3.4,0,0,1,0-4.81l2.26-2.27a3.47,3.47,0,0,1,4.82,0l1.59,1.59a15.91,15.91,0,0,1,1.76-.73V18.84a3.4,3.4,0,0,1,3.4-3.4h3.2a3.41,3.41,0,0,1,3.41,3.4v2.25a15.75,15.75,0,0,1,1.75.73l1.6-1.59a3.45,3.45,0,0,1,4.81,0L51.5,22.5a3.4,3.4,0,0,1,0,4.81L49.9,28.9a14.19,14.19,0,0,1,.73,1.76h2.25a3.41,3.41,0,0,1,3.41,3.4v3.21a3.41,3.41,0,0,1-3.41,3.4H50.63a14.19,14.19,0,0,1-.73,1.76L51.5,44a3.42,3.42,0,0,1,0,4.81L49.23,51.1a3.45,3.45,0,0,1-4.81,0l-1.59-1.59a15.91,15.91,0,0,1-1.76.73v2.25A3.41,3.41,0,0,1,37.66,55.89ZM28.93,47l.66.37a13.08,13.08,0,0,0,2.74,1.13l.73.21v3.74a1.4,1.4,0,0,0,1.4,1.4h3.2a1.41,1.41,0,0,0,1.41-1.4V48.75l.72-.21a12.86,12.86,0,0,0,2.74-1.13l.66-.37,2.64,2.65a1.49,1.49,0,0,0,2,0l2.26-2.27a1.39,1.39,0,0,0,0-2l-2.64-2.65.36-.66a13.2,13.2,0,0,0,1.14-2.74l.21-.72h3.73a1.4,1.4,0,0,0,1.41-1.4V34.06a1.41,1.41,0,0,0-1.41-1.4H49.15l-.21-.72A12.89,12.89,0,0,0,47.8,29.2l-.36-.66,2.64-2.65a1.35,1.35,0,0,0,.41-1,1.38,1.38,0,0,0-.41-1l-2.26-2.26a1.46,1.46,0,0,0-2,0l-2.64,2.64-.66-.37a13.63,13.63,0,0,0-2.74-1.13l-.72-.21V18.84a1.41,1.41,0,0,0-1.41-1.4h-3.2a1.4,1.4,0,0,0-1.4,1.4v3.74l-.73.21a13.08,13.08,0,0,0-2.74,1.13l-.65.37-2.65-2.64a1.45,1.45,0,0,0-2,0L22,23.91a1.42,1.42,0,0,0,0,2l2.64,2.64-.36.66a13.2,13.2,0,0,0-1.14,2.74l-.21.72H19.24a1.41,1.41,0,0,0-1,.41,1.38,1.38,0,0,0-.41,1v3.21a1.4,1.4,0,0,0,1.4,1.4H23l.21.72a13.43,13.43,0,0,0,1.14,2.74l.36.66L22,45.44a1.35,1.35,0,0,0-.41,1,1.37,1.37,0,0,0,.41,1l2.27,2.27a1.47,1.47,0,0,0,2,0Z"/><path class="cls-1" d="M34,42.44a6.51,6.51,0,1,1,2.53-12.51,1,1,0,0,1,.53,1.31,1,1,0,0,1-1.31.54A4.42,4.42,0,0,0,34,31.42a4.51,4.51,0,0,0,0,9A4.41,4.41,0,0,0,35.93,40a1,1,0,0,1,.85,1.81A6.44,6.44,0,0,1,34,42.44Z"/><path class="cls-1" d="M41,42.22a1,1,0,0,1-1-1V30.3a1,1,0,1,1,2,0V41.22A1,1,0,0,1,41,42.22Z"/></g></g></svg>