<svg id="open-source" xmlns="http://www.w3.org/2000/svg" width="74.287" height="74.286" viewBox="0 0 74.287 74.286">
  <g id="Group_184" data-name="Group 184" transform="translate(0)">
    <ellipse id="Ellipse_128" data-name="Ellipse 128" cx="37.143" cy="37.143" rx="37.143" ry="37.143" fill="#f0750f"/>
  </g>
  <g id="_356-Document_Code" data-name=" 356-Document Code" transform="translate(20.584 16.659)">
    <g id="Group_185" data-name="Group 185">
      <path id="Path_9847" data-name="Path 9847" d="M-56.1,163.3H-86.277a.919.919,0,0,1-.919-.919V131.26a.919.919,0,0,1,.262-.645l7.545-7.678a.912.912,0,0,1,.657-.277H-56.1a.919.919,0,0,1,.919.919v38.8A.919.919,0,0,1-56.1,163.3Zm-29.26-1.838h28.342V124.5h-21.33l-7.011,7.136Z" transform="translate(87.196 -122.661)" fill="#fff"/>
    </g>
    <g id="Group_186" data-name="Group 186" transform="translate(0.919 0.919)">
      <path id="Path_9848" data-name="Path 9848" d="M-79.276,131.635h-7.545V129.8h6.627v-6.761h1.838v7.68A.919.919,0,0,1-79.276,131.635Z" transform="translate(86.821 -123.036)" fill="#fff"/>
    </g>
    <g id="Group_187" data-name="Group 187" transform="translate(6.288 15.635)">
      <path id="Path_9849" data-name="Path 9849" d="M-79.339,140.569l-5.029-5.119a.919.919,0,0,1,0-1.287l5.029-5.122,1.311,1.289-4.394,4.477,4.394,4.475Z" transform="translate(84.63 -129.041)" fill="#fff"/>
    </g>
    <g id="Group_188" data-name="Group 188" transform="translate(19.125 15.635)">
      <path id="Path_9850" data-name="Path 9850" d="M-78.078,140.569l-1.314-1.287,4.4-4.475-4.4-4.477,1.314-1.289,5.029,5.122a.919.919,0,0,1,0,1.287Z" transform="translate(79.392 -129.041)" fill="#fff"/>
    </g>
  </g>
</svg>
