<svg xmlns="http://www.w3.org/2000/svg" viewBox="0 0 73.83 73.83"><defs><style>.cls-1{fill:none;stroke:#02568a;stroke-linecap:round;stroke-miterlimit:10;stroke-width:2px;}</style></defs><g id="Layer_2" data-name="Layer 2"><g id="Layer_1-2" data-name="Layer 1"><path class="cls-1" d="M70.07,34.15h-.48a2.72,2.72,0,0,1-2.71-2.23c-.1-.64-.22-1.26-.36-1.88A2.72,2.72,0,0,1,68.17,27l.43-.18a2.77,2.77,0,0,0,1.5-3.61h0a2.78,2.78,0,0,0-3.62-1.5l-.44.19a2.73,2.73,0,0,1-3.35-1c-.34-.54-.69-1.07-1.06-1.59A2.71,2.71,0,0,1,62,15.76l.34-.34a2.76,2.76,0,0,0,0-3.91h0a2.76,2.76,0,0,0-3.91,0l-.33.35a2.72,2.72,0,0,1-3.49.34c-.52-.37-1-.72-1.59-1.06a2.71,2.71,0,0,1-1-3.35l.18-.45a2.76,2.76,0,1,0-5.1-2.11l-.18.43a2.73,2.73,0,0,1-3.08,1.65c-.62-.14-1.25-.27-1.88-.37a2.7,2.7,0,0,1-2.23-2.7V3.76a2.77,2.77,0,0,0-5.53,0v.48A2.72,2.72,0,0,1,31.92,7c-.64.1-1.26.22-1.88.36A2.72,2.72,0,0,1,27,5.66l-.18-.43a2.77,2.77,0,0,0-5.11,2.12l.19.44a2.73,2.73,0,0,1-1,3.35c-.55.34-1.08.69-1.59,1.06a2.74,2.74,0,0,1-3.49-.34l-.33-.34a2.76,2.76,0,0,0-3.91,0h0a2.76,2.76,0,0,0,0,3.91l.34.33a2.73,2.73,0,0,1,.34,3.49c-.37.51-.72,1-1.06,1.59a2.73,2.73,0,0,1-3.35,1l-.45-.18a2.76,2.76,0,0,0-3.61,1.49h0a2.77,2.77,0,0,0,1.5,3.61l.43.18A2.72,2.72,0,0,1,7.31,30c-.14.62-.27,1.25-.37,1.88a2.7,2.7,0,0,1-2.7,2.23H3.76A2.77,2.77,0,0,0,1,36.92H1a2.77,2.77,0,0,0,2.76,2.76h.48A2.72,2.72,0,0,1,7,41.91c.1.64.22,1.26.36,1.88a2.72,2.72,0,0,1-1.65,3.08l-.43.18a2.75,2.75,0,0,0-1.49,3.61h0a2.76,2.76,0,0,0,3.61,1.5L7.79,52a2.73,2.73,0,0,1,3.35,1c.34.54.69,1.07,1.06,1.59a2.71,2.71,0,0,1-.34,3.48l-.34.34a2.76,2.76,0,0,0,3.91,3.91l.34-.34a2.71,2.71,0,0,1,3.48-.34c.52.37,1.05.72,1.59,1.06a2.71,2.71,0,0,1,1,3.35l-.18.44a2.77,2.77,0,0,0,5.11,2.12l.18-.43a2.71,2.71,0,0,1,3.08-1.65c.62.14,1.24.26,1.88.36a2.7,2.7,0,0,1,2.22,2.7v.48a2.77,2.77,0,0,0,5.53,0v-.48a2.72,2.72,0,0,1,2.23-2.71c.64-.1,1.26-.22,1.88-.36a2.72,2.72,0,0,1,3.08,1.65l.18.43a2.77,2.77,0,1,0,5.11-2.12L52,66a2.73,2.73,0,0,1,1-3.35c.54-.34,1.07-.69,1.59-1.06a2.71,2.71,0,0,1,3.48.34l.34.34a2.76,2.76,0,0,0,3.91-3.91L62,58.06a2.71,2.71,0,0,1-.34-3.48c.37-.52.72-1,1.06-1.59a2.71,2.71,0,0,1,3.35-1l.44.18a2.77,2.77,0,0,0,3.61-1.5h0A2.76,2.76,0,0,0,68.61,47l-.43-.18a2.71,2.71,0,0,1-1.65-3.08c.14-.62.26-1.24.36-1.88a2.7,2.7,0,0,1,2.7-2.22h.48a2.77,2.77,0,0,0,2.76-2.76h0A2.77,2.77,0,0,0,70.07,34.15ZM36.92,59A22.11,22.11,0,1,1,59,36.92,22.11,22.11,0,0,1,36.92,59Z"/><path class="cls-1" d="M46.78,36.17,32.31,27.82a1.69,1.69,0,0,0-2.54,1.47V46a1.7,1.7,0,0,0,2.54,1.47l14.47-8.36A1.69,1.69,0,0,0,46.78,36.17Z"/></g></g></svg>