<svg xmlns="http://www.w3.org/2000/svg" viewBox="0 0 71.76 71.76"><defs><style>.cls-1{fill:#02568a;}</style></defs><g id="Layer_2" data-name="Layer 2"><g id="Layer_1-2" data-name="Layer 1"><path class="cls-1" d="M67.55,71.76H4.21A4.22,4.22,0,0,1,0,67.55V4.21A4.22,4.22,0,0,1,4.21,0H67.55a4.22,4.22,0,0,1,4.21,4.21V67.55A4.22,4.22,0,0,1,67.55,71.76ZM4.21,2A2.21,2.21,0,0,0,2,4.21V67.55a2.21,2.21,0,0,0,2.21,2.21H67.55a2.21,2.21,0,0,0,2.21-2.21V4.21A2.21,2.21,0,0,0,67.55,2Z"/><path class="cls-1" d="M35.92,67a31,31,0,1,1,31-31A31,31,0,0,1,35.92,67Zm0-60a29,29,0,1,0,29,29A29,29,0,0,0,35.92,7Z"/><path class="cls-1" d="M35.92,46.44A10.43,10.43,0,1,1,46.34,36,10.44,10.44,0,0,1,35.92,46.44Zm0-18.85A8.43,8.43,0,1,0,44.34,36,8.44,8.44,0,0,0,35.92,27.59Z"/><path class="cls-1" d="M35.92,41.06A5,5,0,1,1,41,36,5.06,5.06,0,0,1,35.92,41.06Zm0-8.09a3,3,0,1,0,3,3A3,3,0,0,0,35.92,33Z"/><path class="cls-1" d="M26.49,37H6.25a1,1,0,0,1,0-2H26.49a1,1,0,1,1,0,2Z"/><path class="cls-1" d="M65.91,37H45.34a1,1,0,0,1,0-2H65.91a1,1,0,0,1,0,2Z"/><path class="cls-1" d="M14.72,58.21a1,1,0,0,1-.71-.29,1,1,0,0,1,0-1.41l14.3-14.3a1,1,0,0,1,1.42,0,1,1,0,0,1,0,1.41L15.42,57.92A1,1,0,0,1,14.72,58.21Z"/><path class="cls-1" d="M42,29.36a1,1,0,0,1-.71-1.71l14.3-14.3a1,1,0,0,1,1.42,0,1,1,0,0,1,0,1.41l-14.3,14.3A1,1,0,0,1,42,29.36Z"/><path class="cls-1" d="M7.92,47.19a1,1,0,0,1-.34-1.94l18.73-6.9A1,1,0,1,1,27,40.22L8.27,47.13A1.07,1.07,0,0,1,7.92,47.19Z"/><path class="cls-1" d="M44.56,32.49a1,1,0,0,1-.34-1.94l19-7a1,1,0,1,1,.7,1.88l-19,7A.84.84,0,0,1,44.56,32.49Z"/><path class="cls-1" d="M40.12,20.13a1,1,0,0,1-.71-.3l-3.55-3.54-3.54,3.54a1,1,0,0,1-1.42,0,1,1,0,0,1,0-1.41l5-5,5,5a1,1,0,0,1,0,1.41A1,1,0,0,1,40.12,20.13Z"/><path class="cls-1" d="M35.86,33a1,1,0,0,1-1-1V15.54a1,1,0,0,1,2,0V32A1,1,0,0,1,35.86,33Z"/></g></g></svg>