<svg xmlns="http://www.w3.org/2000/svg" viewBox="0 0 71.97 72.05"><defs><style>.cls-1{fill:#02568a;}.cls-2{fill:none;}</style></defs><g id="Layer_2" data-name="Layer 2"><g id="Layer_1-2" data-name="Layer 1"><path class="cls-1" d="M18.36,72.05H3.82A3.83,3.83,0,0,1,0,68.23V40.07a3.82,3.82,0,0,1,3.82-3.82H18.36a3.82,3.82,0,0,1,3.82,3.82V68.23A3.83,3.83,0,0,1,18.36,72.05ZM3.82,38.25A1.83,1.83,0,0,0,2,40.07V68.23a1.83,1.83,0,0,0,1.82,1.82H18.36a1.83,1.83,0,0,0,1.82-1.82V40.07a1.83,1.83,0,0,0-1.82-1.82Z"/><path class="cls-1" d="M43.38,72.05H28.85A3.83,3.83,0,0,1,25,68.23V30.79A3.83,3.83,0,0,1,28.85,27H43.38a3.83,3.83,0,0,1,3.83,3.82V68.23A3.83,3.83,0,0,1,43.38,72.05ZM28.85,29A1.82,1.82,0,0,0,27,30.79V68.23a1.82,1.82,0,0,0,1.82,1.82H43.38a1.83,1.83,0,0,0,1.83-1.82V30.79A1.83,1.83,0,0,0,43.38,29Z"/><path class="cls-1" d="M68.15,72.05H53.62a3.83,3.83,0,0,1-3.83-3.82V22.07a3.83,3.83,0,0,1,3.83-3.82H68.15A3.82,3.82,0,0,1,72,22.07V68.23A3.83,3.83,0,0,1,68.15,72.05ZM53.62,20.25a1.83,1.83,0,0,0-1.83,1.82V68.23a1.83,1.83,0,0,0,1.83,1.82H68.15A1.82,1.82,0,0,0,70,68.23V22.07a1.82,1.82,0,0,0-1.82-1.82Z"/><path class="cls-1" d="M9.17,25.83A1,1,0,0,1,8.63,24L28.38,11.45a4.34,4.34,0,0,1,5.87,1.16l.64.92a2.33,2.33,0,0,0,3.19.6L58.51.71a1,1,0,0,1,1.1,1.68L39.18,15.8a4.31,4.31,0,0,1-5.92-1.12l-.65-.92a2.33,2.33,0,0,0-3.15-.62L9.7,25.68A1,1,0,0,1,9.17,25.83Z"/><path class="cls-1" d="M59.52,11.21a1,1,0,0,1-1-1V2H50.31a1,1,0,0,1,0-2H60.52V10.21A1,1,0,0,1,59.52,11.21Z"/><path class="cls-2" d="M22,22.69H70v48H22Z"/></g></g></svg>