<svg xmlns="http://www.w3.org/2000/svg" viewBox="0 0 72.12 72.08"><defs><style>.cls-1{fill:#02568a;}</style></defs><g id="Layer_2" data-name="Layer 2"><g id="Layer_1-2" data-name="Layer 1"><path class="cls-1" d="M36,72.08A36,36,0,0,1,15.76,6.25,1,1,0,1,1,16.88,7.9,34,34,0,1,0,37,2V15.76a1,1,0,0,1-2,0V0h1a36,36,0,0,1,0,72.08Z"/><path class="cls-1" d="M36,37a1,1,0,0,1-.83-.44L16,7.88a1,1,0,0,1,.27-1.38,1,1,0,0,1,1.39.27L36.87,35.48a1,1,0,0,1-.28,1.39A1,1,0,0,1,36,37Z"/><path class="cls-1" d="M36,71.66a1,1,0,0,1-1-1V65.22a1,1,0,0,1,2,0v5.44A1,1,0,0,1,36,71.66Z"/><path class="cls-1" d="M71.12,37.12H65.68a1,1,0,0,1,0-2h5.44a1,1,0,0,1,0,2Z"/><path class="cls-1" d="M6.49,37H1.05a1,1,0,1,1,0-2H6.49a1,1,0,1,1,0,2Z"/></g></g></svg>