<svg xmlns="http://www.w3.org/2000/svg" viewBox="0 0 92.14 100.18"><defs><style>.cls-1{fill:#02568a;}.cls-2{fill:#f0750f;}</style></defs><g id="Layer_2" data-name="Layer 2"><g id="Layer_1-2" data-name="Layer 1"><path class="cls-1" d="M78.79,26.8H41.22l-.28-.51A48.44,48.44,0,0,0,24.1,9l-1.4-.86,1.4-.85a50.1,50.1,0,0,1,67.15,14.3l.57.81L91,23A21.28,21.28,0,0,1,78.79,26.8Zm-36.41-2H78.79A19.14,19.14,0,0,0,89,21.86,48.09,48.09,0,0,0,26.55,8.15,50.33,50.33,0,0,1,42.38,24.8Z"/><path class="cls-1" d="M43.53,26.8H5.72l.85-1.5a50.43,50.43,0,0,1,17.53-18l.52-.32.52.32a50.43,50.43,0,0,1,17.53,18ZM9.2,24.8H40.05A48.33,48.33,0,0,0,24.62,9.29,48.3,48.3,0,0,0,9.2,24.8Z"/><path class="cls-1" d="M50.09,100.18a50,50,0,0,1-26-7.26l-1.4-.86,1.4-.85a48.46,48.46,0,0,0,17.26-18l.28-.52H78.79a21.14,21.14,0,0,1,12.57,4.12l.78.57-.54.8A50.09,50.09,0,0,1,50.09,100.18ZM26.55,92A48.1,48.1,0,0,0,89.38,77.82a19.08,19.08,0,0,0-10.59-3.18h-36A50.29,50.29,0,0,1,26.55,92Z"/><path class="cls-1" d="M24.62,93.23l-.52-.31a50.5,50.5,0,0,1-18-18.8l-.81-1.48h38.6l-.81,1.48a50.35,50.35,0,0,1-18,18.8ZM8.73,74.64A48.42,48.42,0,0,0,24.62,90.89,48.33,48.33,0,0,0,40.51,74.64Z"/><path class="cls-2" d="M45.75,65.55H69.64A15.35,15.35,0,0,0,85,50.2h0A15.34,15.34,0,0,0,69.64,34.86H45.82a48.87,48.87,0,0,1,2.42,15.23A49.09,49.09,0,0,1,45.75,65.55Z"/><path class="cls-1" d="M69.64,66.55H44.36l.44-1.32a48.14,48.14,0,0,0,2.45-15.14,47.91,47.91,0,0,0-2.38-14.92l-.42-1.31H69.64a16.35,16.35,0,1,1,0,32.69Zm-22.53-2H69.64a14.35,14.35,0,1,0,0-28.69H47.18a50,50,0,0,1,2.07,14.23A49.94,49.94,0,0,1,47.11,64.55Z"/><path class="cls-1" d="M46.47,66.55H2.78l-.23-.69a50.08,50.08,0,0,1-.08-31.31l.23-.69H46.55l.22.69a50,50,0,0,1,2.48,15.54A50.07,50.07,0,0,1,46.7,65.86Zm-42.24-2H45a48,48,0,0,0,2.23-14.46,48,48,0,0,0-2.16-14.23H4.15a48.08,48.08,0,0,0,.08,28.69Z"/></g></g></svg>