<svg xmlns="http://www.w3.org/2000/svg" viewBox="0 0 87.75 100.76"><defs><style>.cls-1{fill:#02568a;}.cls-2{fill:#f0750f;}</style></defs><g id="Layer_2" data-name="Layer 2"><g id="Layer_1-2" data-name="Layer 1"><path class="cls-1" d="M87.75,100.76H0V84.6a1,1,0,0,1,1-1H1a1,1,0,0,1,1,1V98.76H85.74a58.24,58.24,0,0,0-43-55.17,1,1,0,1,1,.52-1.93,60.24,60.24,0,0,1,44.51,58.1Z"/><path class="cls-1" d="M43.28,43.74l-.56-.15a58.66,58.66,0,0,0-15.14-2H0V0H87ZM2,39.59H27.58a60.58,60.58,0,0,1,15.1,1.92L82.19,2H2Z"/><path class="cls-2" d="M43,42.63a59.21,59.21,0,0,0-15.39-2H1v44Z"/><path class="cls-1" d="M0,87V39.59H27.58a60.51,60.51,0,0,1,15.66,2.07l1.67.45ZM2,41.59V82.18l39-39a58,58,0,0,0-13.45-1.58Z"/><path class="cls-1" d="M4.45,100.4a1,1,0,0,1-.71-.29,1,1,0,0,1,0-1.41L55.05,47.18a1,1,0,0,1,1.42,1.41L5.16,100.11A1,1,0,0,1,4.45,100.4Z"/></g></g></svg>