<svg xmlns="http://www.w3.org/2000/svg" viewBox="0 0 71.27 71.85"><defs><style>.cls-1{fill:#02568a;}</style></defs><g id="Layer_2" data-name="Layer 2"><g id="Layer_1-2" data-name="Layer 1"><path class="cls-1" d="M39.91,71.85h-8.7l-.92-4.77a18.09,18.09,0,0,1-2.23-.93l-4,2.73-6.15-6.15,2.73-4a15.68,15.68,0,0,1-.93-2.25l-4.77-.91v-8.7l4.77-.91a17.47,17.47,0,0,1,.93-2.23l-2.73-4L24,33.53l4,2.73a16.61,16.61,0,0,1,2.23-.92l.92-4.78h8.7l.91,4.77a16.79,16.79,0,0,1,2.24.93l4-2.73,6.16,6.16-2.73,4a16.09,16.09,0,0,1,.92,2.23l4.77.91v8.7l-4.76.91a16.92,16.92,0,0,1-.93,2.25l2.73,4-6.16,6.15-4-2.73a15.57,15.57,0,0,1-2.24.93Zm-7-2h5.39l.83-4.34.59-.17a13.49,13.49,0,0,0,3-1.23l.54-.29,3.66,2.48,3.81-3.82-2.48-3.65.3-.54a15,15,0,0,0,1.23-3l.17-.59,4.33-.83V48.51l-4.33-.83-.17-.59a15.12,15.12,0,0,0-1.23-3l-.3-.53,2.48-3.66-3.81-3.81L43.18,38.6l-.54-.3a14,14,0,0,0-3-1.23l-.59-.17-.83-4.34H32.86L32,36.9l-.59.17a14.79,14.79,0,0,0-3,1.23l-.54.3-3.65-2.48-3.82,3.81L23,43.59l-.29.53a14.54,14.54,0,0,0-1.23,3l-.17.59-4.34.83V53.9l4.33.83.17.59a14.48,14.48,0,0,0,1.24,3l.29.54-2.48,3.65,3.82,3.82,3.65-2.49.54.3a14.69,14.69,0,0,0,3,1.23l.59.17Z"/><path class="cls-1" d="M35.56,60.65A9.71,9.71,0,1,1,45.27,51,9.71,9.71,0,0,1,35.56,60.65Zm0-17.41A7.71,7.71,0,1,0,43.27,51,7.71,7.71,0,0,0,35.56,43.24Z"/><path class="cls-1" d="M35.71,21.38A10.69,10.69,0,1,1,46.39,10.69,10.7,10.7,0,0,1,35.71,21.38ZM35.71,2a8.69,8.69,0,1,0,8.68,8.69A8.7,8.7,0,0,0,35.71,2Z"/><path class="cls-1" d="M60.58,35.23A10.69,10.69,0,1,1,71.27,24.54,10.71,10.71,0,0,1,60.58,35.23Zm0-19.38a8.69,8.69,0,1,0,8.69,8.69A8.7,8.7,0,0,0,60.58,15.85Z"/><path class="cls-1" d="M10.69,35.23A10.69,10.69,0,1,1,21.38,24.54,10.7,10.7,0,0,1,10.69,35.23Zm0-19.38a8.69,8.69,0,1,0,8.69,8.69A8.7,8.7,0,0,0,10.69,15.85Z"/><path class="cls-1" d="M30.18,19.51a1,1,0,0,1-1-.88,7.55,7.55,0,0,1-.05-.83,6.6,6.6,0,0,1,13.2,0,5.85,5.85,0,0,1,0,.73,1,1,0,0,1-2-.22,4.36,4.36,0,0,0,0-.51,4.6,4.6,0,0,0-9.2,0,5.49,5.49,0,0,0,0,.58,1,1,0,0,1-.86,1.12Z"/><path class="cls-1" d="M35.69,13.19A4.32,4.32,0,1,1,40,8.87,4.33,4.33,0,0,1,35.69,13.19Zm0-6.64A2.32,2.32,0,1,0,38,8.87,2.32,2.32,0,0,0,35.69,6.55Z"/><path class="cls-1" d="M56.76,28.57a1,1,0,0,1-1-1V23a1,1,0,0,1,2,0v4.53A1,1,0,0,1,56.76,28.57Z"/><path class="cls-1" d="M63.64,28.57a1,1,0,0,1-1-1V24.46a1,1,0,1,1,2,0v3.11A1,1,0,0,1,63.64,28.57Z"/><path class="cls-1" d="M60.13,28.61a1,1,0,0,1-1-1V18.73a1,1,0,1,1,2,0v8.88A1,1,0,0,1,60.13,28.61Z"/><circle class="cls-1" cx="6.69" cy="24.54" r="1.17"/><circle class="cls-1" cx="10.69" cy="24.54" r="1.17"/><circle class="cls-1" cx="14.69" cy="24.54" r="1.17"/></g></g></svg>