<svg xmlns="http://www.w3.org/2000/svg" viewBox="0 0 71.75 71.75"><defs><style>.cls-1{fill:#02568a;}</style></defs><g id="Layer_2" data-name="Layer 2"><g id="Layer_1-2" data-name="Layer 1"><path class="cls-1" d="M43,71.75H28.79L27.2,63.46a28.39,28.39,0,0,1-4.7-2l-7,4.75-10-10,4.74-7a28.75,28.75,0,0,1-2-4.71L0,43V28.79L8.29,27.2a29.17,29.17,0,0,1,2-4.69l-4.74-7,10-10,7,4.74a29.28,29.28,0,0,1,4.7-2L28.79,0H43l1.59,8.28a28.75,28.75,0,0,1,4.71,2l7-4.74,10,10-4.75,7a28.29,28.29,0,0,1,2,4.69l8.29,1.59V43l-8.28,1.59a28.75,28.75,0,0,1-2,4.71l4.75,7-10,10-7-4.75a27.9,27.9,0,0,1-4.71,2Zm-12.51-2H41.3l1.5-7.86.59-.16a26.51,26.51,0,0,0,5.44-2.26l.53-.3L56,63.67,63.67,56l-4.5-6.63.3-.53a25.92,25.92,0,0,0,2.25-5.44l.17-.59,7.86-1.5V30.44l-7.86-1.5-.17-.59a26.83,26.83,0,0,0-2.25-5.42l-.3-.54,4.5-6.63L56,8.08l-6.63,4.5-.53-.3A27,27,0,0,0,43.39,10l-.59-.17L41.3,2H30.44L28.93,9.87l-.58.17a26.79,26.79,0,0,0-5.42,2.24l-.54.3-6.63-4.5L8.08,15.76l4.5,6.63-.3.54A26.83,26.83,0,0,0,10,28.35l-.17.59L2,30.44V41.3l7.86,1.5.17.59a26.47,26.47,0,0,0,2.25,5.44l.3.53L8.08,56l7.68,7.68,6.63-4.5.54.3a26.83,26.83,0,0,0,5.42,2.25l.58.17Z"/><path class="cls-1" d="M36.49,51.72A1.7,1.7,0,0,1,34.79,50l.05-13.95a1.7,1.7,0,0,1,.89-1.5h0l12.48-6.74a1.68,1.68,0,0,1,1.68,0,1.7,1.7,0,0,1,.84,1.46l0,13.83a1.7,1.7,0,0,1-.89,1.5L37.31,51.51A1.72,1.72,0,0,1,36.49,51.72Zm.35-15.48-.05,13.27,12-6.54,0-13.16Z"/><path class="cls-1" d="M35.18,51.72a1.72,1.72,0,0,1-.82-.21L21.79,44.64a1.7,1.7,0,0,1-.89-1.5l0-13.83a1.72,1.72,0,0,1,.84-1.46,1.68,1.68,0,0,1,1.68,0l12.48,6.74a1.7,1.7,0,0,1,.89,1.5L36.88,50a1.72,1.72,0,0,1-.83,1.48A1.7,1.7,0,0,1,35.18,51.72ZM22.91,43l12,6.54,0-13.27-11.9-6.43Z"/><path class="cls-1" d="M49.56,29.8a1,1,0,0,1-.53-.16L37.32,22.25a2,2,0,0,0-2.16,0L23,29.44a1,1,0,1,1-1-1.71l12.13-7.22a4,4,0,0,1,4.26,0L50.1,28a1,1,0,0,1-.54,1.85Z"/></g></g></svg>