<svg xmlns="http://www.w3.org/2000/svg" viewBox="0 0 71.87 72.23"><defs><style>.cls-1{fill:#02568a;}</style></defs><g id="Layer_2" data-name="Layer 2"><g id="Layer_1-2" data-name="Layer 1"><path class="cls-1" d="M25,43.1C15.7,43.1,0,41.61,0,36s15.7-7.11,25-7.11S50,30.39,50,36,34.26,43.1,25,43.1Zm0-12.21C11.44,30.89,2,33.58,2,36s9.44,5.1,23,5.1S48,38.41,48,36,38.52,30.89,25,30.89Z"/><path class="cls-1" d="M25,52.93c-9.28,0-25-1.49-25-7.1V42.58a1,1,0,0,1,2,0v3.25c0,2.41,9.44,5.1,23,5.1s23-2.69,23-5.1V42.58a1,1,0,0,1,2,0v3.25C50,51.44,34.26,52.93,25,52.93Z"/><path class="cls-1" d="M25,62.74c-9.28,0-25-1.5-25-7.11V52.39a1,1,0,0,1,2,0v3.24c0,2.42,9.44,5.11,23,5.11s23-2.69,23-5.11V52.39a1,1,0,0,1,2,0v3.24C50,61.24,34.26,62.74,25,62.74Z"/><path class="cls-1" d="M25,72.23c-9.28,0-25-1.5-25-7.11V61.88a1,1,0,0,1,2,0v3.24c0,2.42,9.44,5.11,23,5.11s23-2.69,23-5.11V61.88a1,1,0,0,1,2,0v3.24C50,70.73,34.26,72.23,25,72.23Z"/><path class="cls-1" d="M68.19,15.58H31.27a3.64,3.64,0,0,1-3.63-3.64V3.63A3.64,3.64,0,0,1,31.27,0H68.19a3.64,3.64,0,0,1,3.64,3.63v8.31A3.64,3.64,0,0,1,68.19,15.58ZM31.27,2a1.63,1.63,0,0,0-1.63,1.63v8.31a1.64,1.64,0,0,0,1.63,1.64H68.19a1.65,1.65,0,0,0,1.64-1.64V3.63A1.64,1.64,0,0,0,68.19,2Z"/><path class="cls-1" d="M68.19,29.18H31.27a3.64,3.64,0,0,1-3.63-3.63V17.24a3.64,3.64,0,0,1,3.63-3.64H68.19a3.64,3.64,0,0,1,3.64,3.64v8.31A3.64,3.64,0,0,1,68.19,29.18ZM31.27,15.6a1.64,1.64,0,0,0-1.63,1.64v8.31a1.63,1.63,0,0,0,1.63,1.63H68.19a1.64,1.64,0,0,0,1.64-1.63V17.24a1.65,1.65,0,0,0-1.64-1.64Z"/><path class="cls-1" d="M68.23,42.76H48.94a1,1,0,0,1,0-2H68.23a1.65,1.65,0,0,0,1.64-1.64V30.81a1.64,1.64,0,0,0-1.64-1.63H31.31a1.64,1.64,0,0,0-1.5,1A1,1,0,0,1,28,29.35a3.64,3.64,0,0,1,3.33-2.17H68.23a3.64,3.64,0,0,1,3.64,3.63v8.31A3.65,3.65,0,0,1,68.23,42.76Z"/><path class="cls-1" d="M65,11.56H62a2.25,2.25,0,0,1-2.24-2.24v-3A2.24,2.24,0,0,1,62,4.06h3A2.24,2.24,0,0,1,67.23,6.3v3A2.24,2.24,0,0,1,65,11.56Zm-3-5.5a.24.24,0,0,0-.24.24v3a.24.24,0,0,0,.24.24h3a.24.24,0,0,0,.24-.24v-3A.24.24,0,0,0,65,6.06Z"/><path class="cls-1" d="M65,25.11H62a2.24,2.24,0,0,1-2.24-2.24v-3A2.25,2.25,0,0,1,62,17.61h3a2.24,2.24,0,0,1,2.24,2.24v3A2.24,2.24,0,0,1,65,25.11Zm-3-5.5a.24.24,0,0,0-.24.24v3a.24.24,0,0,0,.24.24h3a.24.24,0,0,0,.24-.24v-3a.24.24,0,0,0-.24-.24Z"/><path class="cls-1" d="M65,38.87H62a2.25,2.25,0,0,1-2.24-2.24v-3A2.24,2.24,0,0,1,62,31.37h3a2.24,2.24,0,0,1,2.24,2.24v3A2.24,2.24,0,0,1,65,38.87Zm-3-5.5a.24.24,0,0,0-.24.24v3a.24.24,0,0,0,.24.24h3a.24.24,0,0,0,.24-.24v-3a.24.24,0,0,0-.24-.24Z"/></g></g></svg>