<svg xmlns="http://www.w3.org/2000/svg" viewBox="0 0 77.11 100.62"><defs><style>.cls-1{fill:#02568a;}.cls-2{fill:#f0750f;}.cls-3{fill:#fff;}</style></defs><g id="Layer_2" data-name="Layer 2"><g id="Layer_1-2" data-name="Layer 1"><path class="cls-1" d="M68.15,100.62H14.63a9,9,0,0,1-9-9V88.93a1,1,0,0,1,2,0v2.73a7,7,0,0,0,7,7H68.15a7,7,0,0,0,7-7V23.29L54.4,2H14.63a7,7,0,0,0-7,7v49.5a1,1,0,0,1-2,0V9a9,9,0,0,1,9-9H55.25L77.11,22.48V91.66A9,9,0,0,1,68.15,100.62Z"/><rect class="cls-2" x="1" y="58.65" width="64.45" height="30.2" rx="3.59"/><path class="cls-1" d="M61.86,89.85H4.59A4.6,4.6,0,0,1,0,85.26v-23a4.6,4.6,0,0,1,4.59-4.59H61.86a4.6,4.6,0,0,1,4.59,4.59v23A4.6,4.6,0,0,1,61.86,89.85ZM4.59,59.65A2.59,2.59,0,0,0,2,62.24v23a2.59,2.59,0,0,0,2.59,2.59H61.86a2.59,2.59,0,0,0,2.59-2.59v-23a2.59,2.59,0,0,0-2.59-2.59Z"/><path class="cls-1" d="M76,24.45H60.84a7,7,0,0,1-7-7V1a1,1,0,0,1,2,0V17.43a5,5,0,0,0,5,5H76a1,1,0,0,1,0,2Z"/><path class="cls-3" d="M22.68,64.31v15h-2v-15Z"/><path class="cls-3" d="M32.7,71.71A4.37,4.37,0,0,1,34,75a4.45,4.45,0,0,1-1.32,3.28A4.63,4.63,0,0,1,24.77,75a4.38,4.38,0,0,1,1.32-3.25,4.84,4.84,0,0,1,6.61,0ZM27.52,77a2.73,2.73,0,0,0,3.76,0A2.92,2.92,0,0,0,32,75a2.66,2.66,0,0,0-.75-2,3,3,0,0,0-2.13-.71,1.78,1.78,0,0,0-1.82,1A4.66,4.66,0,0,0,26.83,75,2.85,2.85,0,0,0,27.52,77Z"/><path class="cls-3" d="M42.45,70.64h2v8a12.56,12.56,0,0,1-.34,3,2.62,2.62,0,0,1-1.61,2,6,6,0,0,1-2.19.53,4.17,4.17,0,0,1-3-1.07A4.47,4.47,0,0,1,36,80.26h2a2.06,2.06,0,0,0,.9,1.6,2.85,2.85,0,0,0,1.31.36,2.06,2.06,0,0,0,1.57-.58,1.86,1.86,0,0,0,.58-1.09,7.55,7.55,0,0,0,.08-1.09V78.33a3.29,3.29,0,0,1-2.7,1.24A3.63,3.63,0,0,1,37,78.39,4.72,4.72,0,0,1,35.67,75a4.49,4.49,0,0,1,1.23-3.32,3.94,3.94,0,0,1,2.89-1.24,3.32,3.32,0,0,1,2.66,1.17Zm-.7,2.2a2.35,2.35,0,0,0-3.14,0,2.8,2.8,0,0,0-.89,2.2c0,1.31.33,2.09,1,2.36a4.47,4.47,0,0,0,1.72.4A2,2,0,0,0,41.86,77a2.87,2.87,0,0,0,.71-2.08A2.75,2.75,0,0,0,41.75,72.84Z"/></g></g></svg>