<svg xmlns="http://www.w3.org/2000/svg" viewBox="0 0 79.79 100.52"><defs><style>.cls-1{fill:#02568a;}.cls-2{fill:#f0750f;}</style></defs><g id="Layer_2" data-name="Layer 2"><g id="Layer_1-2" data-name="Layer 1"><path class="cls-1" d="M43.47,100.52H34.7A34.74,34.74,0,0,1,0,65.82V0H14.76A28.74,28.74,0,0,1,43.47,28.71ZM2,2V65.82a32.74,32.74,0,0,0,32.7,32.7h6.77V28.71A26.74,26.74,0,0,0,14.76,2Z"/><rect class="cls-2" x="42.37" y="60.59" width="36.42" height="38.71"/><path class="cls-1" d="M79.79,100.3H41.38V59.59H79.79Zm-36.41-2H77.79V61.59H43.38Z"/><path class="cls-1" d="M52.11,100.08a1,1,0,0,1-1-1V60.59a1,1,0,0,1,2,0V99.08A1,1,0,0,1,52.11,100.08Z"/><path class="cls-1" d="M42.38,61.59h-41a1,1,0,0,1,0-2h41a1,1,0,0,1,0,2Z"/></g></g></svg>