<svg xmlns="http://www.w3.org/2000/svg" viewBox="0 0 71.86 71.86"><defs><style>.cls-1{fill:#02568a;}.cls-2{fill:#175689;}</style></defs><g id="Layer_2" data-name="Layer 2"><g id="Layer_1-2" data-name="Layer 1"><path class="cls-1" d="M9.29,45.22a9.29,9.29,0,1,1,9.3-9.29A9.3,9.3,0,0,1,9.29,45.22Zm0-16.58a7.29,7.29,0,1,0,7.3,7.29A7.3,7.3,0,0,0,9.29,28.64Z"/><path class="cls-1" d="M62.57,45.22a9.29,9.29,0,1,1,9.29-9.29A9.3,9.3,0,0,1,62.57,45.22Zm0-16.58a7.29,7.29,0,1,0,7.29,7.29A7.31,7.31,0,0,0,62.57,28.64Z"/><path class="cls-1" d="M35.93,71.86a9.3,9.3,0,1,1,9.29-9.29A9.3,9.3,0,0,1,35.93,71.86Zm0-16.59a7.3,7.3,0,1,0,7.29,7.3A7.31,7.31,0,0,0,35.93,55.27Z"/><path class="cls-1" d="M35.93,18.59a9.3,9.3,0,1,1,9.29-9.3A9.31,9.31,0,0,1,35.93,18.59ZM35.93,2a7.3,7.3,0,1,0,7.29,7.29A7.3,7.3,0,0,0,35.93,2Z"/><path class="cls-1" d="M24.26,60.6a1.06,1.06,0,0,1-.45-.11A27.89,27.89,0,0,1,11.34,47.92a1,1,0,0,1,1.8-.88A25.81,25.81,0,0,0,24.71,58.7a1,1,0,0,1,.44,1.35A1,1,0,0,1,24.26,60.6Z"/><path class="cls-1" d="M47.89,60.7a1,1,0,0,1-.45-1.9A25.84,25.84,0,0,0,58.93,47.59a1,1,0,1,1,1.77.93A27.94,27.94,0,0,1,48.33,60.6,1,1,0,0,1,47.89,60.7Z"/><path class="cls-1" d="M59.51,23.9a1,1,0,0,1-.88-.52A25.65,25.65,0,0,0,47.78,12.89a1,1,0,0,1-.44-1.34,1,1,0,0,1,1.35-.44A27.6,27.6,0,0,1,60.38,22.42,1,1,0,0,1,60,23.78,1,1,0,0,1,59.51,23.9Z"/><path class="cls-1" d="M12.63,24.28a1,1,0,0,1-.46-.12,1,1,0,0,1-.42-1.35A27.58,27.58,0,0,1,23.4,11.25,1,1,0,0,1,24.33,13,25.58,25.58,0,0,0,13.52,23.74,1,1,0,0,1,12.63,24.28Z"/><path class="cls-1" d="M43.39,31.5H27.1a1,1,0,0,1,0-2H43.39a1,1,0,0,1,0,2Z"/><path class="cls-1" d="M41,35.08a1,1,0,0,1-.71-.29,1,1,0,0,1,0-1.41l2.89-2.88-2.89-2.89a1,1,0,0,1,0-1.41,1,1,0,0,1,1.42,0L46,30.5l-4.29,4.29A1,1,0,0,1,41,35.08Z"/><path class="cls-1" d="M44.57,43.09H28.29a1,1,0,1,1,0-2H44.57a1,1,0,0,1,0,2Z"/><path class="cls-1" d="M30.69,46.68a1,1,0,0,1-.71-.29l-4.29-4.3L30,37.8a1,1,0,0,1,1.42,0,1,1,0,0,1,0,1.41l-2.88,2.88L31.4,45a1,1,0,0,1,0,1.41A1,1,0,0,1,30.69,46.68Z"/><path class="cls-2" d="M64.27,38.35a3.48,3.48,0,0,1-1.4.25,2.49,2.49,0,0,1-2.62-2.69A2.64,2.64,0,0,1,63,33.13a2.94,2.94,0,0,1,1.26.23l-.16.56A2.6,2.6,0,0,0,63,33.7,2,2,0,0,0,61,35.89,1.93,1.93,0,0,0,63,38a2.63,2.63,0,0,0,1.12-.22Z"/><path class="cls-2" d="M35.22,9.44l-.55,1.67H34l1.8-5.31h.83l1.81,5.31h-.73L37.1,9.44ZM37,8.91l-.52-1.53c-.12-.35-.2-.66-.28-1h0q-.12.48-.27,1l-.52,1.54Z"/><path class="cls-2" d="M6.68,34.09A9,9,0,0,1,8.14,34a3,3,0,0,1,2.15.66,2.43,2.43,0,0,1,.75,1.9,2.81,2.81,0,0,1-.77,2.07,3.27,3.27,0,0,1-2.34.76,11.12,11.12,0,0,1-1.25-.06Zm.69,4.69a4.41,4.41,0,0,0,.69,0,2,2,0,0,0,2.26-2.25,1.89,1.89,0,0,0-2.15-2,3.85,3.85,0,0,0-.8.07Z"/><path class="cls-2" d="M36.17,61v5.31h-.68V61Z"/></g></g></svg>