<svg xmlns="http://www.w3.org/2000/svg" viewBox="0 0 72.04 71.58"><defs><style>.cls-1{fill:#02568a;}</style></defs><g id="Layer_2" data-name="Layer 2"><g id="Layer_1-2" data-name="Layer 1"><path class="cls-1" d="M36,71.58,0,54.91V43.21l23.32-9.07A1,1,0,1,1,24,36L2,44.57v9.06L36,69.37,70,53.44V45.05L47.92,35.69a1,1,0,0,1,.78-1.84L72,43.73v11Z"/><path class="cls-1" d="M36,61.43,1.06,45.32A1,1,0,0,1,1.9,43.5L36,59.23,70.62,43.48A1,1,0,0,1,72,44a1,1,0,0,1-.5,1.33Z"/><path class="cls-1" d="M7.26,57.74a1,1,0,0,1-1-1V47.58a1,1,0,0,1,2,0v9.16A1,1,0,0,1,7.26,57.74Z"/><path class="cls-1" d="M12.83,60.38a1,1,0,0,1-1-1V50.22a1,1,0,0,1,2,0v9.16A1,1,0,0,1,12.83,60.38Z"/><path class="cls-1" d="M18.49,63.05a1,1,0,0,1-1-1V52.9a1,1,0,0,1,2,0v9.15A1,1,0,0,1,18.49,63.05Z"/><path class="cls-1" d="M24.15,65.6a1,1,0,0,1-1-1V55.45a1,1,0,0,1,2,0V64.6A1,1,0,0,1,24.15,65.6Z"/><path class="cls-1" d="M29.72,68.33a1,1,0,0,1-1-1V58.17a1,1,0,0,1,2,0v9.16A1,1,0,0,1,29.72,68.33Z"/><path class="cls-1" d="M42.42,67.85a1,1,0,0,1-1-1V57.69a1,1,0,0,1,2,0v9.16A1,1,0,0,1,42.42,67.85Z"/><path class="cls-1" d="M35.86,71.05a1,1,0,0,1-1-1V60.89a1,1,0,0,1,2,0v9.16A1,1,0,0,1,35.86,71.05Z"/><path class="cls-1" d="M49.83,46.05H21.42a1,1,0,0,1,0-2H49.83a1,1,0,0,1,0,2Z"/><path class="cls-1" d="M45.27,41.7H26.5a1,1,0,0,1,0-2H45.27a1,1,0,0,1,0,2Z"/><path class="cls-1" d="M45.27,50.41H26.5a1,1,0,0,1,0-2H45.27a1,1,0,1,1,0,2Z"/><path class="cls-1" d="M36,36.08l-9.42-4.34a8.07,8.07,0,0,1-4.69-7.31V0H50.13V24.43a8.07,8.07,0,0,1-4.69,7.31ZM23.9,2V24.43a6.06,6.06,0,0,0,3.52,5.49l8.59,4,8.6-4a6.07,6.07,0,0,0,3.52-5.49V2ZM45,30.83h0Z"/></g></g></svg>