<svg xmlns="http://www.w3.org/2000/svg" viewBox="0 0 71.99 71.92"><defs><style>.cls-1{fill:#02568a;}</style></defs><g id="Layer_2" data-name="Layer 2"><g id="Layer_1-2" data-name="Layer 1"><path class="cls-1" d="M22.1,29.19a1,1,0,0,1-1-1V1.93a1,1,0,0,1,2,0V28.19A1,1,0,0,1,22.1,29.19Z"/><path class="cls-1" d="M25,5.29A1,1,0,0,1,24.3,5L22.12,2.83,20,5a1,1,0,0,1-1.42-1.42L22.12,0l3.59,3.58a1,1,0,0,1,0,1.42A1,1,0,0,1,25,5.29Z"/><path class="cls-1" d="M31.17,17.28a1,1,0,0,1-1-1V10.41a7.31,7.31,0,0,1,7.29-7.3h5.88a1,1,0,0,1,0,2H37.46a5.3,5.3,0,0,0-5.29,5.3v5.87A1,1,0,0,1,31.17,17.28Z"/><path class="cls-1" d="M41.62,8a1,1,0,0,1-.71-1.71l2.17-2.17L40.91,2A1,1,0,0,1,42.33.53l3.58,3.59L42.33,7.7A1,1,0,0,1,41.62,8Z"/><path class="cls-1" d="M14.74,20.43a1,1,0,0,1-1-1V13.06a5.3,5.3,0,0,0-5.29-5.3H2.57a1,1,0,1,1,0-2H8.45a7.31,7.31,0,0,1,7.29,7.3v6.37A1,1,0,0,1,14.74,20.43Z"/><path class="cls-1" d="M4.29,10.65a1,1,0,0,1-.71-.29L0,6.77,3.58,3.19A1,1,0,0,1,5,3.19,1,1,0,0,1,5,4.6L2.83,6.77,5,8.94a1,1,0,0,1,0,1.42A1,1,0,0,1,4.29,10.65Z"/><path class="cls-1" d="M54.89,52.37c-1.75,0-17.1-.14-17.1-5.1s15.35-5.1,17.1-5.1,17.1.14,17.1,5.1S56.64,52.37,54.89,52.37Zm0-8.2c-9.21,0-15.1,1.83-15.1,3.1s5.89,3.1,15.1,3.1S70,48.53,70,47.27,64.11,44.17,54.89,44.17Z"/><path class="cls-1" d="M54.89,59c-1.75,0-17.1-.15-17.1-5.1V51.69a1,1,0,0,1,2,0v2.18c0,1.26,5.89,3.1,15.1,3.1S70,55.13,70,53.87V51.69a1,1,0,0,1,2,0v2.18C72,58.82,56.64,59,54.89,59Z"/><path class="cls-1" d="M54.89,65.55c-1.75,0-17.1-.14-17.1-5.1V58.27a1,1,0,0,1,2,0v2.18c0,1.26,5.89,3.1,15.1,3.1S70,61.71,70,60.45V58.27a1,1,0,1,1,2,0v2.18C72,65.41,56.64,65.55,54.89,65.55Z"/><path class="cls-1" d="M54.89,71.92c-1.75,0-17.1-.14-17.1-5.1V64.65a1,1,0,0,1,2,0v2.17c0,1.27,5.89,3.1,15.1,3.1S70,68.09,70,66.82V64.65a1,1,0,1,1,2,0v2.17C72,71.78,56.64,71.92,54.89,71.92Z"/><path class="cls-1" d="M35,51.6H28.78a12.89,12.89,0,1,1-.14-25.77,2.5,2.5,0,0,0,2.29-1.43,14.09,14.09,0,0,1,25.54,0,2.47,2.47,0,0,0,2.24,1.43,13.44,13.44,0,0,1,3,.34,12.91,12.91,0,0,1,9.6,15.49,1,1,0,0,1-2-.46,10.89,10.89,0,0,0-10.6-13.37,4.52,4.52,0,0,1-4.1-2.58,12.08,12.08,0,0,0-21.91,0,4.5,4.5,0,0,1-4.05,2.58,10.89,10.89,0,1,0,.09,21.77H35a1,1,0,0,1,0,2Z"/></g></g></svg>