<svg xmlns="http://www.w3.org/2000/svg" viewBox="0 0 72.06 72.05"><defs><style>.cls-1{fill:#02568a;}</style></defs><g id="Layer_2" data-name="Layer 2"><g id="Layer_1-2" data-name="Layer 1"><path class="cls-1" d="M43.57,35.58H27.18a2.7,2.7,0,0,1-2.71-2.7v-9a2.71,2.71,0,0,1,2.71-2.71H43.57a2.72,2.72,0,0,1,2.71,2.71v9A2.71,2.71,0,0,1,43.57,35.58ZM27.18,23.2a.71.71,0,0,0-.71.71v9a.7.7,0,0,0,.71.7H43.57a.7.7,0,0,0,.71-.7v-9a.71.71,0,0,0-.71-.71Z"/><path class="cls-1" d="M42.8,23.2a1,1,0,0,1-1-1V17.25a6.43,6.43,0,0,0-12.85,0V22.2a1,1,0,0,1-2,0V17.25a8.43,8.43,0,0,1,16.85,0V22.2A1,1,0,0,1,42.8,23.2Z"/><path class="cls-1" d="M35.93,46.17A23.09,23.09,0,1,1,59,23.08,23.12,23.12,0,0,1,35.93,46.17ZM35.93,2A21.09,21.09,0,1,0,57,23.08,21.11,21.11,0,0,0,35.93,2Z"/><path class="cls-1" d="M1,72.05a1,1,0,0,1-1-1V47.22A11.55,11.55,0,0,1,11.54,35.68h6.69a1,1,0,0,1,0,2H11.54A9.55,9.55,0,0,0,2,47.22V71.05A1,1,0,0,1,1,72.05Z"/><path class="cls-1" d="M71.06,72.05a1,1,0,0,1-1-1V47.22a9.55,9.55,0,0,0-9.54-9.54H53.26a1,1,0,0,1,0-2h7.26A11.55,11.55,0,0,1,72.06,47.22V71.05A1,1,0,0,1,71.06,72.05Z"/><path class="cls-1" d="M7.07,72.05a1,1,0,0,1-1-1V50a8.19,8.19,0,0,1,8.18-8.18H26a1,1,0,0,1,0,2H14.25A6.18,6.18,0,0,0,8.07,50v21A1,1,0,0,1,7.07,72.05Z"/><path class="cls-1" d="M65.08,72.05a1,1,0,0,1-1-1V50a6.18,6.18,0,0,0-6.18-6.18H46.14a1,1,0,0,1,0-2H57.9A8.19,8.19,0,0,1,66.08,50v21A1,1,0,0,1,65.08,72.05Z"/><path class="cls-1" d="M58.14,72.05a1,1,0,0,1-1-1V51.9a1.83,1.83,0,0,0-1.83-1.83H16.4a1.83,1.83,0,0,0-1.83,1.83V71.05a1,1,0,0,1-2,0V51.9a3.84,3.84,0,0,1,3.83-3.83H55.31a3.84,3.84,0,0,1,3.83,3.83V71.05A1,1,0,0,1,58.14,72.05Z"/><path class="cls-1" d="M51.38,72.05a1,1,0,0,1-1-1V57.26a1.14,1.14,0,0,0-1.14-1.14H22.41a1.15,1.15,0,0,0-1.15,1.14V71.05a1,1,0,0,1-2,0V57.26a3.15,3.15,0,0,1,3.15-3.14H49.24a3.15,3.15,0,0,1,3.14,3.14V71.05A1,1,0,0,1,51.38,72.05Z"/></g></g></svg>