<svg id="technology" xmlns="http://www.w3.org/2000/svg" width="74.287" height="74.286" viewBox="0 0 74.287 74.286">
  <g id="Group_199" data-name="Group 199" transform="translate(0 0)">
    <ellipse id="Ellipse_130" data-name="Ellipse 130" cx="37.143" cy="37.143" rx="37.143" ry="37.143" fill="#f0750f"/>
  </g>
  <g id="Group_213" data-name="Group 213" transform="translate(18.037 16.992)">
    <g id="Group_200" data-name="Group 200" transform="translate(12.035 11.425)">
      <path id="Path_9853" data-name="Path 9853" d="M3.229,144.1H-7.022a.919.919,0,0,1-.919-.919V128.263a.919.919,0,0,1,.919-.919H3.229a.919.919,0,0,1,.919.919v14.919A.919.919,0,0,1,3.229,144.1ZM-6.1,142.263H2.31V129.182H-6.1Z" transform="translate(7.941 -127.344)" fill="#fff"/>
    </g>
    <g id="Group_201" data-name="Group 201" transform="translate(14.856)">
      <rect id="Rectangle_208" data-name="Rectangle 208" width="1.838" height="12.344" fill="#fff"/>
    </g>
    <g id="Group_202" data-name="Group 202" transform="translate(19.878)">
      <rect id="Rectangle_209" data-name="Rectangle 209" width="1.838" height="12.344" fill="#fff"/>
    </g>
    <g id="Group_203" data-name="Group 203" transform="translate(14.856 27.373)">
      <rect id="Rectangle_210" data-name="Rectangle 210" width="1.838" height="13.131" fill="#fff"/>
    </g>
    <g id="Group_204" data-name="Group 204" transform="translate(19.878 27.373)">
      <rect id="Rectangle_211" data-name="Rectangle 211" width="1.838" height="13.131" fill="#fff"/>
    </g>
    <g id="Group_205" data-name="Group 205" transform="translate(29.121 13.05)">
      <path id="Path_9854" data-name="Path 9854" d="M3.577,137.1a4.546,4.546,0,1,1,4.546-4.543A4.55,4.55,0,0,1,3.577,137.1Zm0-7.254a2.708,2.708,0,1,0,2.708,2.71A2.712,2.712,0,0,0,3.577,129.845Z" transform="translate(0.969 -128.007)" fill="#fff"/>
    </g>
    <g id="Group_206" data-name="Group 206" transform="translate(23.847 31.591)">
      <path id="Path_9855" data-name="Path 9855" d="M1.427,144.667a4.547,4.547,0,1,1,4.546-4.546A4.553,4.553,0,0,1,1.427,144.667Zm0-7.256a2.709,2.709,0,1,0,2.708,2.71A2.715,2.715,0,0,0,1.427,137.411Z" transform="translate(3.121 -135.573)" fill="#fff"/>
    </g>
    <g id="Group_207" data-name="Group 207" transform="translate(0 5.482)">
      <path id="Path_9856" data-name="Path 9856" d="M-8.306,134.013a4.551,4.551,0,0,1-4.546-4.546,4.551,4.551,0,0,1,4.546-4.548,4.551,4.551,0,0,1,4.546,4.548A4.551,4.551,0,0,1-8.306,134.013Zm0-7.256a2.712,2.712,0,0,0-2.708,2.71,2.712,2.712,0,0,0,2.708,2.708A2.71,2.71,0,0,0-5.6,129.467,2.711,2.711,0,0,0-8.306,126.757Z" transform="translate(12.852 -124.919)" fill="#fff"/>
    </g>
    <g id="Group_208" data-name="Group 208" transform="translate(0 25.516)">
      <path id="Path_9857" data-name="Path 9857" d="M-8.306,142.188a4.551,4.551,0,0,1-4.546-4.548,4.551,4.551,0,0,1,4.546-4.546A4.551,4.551,0,0,1-3.76,137.64,4.551,4.551,0,0,1-8.306,142.188Zm0-7.256a2.712,2.712,0,0,0-2.708,2.708,2.712,2.712,0,0,0,2.708,2.71A2.711,2.711,0,0,0-5.6,137.64,2.71,2.71,0,0,0-8.306,134.932Z" transform="translate(12.852 -133.094)" fill="#fff"/>
    </g>
    <g id="Group_209" data-name="Group 209" transform="translate(23.128 16.599)">
      <rect id="Rectangle_212" data-name="Rectangle 212" width="7.01" height="1.838" fill="#fff"/>
    </g>
    <g id="Group_210" data-name="Group 210" transform="translate(3.627 13.658)">
      <path id="Path_9858" data-name="Path 9858" d="M-2.065,133.075h-8.388a.919.919,0,0,1-.919-.919v-3.9h1.838v2.982h7.47Z" transform="translate(11.372 -128.255)" fill="#fff"/>
    </g>
    <g id="Group_211" data-name="Group 211" transform="translate(3.627 21.777)">
      <path id="Path_9859" data-name="Path 9859" d="M-9.534,136.227h-1.838v-3.74a.919.919,0,0,1,.919-.919h8.428v1.838H-9.534Z" transform="translate(11.372 -131.568)" fill="#fff"/>
    </g>
    <g id="Group_212" data-name="Group 212" transform="translate(23.249 21.723)">
      <path id="Path_9860" data-name="Path 9860" d="M2.654,142.385H.816v-9H-3.365v-1.838h5.1a.919.919,0,0,1,.919.919Z" transform="translate(3.365 -131.546)" fill="#fff"/>
    </g>
  </g>
</svg>
