<svg xmlns="http://www.w3.org/2000/svg" xmlns:xlink="http://www.w3.org/1999/xlink" width="35" height="35" viewBox="0 0 35 35">
  <defs>
    <clipPath id="clip-path">
      <rect id="Rectangle_116" data-name="Rectangle 116" width="35" height="35" transform="translate(2503 6602)" fill="#fff"/>
    </clipPath>
  </defs>
  <g id="tw" transform="translate(-2503 -6602)" clip-path="url(#clip-path)">
    <path id="Icon_awesome-twitter" data-name="Icon awesome-twitter" d="M29.608,10.06c.021.293.021.586.021.879,0,8.941-6.805,19.243-19.243,19.243A19.113,19.113,0,0,1,0,27.147a13.992,13.992,0,0,0,1.633.084,13.545,13.545,0,0,0,8.4-2.89,6.775,6.775,0,0,1-6.324-4.69,8.529,8.529,0,0,0,1.277.1,7.153,7.153,0,0,0,1.78-.23A6.764,6.764,0,0,1,1.34,12.887V12.8a6.811,6.811,0,0,0,3.057.858A6.773,6.773,0,0,1,2.3,4.616a19.225,19.225,0,0,0,13.945,7.077,7.635,7.635,0,0,1-.168-1.549,6.77,6.77,0,0,1,11.7-4.628,13.316,13.316,0,0,0,4.293-1.633A6.745,6.745,0,0,1,29.105,7.61,13.559,13.559,0,0,0,33,6.564a14.539,14.539,0,0,1-3.392,3.5Z" transform="translate(2504 6602.619)" fill="#fff"/>
  </g>
</svg>
