<svg xmlns="http://www.w3.org/2000/svg" viewBox="0 0 346.26 347.06"><defs><style>.cls-1{fill:#466288;}.cls-2{fill:#6b80a0;}.cls-3{fill:#e7596e;}.cls-4{fill:#da2e44;}.cls-5{fill:#a2a2d0;}.cls-6{fill:#d7d7fb;}.cls-7{fill:#384c69;}.cls-8{fill:#49648a;}</style></defs><title>Mission1x</title><g id="Layer_2" data-name="Layer 2"><g id="Layer_1-2" data-name="Layer 1"><path class="cls-1" d="M268.52,202.94c6.12,11.05,12.31,22.07,18.33,33.17q28.81,53.1,57.51,106.25c.75,1.39,1.94,2.64,1.9,4.7h-129c-1.26,0-2.53-.13-3.79-.2-1.78-1.65-1.83-3.87-1.84-6q-.1-63.09,0-126.18a15.54,15.54,0,0,1,.37-3.2c1.12-3.82,3.43-3.17,5.67-1.25a93.19,93.19,0,0,1,9.92,9.95c4.16,4.84,4.15,4.88,9.62,1.23q12.84-8.55,25.7-17C264.49,203.26,266.1,201.12,268.52,202.94Z"/><path class="cls-2" d="M213.43,209.36V346.85c-1.25.07-2.51.2-3.77.2q-62.19,0-124.38,0c-1.08,0-2.15-.11-3.23-.17-1.25-1.65-.28-3.11.48-4.5,13-23.87,25.83-47.87,38.67-71.85,7.83-14.6,16-29.06,23.36-43.88,1.06-2.11,1.16-4.55,2.6-6.47,2.05,1.35,2.68-.1,3.48-1.62,2.78-5.29,5.65-10.53,8.49-15.79,3.44-.5,5.67,2,8.15,3.54,7.77,4.92,15.64,9.69,23.17,15,3.79,2.66,6.62,2.23,9.81-1.2,3.66-3.93,7.14-8.14,11.75-11.1A1.63,1.63,0,0,1,213.43,209.36Z"/><path class="cls-1" d="M147.16,220.19a6.73,6.73,0,0,1-.56,5.57c-8.08,15.83-16.67,31.39-25.18,47-2.66,4.88-5.25,9.8-7.89,14.7Q98.35,315.67,83.19,343.9a23.34,23.34,0,0,0-1.14,3Q41.67,347,1.28,347c-.3,0-.61-.25-1.28-.54l111.64-182.9c2.57,1.08,3,3.22,4,4.83Q131.48,194.24,147.16,220.19Z"/><path class="cls-3" d="M142.79,20.2V.77c.63-.32,1.09-.77,1.55-.77q34.54,0,69.1.09c1.59,1.53,1.68,3.56,1.68,5.54.09,23.68.15,47.36,0,71a10.51,10.51,0,0,1-.52,3.2,4.77,4.77,0,0,1-1.12,1.77c-3.32,1.62-6.61,1.84-9.84-.25H163.88c-1.13,6.68.12,13.34-.81,20.14H62.36c-.37-1.11.33-1.57,1.22-1.93A38.87,38.87,0,0,1,71.64,99q40.59,0,81.17,0c2.54,0,6.15,1.09,7.16-2.1a17.45,17.45,0,0,0-.35-12.18c-.81-1.88-3.15-1.56-4.89-1.52-14.33.34-13.68-1.28-13.68-14.59s0-26.69,0-40C141.06,25.62,140.85,22.68,142.79,20.2Z"/><path class="cls-4" d="M142.79,20.2V80.86c6.43.91,12.72-.07,19.18.64.73,6.27.21,12.34.35,18-1.24,1.57-2.6,1.21-3.81,1.21q-45.25,0-90.51,0c-1.52,0-3.33.68-4.42-1.14q17-17.1,33.91-34.22c1.38-1.39,3-2.56,4.17-4.92L62.57,21.35,63,20.2Z"/><path class="cls-5" d="M213.43,209.36l-1.1-.05c-1.21-2-.78-4.19-.78-6.32q.06-48.33,0-96.63c-.41-2-.06-3.75,2-4.76,2.26-.14,3,1.66,3.79,3.19,2.25,4.42,5.19,8.49,6.78,13.25a13.18,13.18,0,0,0,2,6c10.53,19.24,21.18,38.43,31.44,57.82,3.7,7,7.91,13.69,10.91,21-2.25-.19-3.55,1.61-5.12,2.65-10.49,6.86-20.87,13.87-31.51,21-1.92-1-3.09-2.79-4.52-4.36-3.73-4.12-7.65-8.08-11.5-12.1A2.48,2.48,0,0,0,213.43,209.36Z"/><path class="cls-6" d="M212.2,105c1.47.7,1.23,2,1.23,3.28q0,48.18,0,96.35a10.2,10.2,0,0,1-1.14,4.64c-4.46,4.68-9,9.28-13.35,14.05-2,2.21-3.55,2.65-6.34.81-11-7.32-22.32-14.29-33.51-21.39,11.19-20.59,22.52-41.1,33.51-61.8,3.85-7.25,8.64-14,11.09-22a81.55,81.55,0,0,1,4.92-10.55C209.47,107,209.86,105,212.2,105Z"/><path class="cls-4" d="M213.41,81.07l0-81h9.94c1.19,1.31.78,2.64.78,3.84q0,36.78,0,73.56c0,1.26-.19,2.51-.29,3.76C220.35,83.56,216.86,83.69,213.41,81.07Z"/><path class="cls-7" d="M213.41,81.07l10.47.18c.66,12.26.18,24.52.25,36.79-3-2-3.78-5.54-5.63-8.33-1.58-2.39-2.81-5-4.19-7.54-4.44-6.74-3.41-13.72-.87-20.75Z"/><path class="cls-8" d="M213.44,81.42c0,5,0,10-.09,15a17.29,17.29,0,0,0,1,5.74A2.6,2.6,0,0,0,212.2,105c-1.87,3.42-3.7,6.86-5.63,10.24-.77,1.34-1.09,3.08-2.84,3.69q0-18.8-.11-37.58Z"/></g></g></svg>