<svg xmlns="http://www.w3.org/2000/svg" viewBox="0 0 323.01 323.19"><defs><style>.cls-1{fill:#e84444;}.cls-2{fill:#d73131;}.cls-3{fill:#0155a3;}.cls-4{fill:#eaeaea;}.cls-5{fill:#5a5a5a;}.cls-6{fill:#bebebe;}</style></defs><title>Vision1x</title><g id="Layer_2" data-name="Layer 2"><g id="Layer_1-2" data-name="Layer 1"><path class="cls-1" d="M142.1,323c-8,.17-15.89-1.18-23.7-2.76a143.62,143.62,0,0,1-58.32-25.94Q16.42,261.6,3.84,208.49A140.34,140.34,0,0,1,.12,170.37c1.33-32.25,11.87-61.22,32-86.48a144.68,144.68,0,0,1,78.53-51c11.27-2.94,22.72-5,34.46-4.57,10.14,2.57,20.44,4.49,30.27,8.34a153.52,153.52,0,0,1,44.27,26.67,186.19,186.19,0,0,1,16.55,16.57,2.55,2.55,0,0,1-.6,2.75,165.08,165.08,0,0,1-12.92,13,3.86,3.86,0,0,1-4.13,1c-3.63-1.77-6.44-4.7-9.72-7a104.62,104.62,0,0,0-62.38-19.22c-29.33.28-54.14,10.89-74.3,31.46-19.36,19.76-29.41,43.85-29.83,72-.43,29.46,9.51,54.73,29.78,75.51C91.27,269,115,279.88,142.86,280.81c15,.5,29.55-1.4,43.54-7.06,22-8.92,39.37-23.36,51.64-43.78a103.46,103.46,0,0,0,14.77-51.18c.8-26.75-7.44-50.09-24-70.76a14.39,14.39,0,0,1-2.15-3.35c-.21-.63-.49-1.38-.14-1.92a50.11,50.11,0,0,1,14.7-14.84c.4-.26.94.08,1.35.36,15.5,21.18,25.14,44.91,27.55,70.9,4.1,44.26-8,83.65-38.4,116.85-21.73,23.75-48.34,38.76-79.8,45.39C148.64,322.1,145.2,321.49,142.1,323Z"/><path class="cls-2" d="M142.1,323a2.72,2.72,0,0,1,2.24-1.78c6.43-.54,12.62-2.24,18.79-4a123.56,123.56,0,0,0,13.6-4.47,152.16,152.16,0,0,0,36-20.78,146.8,146.8,0,0,0,45.61-59.71,148.47,148.47,0,0,0,10-37.09c.89-6.43-.61-13,1.62-19.21-1.63-9.91-1-20-3.27-29.94a170.39,170.39,0,0,0-12.82-36.8,89.35,89.35,0,0,0-10.26-16.94c-1-1.25-1.73-2.39-1.51-4-.76-1.3.09-2.25.83-3.08A121.53,121.53,0,0,1,252.05,76c1-.94,2.26-2.17,3.89-.79a149.06,149.06,0,0,1,31.86,54.23,147.08,147.08,0,0,1,6.54,61,144,144,0,0,1-34.43,80.84c-20.7,24.29-46.72,40.23-77.75,47.84A134.09,134.09,0,0,1,142.1,323Z"/><path class="cls-2" d="M248,67.26c0,2.13-1.81,3.08-3.07,4.3-3,2.87-5.54,6.14-8.94,8.56-2.55-.05-3.94-2.07-5-3.74-3.79-6.1-9.78-9.91-14.95-14.44a135,135,0,0,0-32.56-20.58,143.49,143.49,0,0,0-31.89-10.24c-2.35-.47-5-.36-6.49-2.85,21.24-.86,41.46,3.51,60.94,11.78A149.89,149.89,0,0,1,248,67.26Z"/><path class="cls-3" d="M256.32,73.71c-.25-1.76,1.15-2.56,2.14-3.55,11.79-11.82,23.63-23.6,35.38-35.46,1.78-1.8,3.58-2.81,6.2-2.53a54.25,54.25,0,0,0,6.5-.05c4.37.34,8.76.53,13.11,1.08,3.7.47,4.42,2.4,1.8,5C310.14,49.69,298.7,61,287.33,72.39c-2.25,2.24-4.94,2.85-8,2.65C271.64,74.53,264,74.15,256.32,73.71Z"/><path class="cls-3" d="M291.21,16.53a1.44,1.44,0,0,0-.11.53c1.43,7.48-2.13,12.47-7.43,17.4-10.32,9.57-20,19.82-30,29.73-1.23,1.23-2.12,3.12-4.34,2.94-.44-7.72-.81-15.45-1.35-23.16a10.16,10.16,0,0,1,3.11-8.46q16.85-16.75,33.56-33.65c1-1,2.08-2.31,3.76-1.7s1.71,2.23,1.83,3.71C290.56,8.08,290.88,12.31,291.21,16.53Z"/><path class="cls-4" d="M198.92,133.24a5.28,5.28,0,0,1,1.55-4q12.18-12.06,24.26-24.21a3.26,3.26,0,0,1,2.24-.88c11.81,12.68,19.5,27.58,24.11,44.19,3.71,13.38,4.19,27.06,2.64,40.62a101.7,101.7,0,0,1-19.6,49.53c-18.37,24.83-43,39.68-73.53,43.26C129.4,285.4,101.26,277,77.3,256.11c-17.91-15.61-29.65-35-34.25-58.27-6.65-33.59.55-64.1,22.46-90.7,17.72-21.52,40.8-34.21,68.25-37.59,30.19-3.73,57.78,3.8,81.6,23.36,1.28,1,2.86,1.76,3.69,3.31.09,1.52-1,2.36-1.91,3.29L193.67,123c-1,1-1.94,2.4-3.71,1.29-2.81.33-4.61-1.68-6.64-3-22.62-14.66-50.85-14.48-72.87,1C87.91,138.1,78.68,165,83.91,188.83c5.73,26.11,26.49,46.35,52.4,50.8,41.8,7.19,79.27-26.52,76.22-68.89a63.1,63.1,0,0,0-10.32-30.45C200.79,138.13,198.64,136.22,198.92,133.24Z"/><path class="cls-1" d="M198.92,133.24a67.41,67.41,0,0,1,14.87,35.93,63.08,63.08,0,0,1-9.86,41.49c-14.27,21.89-34.82,32.79-60.85,31.18C110.46,239.82,86.68,215,82,186c-5.13-31.7,13.71-62.56,43.09-72.88,21-7.38,40.92-4.7,59.6,7.35,1.82,1.17,3.52,2.5,5.28,3.76a3.1,3.1,0,0,1-.86,3.16c-9.13,8.83-17.64,18.29-27.2,26.67-2.34.76-4.18-.74-6.17-1.43a24.39,24.39,0,0,0-31.37,15.48c-4.19,12.83,2.85,26.89,15.91,30.66,9.25,2.68,17.94,1,24.83-6.25s8-15.76,5.41-25.08c-.57-2-2.17-3.84-1.42-6.18,3.81-5,8.68-9,13-13.52,4.12-4.28,8.4-8.42,12.6-12.63C195.88,134,197,132.64,198.92,133.24Z"/><path class="cls-5" d="M169.09,161.3c5.3,8.83,5.78,17.87.93,27-7.56,14.25-27.08,17.15-39.1,7.14s-12-29.29-.49-39.14c7.91-6.75,16.89-8,26.58-4.65a38.5,38.5,0,0,1,4.89,2.45c-4.64,5.84-10.39,10.61-15.48,16a22.31,22.31,0,0,0-2.69,2.91,4.64,4.64,0,0,0,6.44,6.44,22.23,22.23,0,0,0,2.9-2.69C158.48,171.69,163.26,166,169.09,161.3Z"/><rect class="cls-6" x="108.96" y="89.72" width="238.88" height="9.93" rx="4.96" transform="translate(456.86 0.13) rotate(135)"/></g></g></svg>