<svg xmlns="http://www.w3.org/2000/svg" viewBox="0 0 71.99 71.99"><defs><style>.cls-1{fill:#02568a;}</style></defs><g id="Layer_2" data-name="Layer 2"><g id="Layer_1-2" data-name="Layer 1"><path class="cls-1" d="M22.49,72a5.58,5.58,0,0,1-4.42-2.17L1.22,48.24A5.87,5.87,0,0,1,.14,43.38l6-26.92a5.7,5.7,0,0,1,3-3.9L33.53.58a5.53,5.53,0,0,1,4.92,0l24.34,12a5.75,5.75,0,0,1,3.05,3.91l6,26.91a5.82,5.82,0,0,1-1.08,4.86h0L53.93,69.81A5.56,5.56,0,0,1,49.51,72h-27ZM36,2a3.52,3.52,0,0,0-1.58.37l-24.33,12a3.73,3.73,0,0,0-2,2.55l-6,26.91A3.85,3.85,0,0,0,2.8,47L19.64,68.59A3.61,3.61,0,0,0,22.49,70h27a3.58,3.58,0,0,0,2.84-1.4L69.19,47a3.83,3.83,0,0,0,.71-3.19l-6-26.92a3.7,3.7,0,0,0-2-2.54l-24.33-12A3.52,3.52,0,0,0,36,2Z"/><path class="cls-1" d="M61.49,41.21l-.45-.1A12.48,12.48,0,0,0,59.58,41a13.74,13.74,0,0,1-2.73-.45,1.66,1.66,0,0,1-.66-.66l-.61-.18A19.78,19.78,0,0,0,52.4,26l.54-.48a1.18,1.18,0,0,1,.29-.86A14.24,14.24,0,0,1,55.49,23a10.9,10.9,0,0,0,1.27-.73L57.1,22a1.53,1.53,0,1,0-1.9-2.38l-.34.27a12.59,12.59,0,0,0-1,1.07,14.55,14.55,0,0,1-2.05,1.86,1.75,1.75,0,0,1-.93.1l-.58.41a19.92,19.92,0,0,0-12.65-6.11l0-.68a1.19,1.19,0,0,1-.5-.77A13.8,13.8,0,0,1,37.28,13a13,13,0,0,0,.21-1.45v-.43a1.53,1.53,0,1,0-3.05,0v.43A13,13,0,0,0,34.65,13a15.52,15.52,0,0,1,.17,2.77,1.67,1.67,0,0,1-.5.78l0,.65a19.66,19.66,0,0,0-12.72,6.11L21,23a1.17,1.17,0,0,1-.9-.09A14.45,14.45,0,0,1,18.06,21a11,11,0,0,0-1-1.07l-.34-.27a1.85,1.85,0,0,0-1.06-.4,1.45,1.45,0,0,0-1.22.54,1.63,1.63,0,0,0,.38,2.25h0l.32.25a11.8,11.8,0,0,0,1.26.74,14.36,14.36,0,0,1,2.27,1.6,1.71,1.71,0,0,1,.3.87l.49.44a19.76,19.76,0,0,0-3.11,13.75l-.63.18c-.17.22-.41.57-.66.67a15.52,15.52,0,0,1-2.73.45,12.75,12.75,0,0,0-1.47.11l-.4.1h0a1.53,1.53,0,1,0,.68,3h.05l.4-.08a12.82,12.82,0,0,0,1.36-.53,14.68,14.68,0,0,1,2.66-.78,1.67,1.67,0,0,1,.88.31l.66-.11a19.85,19.85,0,0,0,8.79,11l-.28.66a1.55,1.55,0,0,1,.14.86A15.22,15.22,0,0,1,24.4,58a11.12,11.12,0,0,0-.82,1.21c-.06.12-.14.29-.19.41a1.53,1.53,0,1,0,2.75,1.31h0c.06-.12.14-.27.19-.39a13.08,13.08,0,0,0,.44-1.39A10.59,10.59,0,0,1,28,56.39a1.24,1.24,0,0,1,.66-.32l.34-.63a19.67,19.67,0,0,0,14.07,0l.32.59a1.16,1.16,0,0,1,.78.47,14.26,14.26,0,0,1,1.05,2.56,11.82,11.82,0,0,0,.44,1.4l.19.39a1.53,1.53,0,1,0,2.75-1.31c-.06-.11-.13-.29-.2-.4A14.34,14.34,0,0,0,47.54,58a14.21,14.21,0,0,1-1.36-2.42,1.25,1.25,0,0,1,.12-.9,6.15,6.15,0,0,1-.25-.61A19.9,19.9,0,0,0,54.84,43l.65.11a1.2,1.2,0,0,1,.85-.32,14.68,14.68,0,0,1,2.66.78,9.15,9.15,0,0,0,1.36.53l.4.09h.05a1.53,1.53,0,1,0,.68-3ZM47,25.69,40.49,30.3h0a1.4,1.4,0,0,1-.74.25,1.33,1.33,0,0,1-1.4-1.28h0l-.46-8A15.79,15.79,0,0,1,47,25.69ZM34.73,34.44h2.46l1.52,1.9-.55,2.38L36,39.78l-2.2-1.07h0l-.55-2.38Zm-.67-13.16-.46,8h0a1.3,1.3,0,0,1-.26.74,1.33,1.33,0,0,1-1.87.29h0l-6.55-4.65A15.77,15.77,0,0,1,34.06,21.28ZM22.49,28.67l6,5.35v0a1.3,1.3,0,0,1,.41.66,1.34,1.34,0,0,1-.94,1.65v0l-7.68,2.22A15.76,15.76,0,0,1,22.49,28.67Zm8,14.19,0,0-3.05,7.37a15.85,15.85,0,0,1-6.34-7.93L29,41h0a1.36,1.36,0,0,1,1.57,1.08,1.44,1.44,0,0,1-.09.77Zm.42,9.06,3.87-7h0a1.31,1.31,0,0,1,1.13-.71,1.34,1.34,0,0,1,1.24.7h0l3.87,7A15.75,15.75,0,0,1,30.9,51.92Zm13.6-1.63-3.08-7.44v0a1.33,1.33,0,0,1,.65-1.74,1.4,1.4,0,0,1,.83-.11v0l7.93,1.35A15.69,15.69,0,0,1,44.5,50.29Zm7.19-11.71L44,36.36v0A1.35,1.35,0,0,1,43.44,34v0l6-5.32h0a15.85,15.85,0,0,1,2,4.8A16.26,16.26,0,0,1,51.69,38.58Z"/></g></g></svg>