<?xml version="1.0" encoding="UTF-8"?>
<svg xmlns="http://www.w3.org/2000/svg" viewBox="0 0 71.56 71.93">
  <defs>
    <style>.cls-1{fill:#02568a;}</style>
  </defs>
  <g id="Layer_2" data-name="Layer 2">
    <g id="Layer_1-2" data-name="Layer 1">
      <path class="cls-1" d="M21.86,46.6C13.74,46.6,0,45.27,0,40.29S13.74,34,21.86,34s21.85,1.33,21.85,6.32S30,46.6,21.86,46.6Zm0-10.63C10.49,36,2,38.25,2,40.29s8.49,4.31,19.86,4.31,19.85-2.28,19.85-4.31S33.22,36,21.86,36Z"></path>
      <path class="cls-1" d="M21.86,55.15C13.74,55.15,0,53.82,0,48.83V46a1,1,0,0,1,2,0v2.82c0,2,8.49,4.32,19.86,4.32s19.85-2.28,19.85-4.32V46a1,1,0,0,1,2,0v2.82C43.71,53.82,30,55.15,21.86,55.15Z"></path>
      <path class="cls-1" d="M21.86,63.67C13.74,63.67,0,62.34,0,57.36V54.54a1,1,0,0,1,2,0v2.82c0,2,8.49,4.31,19.86,4.31s19.85-2.27,19.85-4.31V54.54a1,1,0,0,1,2,0v2.82C43.71,62.34,30,63.67,21.86,63.67Z"></path>
      <path class="cls-1" d="M21.86,71.93C13.74,71.93,0,70.6,0,65.62V62.8a1,1,0,0,1,2,0v2.82c0,2,8.49,4.31,19.86,4.31s19.85-2.28,19.85-4.31V62.8a1,1,0,0,1,2,0v2.82C43.71,70.6,30,71.93,21.86,71.93Z"></path>
      <path class="cls-1" d="M49.71,12.62c-8.12,0-21.86-1.33-21.86-6.31S41.59,0,49.71,0,71.56,1.33,71.56,6.31,57.82,12.62,49.71,12.62ZM49.71,2C38.34,2,29.85,4.28,29.85,6.31s8.49,4.31,19.86,4.31S69.56,8.35,69.56,6.31,61.07,2,49.71,2Z"></path>
      <path class="cls-1" d="M49.71,21.17c-8.12,0-21.86-1.33-21.86-6.31V12a1,1,0,0,1,2,0v2.82c0,2,8.49,4.31,19.86,4.31s19.85-2.27,19.85-4.31V12a1,1,0,1,1,2,0v2.82C71.56,19.84,57.82,21.17,49.71,21.17Z"></path>
      <path class="cls-1" d="M49.71,29.7c-8.12,0-21.86-1.33-21.86-6.31V20.57a1,1,0,0,1,2,0v2.82c0,2,8.49,4.31,19.86,4.31s19.85-2.28,19.85-4.31V20.57a1,1,0,1,1,2,0v2.82C71.56,28.37,57.82,29.7,49.71,29.7Z"></path>
      <path class="cls-1" d="M49.71,38c-8.12,0-21.86-1.33-21.86-6.31V28.82a1,1,0,0,1,2,0v2.83c0,2,8.49,4.31,19.86,4.31s19.85-2.28,19.85-4.31V28.82a1,1,0,1,1,2,0v2.83C71.56,36.63,57.82,38,49.71,38Z"></path>
      <path class="cls-1" d="M13.37,23.37a1,1,0,0,1-1-1V11.72a1,1,0,0,1,2,0V22.37A1,1,0,0,1,13.37,23.37Z"></path>
      <path class="cls-1" d="M18.69,18.05H8.05a1,1,0,0,1,0-2H18.69a1,1,0,0,1,0,2Z"></path>
      <path class="cls-1" d="M57.5,60.69a1,1,0,0,1-1-1V49.05a1,1,0,0,1,2,0V59.69A1,1,0,0,1,57.5,60.69Z"></path>
      <path class="cls-1" d="M62.82,55.37H52.17a1,1,0,0,1,0-2H62.82a1,1,0,0,1,0,2Z"></path>
    </g>
  </g>
</svg>
