<?xml version="1.0" encoding="UTF-8"?>
<svg xmlns="http://www.w3.org/2000/svg" viewBox="0 0 58.25 72">
  <defs>
    <style>.cls-1{fill:#02568a;}</style>
  </defs>
  <g id="Layer_2" data-name="Layer 2">
    <g id="Layer_1-2" data-name="Layer 1">
      <path class="cls-1" d="M29.13,72l-.41-.18a89.74,89.74,0,0,1-14.24-8.34C4.87,56.53,0,49.57,0,42.78V12L28.55.12a1.46,1.46,0,0,1,1.16,0L58.25,12V42.78c0,16-27.54,28.52-28.72,29ZM2,13.35V42.78c0,7.61,7.42,14.57,13.65,19.08a89.42,89.42,0,0,0,13.48,8c3.42-1.62,27.12-13.31,27.12-27V13.35L29.13,2Z"></path>
      <path class="cls-1" d="M41.81,50.32H15.66V33.22H41.81Zm-24.15-2H39.81V35.22H17.66Z"></path>
      <path class="cls-1" d="M37.79,35.22a1,1,0,0,1-1-1v-6a8.06,8.06,0,1,0-16.11,0v6a1,1,0,0,1-2,0v-6a10.06,10.06,0,1,1,20.11,0v6A1,1,0,0,1,37.79,35.22Z"></path>
    </g>
  </g>
</svg>
