<?xml version="1.0" encoding="UTF-8"?>
<svg xmlns="http://www.w3.org/2000/svg" viewBox="0 0 72.04 72">
  <defs>
    <style>.cls-1{fill:#02568a;}</style>
  </defs>
  <g id="Layer_2" data-name="Layer 2">
    <g id="Layer_1-2" data-name="Layer 1">
      <path class="cls-1" d="M44,27.81H23.68a3.31,3.31,0,0,1-2.57-1.15,3.41,3.41,0,0,1-.72-2.78L23.79,3.6A4.39,4.39,0,0,1,28,0H48.31a3.31,3.31,0,0,1,2.57,1.15,3.4,3.4,0,0,1,.72,2.78L48.2,24.21A4.39,4.39,0,0,1,44,27.81ZM28,2a2.4,2.4,0,0,0-2.24,1.93L22.37,24.21a1.36,1.36,0,0,0,.27,1.15,1.32,1.32,0,0,0,1,.45H44a2.42,2.42,0,0,0,2.25-1.93L49.62,3.6a1.39,1.39,0,0,0-.27-1.16,1.34,1.34,0,0,0-1-.44Z"></path>
      <path class="cls-1" d="M30,20.23a1,1,0,0,1-.8-.4,1,1,0,0,1,.2-1.4l6.89-5.18-4.11-5A1,1,0,1,1,33.71,7l5.44,6.62L30.59,20A1,1,0,0,1,30,20.23Z"></path>
      <path class="cls-1" d="M40.68,20.53h-4.6a1,1,0,0,1,0-2h4.6a1,1,0,0,1,0,2Z"></path>
      <path class="cls-1" d="M36,72a3.49,3.49,0,0,1-1.77-.48L21.75,64.33A3.56,3.56,0,0,1,20,61.25V46.88a3.56,3.56,0,0,1,1.77-3.08l12.46-7.19a3.57,3.57,0,0,1,3.55,0L50.21,43.8A3.55,3.55,0,0,1,52,46.88V61.25a3.55,3.55,0,0,1-1.78,3.08L37.76,71.52A3.52,3.52,0,0,1,36,72Zm0-33.86a1.58,1.58,0,0,0-.77.2L22.75,45.53A1.57,1.57,0,0,0,22,46.88V61.25a1.55,1.55,0,0,0,.77,1.35l12.46,7.19a1.54,1.54,0,0,0,1.55,0L49.21,62.6A1.56,1.56,0,0,0,50,61.25V46.88a1.57,1.57,0,0,0-.78-1.35L36.76,38.34A1.65,1.65,0,0,0,36,38.14Z"></path>
      <path class="cls-1" d="M38.88,70.45a2.51,2.51,0,0,1-1.26-.34,3.36,3.36,0,0,1-1.57-3V54.92A3.36,3.36,0,0,1,37.59,52l10.2-6a2.51,2.51,0,0,1,2.55,0,3.37,3.37,0,0,1,1.58,3V61.16a3.36,3.36,0,0,1-1.55,2.93l-10.2,6A2.54,2.54,0,0,1,38.88,70.45Zm10.2-22.82a.56.56,0,0,0-.27.08l-10.2,6a1.4,1.4,0,0,0-.56,1.21V67.16a1.35,1.35,0,0,0,.57,1.21.5.5,0,0,0,.54,0l10.2-6a1.42,1.42,0,0,0,.56-1.21V48.92a1.37,1.37,0,0,0-.57-1.21A.56.56,0,0,0,49.08,47.63Zm-.78-.78h0Z"></path>
      <path class="cls-1" d="M43,63l0-1a1.76,1.76,0,0,1-1.22.25l.18-.76a1.6,1.6,0,0,0,1.14-.22A1.77,1.77,0,0,0,44,59.75c0-.53-.33-.69-.92-.66-.81.06-1.31-.11-1.33-1a2.84,2.84,0,0,1,1.16-2.24l0-1,.48-.28,0,1a1.66,1.66,0,0,1,1-.23l-.18.75a1.53,1.53,0,0,0-1,.23,1.56,1.56,0,0,0-.82,1.31c0,.51.31.6,1,.57s1.24.23,1.26,1.1a3,3,0,0,1-1.21,2.36l0,1Z"></path>
      <polygon class="cls-1" points="47.45 60.41 44.96 61.82 44.94 61.01 47.44 59.6 47.45 60.41"></polygon>
      <path class="cls-1" d="M71,33.08H1a1,1,0,0,1,0-2H71a1,1,0,0,1,0,2Z"></path>
    </g>
  </g>
</svg>
