<?xml version="1.0" encoding="UTF-8"?>
<svg xmlns="http://www.w3.org/2000/svg" xmlns:xlink="http://www.w3.org/1999/xlink" width="446.313" height="395.475" viewBox="0 0 446.313 395.475">
  <defs>
    <filter id="Rectangle_77" x="0" y="0" width="446.313" height="382.173" filterUnits="userSpaceOnUse">
      <feOffset dy="3"></feOffset>
      <feGaussianBlur stdDeviation="49.5" result="blur"></feGaussianBlur>
      <feFlood flood-color="#53ffbc"></feFlood>
      <feComposite operator="in" in2="blur"></feComposite>
      <feComposite in="SourceGraphic"></feComposite>
    </filter>
    <filter id="Rectangle_77-2" x="0" y="0" width="446.313" height="382.173" filterUnits="userSpaceOnUse">
      <feOffset dx="2" dy="2"></feOffset>
      <feGaussianBlur stdDeviation="3" result="blur-2"></feGaussianBlur>
      <feFlood flood-color="#c6c6c6" flood-opacity="0.161" result="color"></feFlood>
      <feComposite operator="out" in="SourceGraphic" in2="blur-2"></feComposite>
      <feComposite operator="in" in="color"></feComposite>
      <feComposite operator="in" in2="SourceGraphic"></feComposite>
    </filter>
    <filter id="Path_9254" x="62.657" y="71.76" width="323.714" height="323.714" filterUnits="userSpaceOnUse">
      <feOffset dy="3"></feOffset>
      <feGaussianBlur stdDeviation="49.5" result="blur-3"></feGaussianBlur>
      <feFlood flood-color="#53ffbc"></feFlood>
      <feComposite operator="in" in2="blur-3"></feComposite>
      <feComposite in="SourceGraphic"></feComposite>
    </filter>
    <linearGradient id="linear-gradient" x1="0.5" x2="0.5" y2="1" gradientUnits="objectBoundingBox">
      <stop offset="0" stop-color="#029262" stop-opacity="0.549"></stop>
      <stop offset="1" stop-color="#02df7e" stop-opacity="0"></stop>
    </linearGradient>
  </defs>
  <g transform="translate(21.329 -66.075)">
    <g data-type="innerShadowGroup">
      <g transform="matrix(1, 0, 0, 1, -21.33, 66.07)" filter="url(#Rectangle_77)">
        <rect width="149.313" height="85.173" rx="8" transform="translate(148.5 145.5)" fill="#fff"></rect>
      </g>
      <g transform="matrix(1, 0, 0, 1, -21.33, 66.07)" filter="url(#Rectangle_77-2)">
        <rect width="149.313" height="85.173" rx="8" transform="translate(148.5 145.5)" fill="#fff"></rect>
      </g>
    </g>
    <g transform="matrix(1, 0, 0, 1, -21.33, 66.07)" filter="url(#Path_9254)">
      <path d="M14.294,13.081l8.839-8.839L21.675,21.675,4.243,23.132Z" transform="translate(224.51 211.26) rotate(45)" fill="#fff"></path>
    </g>
    <circle r="3.266" transform="translate(143.036 278.766)" fill="#3bc390">
      <animateMotion dur="3s" repeatCount="indefinite" path="M0,4s0.0,1.034,20.588-1.556c4.666-2.662,4.385-3.874,9.428-13.91s9.28-3.075,9.28-3.075,1.313,1.125,5.3,10.592,7.855,8.63,7.855,8.63,6.265.926,9.423-12.721,4.947-25.182,6.954-29.512,3.631-6.426,11.91.617c7.431,7.3,11.483,12.8,17.292,6.7,5-6.586,7.865-17.039,9.274-26.6"></animateMotion>
    </circle>
    <circle r="3.266" transform="translate(143.036 278.766)" fill="#3bc390">
      <animateMotion begin="1s" dur="3s" repeatCount="indefinite" path="M0,4s0.0,1.034,20.588-1.556c4.666-2.662,4.385-3.874,9.428-13.91s9.28-3.075,9.28-3.075,1.313,1.125,5.3,10.592,7.855,8.63,7.855,8.63,6.265.926,9.423-12.721,4.947-25.182,6.954-29.512,3.631-6.426,11.91.617c7.431,7.3,11.483,12.8,17.292,6.7,5-6.586,7.865-17.039,9.274-26.6"></animateMotion>
    </circle>
    <path d="M7061.653,577.124s11.994,2.265,19.445-2.734,5.9-18.771,13.41-18.087,8.557,25.62,19.013,20.821,9.473-45.491,17.757-45.491,15.5,17.875,23.1,13.042,11.313-25.836,11.313-28.6v61.047Z" transform="translate(-6915.351 -295.092)" fill="url(#linear-gradient)"></path>
    <path d="M7061.653,577.13s11.994,2.265,19.445-2.734,5.9-18.771,13.41-18.087,8.557,25.62,19.013,20.821,9.473-45.491,17.757-45.491,15.5,17.875,23.1,13.042,11.313-25.836,11.313-28.6" transform="translate(-6915.351 -295.099)" fill="none" stroke="#3bc390" stroke-width="1"></path>
  </g>
</svg>
