<?xml version="1.0" encoding="UTF-8"?>
<svg xmlns="http://www.w3.org/2000/svg" viewBox="0 0 72.04 69.08">
  <defs>
    <style>.cls-1{fill:#961d59;}.cls-2{fill:#d62783;}</style>
  </defs>
  <g id="Layer_2" data-name="Layer 2">
    <g id="Layer_1-2" data-name="Layer 1">
      <path class="cls-1" d="M35,42a7.46,7.46,0,1,1,7.45-7.5,7.38,7.38,0,0,1-2.16,5.29A7.48,7.48,0,0,1,35,41.93"></path>
      <path class="cls-2" d="M49.52,37.89a3.43,3.43,0,1,1,2.43-1,3.43,3.43,0,0,1-2.43,1M62.1,41.13a3.31,3.31,0,1,1,.07-.27.41.41,0,0,1-.07.27m-2.43-8.85a3.41,3.41,0,0,1-3.6-1.3,3.44,3.44,0,1,1,6.13-2.83,3.41,3.41,0,0,1,0,1.35,3.3,3.3,0,0,1-2.59,2.79m12.31,8.47a2.87,2.87,0,1,1,.11-.31.78.78,0,0,0-.07.3m-2.84-8.62a3.43,3.43,0,1,1,2.82-3.94,3.32,3.32,0,0,1,0,.89,3.41,3.41,0,0,1-2.82,3.05m-2.4,20.53a3.45,3.45,0,1,1,.43-1.4,3,3,0,0,1-.42,1.41M65.48,21.1a3.44,3.44,0,1,1,1.32-4.69,3.21,3.21,0,0,1,.42,2,3.41,3.41,0,0,1-1.73,2.67m-30.35,48A34.54,34.54,0,1,1,35.14,0a34.31,34.31,0,0,1,21,7.14L51.9,12.65a27.59,27.59,0,1,0,0,43.83L56.12,62a34.28,34.28,0,0,1-21,7.08Z"></path>
    </g>
  </g>
</svg>
