<?xml version="1.0" encoding="UTF-8"?>
<svg xmlns="http://www.w3.org/2000/svg" viewBox="0 0 21.37 24.24">
  <defs>
    <style>.cls-1{fill:none;stroke:#02568a;stroke-miterlimit:10;stroke-width:0.5px;}</style>
  </defs>
  <title>Database1x</title>
  <g id="Layer_2" data-name="Layer 2">
    <g id="Layer_1-2" data-name="Layer 1">
      <g id="Layer_1-2-2" data-name="Layer 1-2">
        <path class="cls-1" d="M10.75.25A27.28,27.28,0,0,1,17.31,1a9.7,9.7,0,0,1,2.22.82,3.92,3.92,0,0,1,1.07.78,1.63,1.63,0,0,1,0,2.39,4.28,4.28,0,0,1-1.22.84,12.06,12.06,0,0,1-2.92.91,30.41,30.41,0,0,1-6.93.49,24.71,24.71,0,0,1-5.68-.74,8.65,8.65,0,0,1-2.36-1,2.88,2.88,0,0,1-.92-.85,1.55,1.55,0,0,1,0-1.8,3.24,3.24,0,0,1,1.11-1,10,10,0,0,1,2.7-1A28.15,28.15,0,0,1,10.75.25Z"></path>
        <path class="cls-1" d="M21.12,20.23a2,2,0,0,1-.79,1.68,5.57,5.57,0,0,1-1.62.89,15.75,15.75,0,0,1-3.58.88A29.91,29.91,0,0,1,9.62,24a25.57,25.57,0,0,1-5.9-.81,7.75,7.75,0,0,1-2.24-.95,2.77,2.77,0,0,1-1-1.09,1.58,1.58,0,0,1-.18-.73s.07-.05.11,0a10.35,10.35,0,0,0,3.5,1.45,26.05,26.05,0,0,0,4.58.65l.12,0a10.14,10.14,0,0,0,0-1.35C8,21.05,7.46,21,6.91,20.94a17.3,17.3,0,0,1-4.32-1,5.47,5.47,0,0,1-1.45-.82,2.21,2.21,0,0,1-.88-1.49.14.14,0,0,1,.06-.15c.29.19.58.38.9.55a13.42,13.42,0,0,0,3.65,1.17,32.19,32.19,0,0,0,8.2.43,23,23,0,0,0,5.39-.92,8.82,8.82,0,0,0,2.47-1.15l.15-.08a.59.59,0,0,1,0,.29C21.12,18.63,21.1,19.43,21.12,20.23Z"></path>
        <path class="cls-1" d="M21.12,9.17a1.92,1.92,0,0,1-.72,1.56,5.46,5.46,0,0,1-1.74.95,16.48,16.48,0,0,1-3.38.81,31.18,31.18,0,0,1-6,.29,23.84,23.84,0,0,1-6.16-1A6.07,6.07,0,0,1,1,10.73a1.89,1.89,0,0,1-.71-1.3v-.2H.36a11,11,0,0,0,4,1.55,26.37,26.37,0,0,0,4.15.56l.09,0V10L7.7,9.9a19.18,19.18,0,0,1-5.13-1A4.91,4.91,0,0,1,1.07,8,2.09,2.09,0,0,1,.26,6.44s.07,0,.08,0A9.13,9.13,0,0,0,3.65,7.84a26,26,0,0,0,4.12.67,33.51,33.51,0,0,0,5.3.05,20.44,20.44,0,0,0,6-1.19,8.92,8.92,0,0,0,1.75-.87l.19-.1c.1.09.06.2.06.29C21.12,7.52,21.1,8.34,21.12,9.17Z"></path>
        <path class="cls-1" d="M21.12,14.72a2,2,0,0,1-.74,1.59,5.42,5.42,0,0,1-1.72.93,16.32,16.32,0,0,1-3.38.81A31.87,31.87,0,0,1,9,18.34a22.8,22.8,0,0,1-5.91-.95,6.22,6.22,0,0,1-2-1,2.12,2.12,0,0,1-.89-1.58s.08,0,.09,0a10.4,10.4,0,0,0,3.47,1.45,27.71,27.71,0,0,0,4.76.68V15.56a6.26,6.26,0,0,0-.87-.1,21.06,21.06,0,0,1-4.51-.82,6.28,6.28,0,0,1-2-1,2.21,2.21,0,0,1-.9-1.52s0-.07,0-.11.06,0,.08,0a9.49,9.49,0,0,0,3.74,1.52,31.54,31.54,0,0,0,9.14.6,22.27,22.27,0,0,0,5.06-.88,10.32,10.32,0,0,0,2.56-1.14c.07-.05.13-.12.24-.1a.57.57,0,0,1,0,.29C21.12,13.09,21.1,13.91,21.12,14.72Z"></path>
      </g>
    </g>
  </g>
</svg>
