<?xml version="1.0" encoding="UTF-8"?>
<svg xmlns="http://www.w3.org/2000/svg" viewBox="0 0 18.41 16.24">
  <defs>
    <style>.cls-1{fill:#02568a;}</style>
  </defs>
  <title>Developer Success1x</title>
  <g id="Layer_2" data-name="Layer 2">
    <g id="Layer_1-2" data-name="Layer 1">
      <path class="cls-1" d="M2.25,1.49a1,1,0,0,0-1,.92,1,1,0,1,0,1-.92Zm0,1.3a.34.34,0,0,1-.34-.34.36.36,0,0,1,.37-.36.37.37,0,0,1,.33.37A.36.36,0,0,1,2.23,2.79Z"></path>
      <path class="cls-1" d="M5.19,1.5a.92.92,0,0,0-.94,1,.91.91,0,0,0,1,.95,1,1,0,1,0,0-1.9Zm0,1.31a.38.38,0,0,1-.34-.37.38.38,0,0,1,.37-.34.34.34,0,0,1,.32.36A.35.35,0,0,1,5.18,2.81Z"></path>
      <path class="cls-1" d="M8.16,1.5a1,1,0,1,0,0,1.92,1,1,0,0,0,0-1.92Zm0,1.31a.34.34,0,0,1-.33-.35.33.33,0,0,1,.35-.34.35.35,0,0,1,.34.35A.36.36,0,0,1,8.14,2.81Z"></path>
      <path class="cls-1" d="M17.48.33A2.21,2.21,0,0,0,16.25,0H5.78C4.53,0,3.27,0,2,0A2,2,0,0,0,0,2c0,4.06,0,8.13,0,12.19a2,2,0,0,0,1.18,1.84,2.15,2.15,0,0,0,1,.18H16.34a2.06,2.06,0,0,0,2-1.68,2,2,0,0,0,0-.43v-12A2,2,0,0,0,17.48.33ZM.64,1.82A1.38,1.38,0,0,1,1.81.64a3.29,3.29,0,0,1,.45,0H16.15a1.69,1.69,0,0,1,.94.2,1.35,1.35,0,0,1,.69,1.13c0,.74,0,1.47,0,2.21a.26.26,0,0,1,0,.1H.65l0,0A23.62,23.62,0,0,1,.64,1.82ZM17.79,5.19V14a2,2,0,0,1-.05.6,1.44,1.44,0,0,1-1.41,1.05H2.27a1.77,1.77,0,0,1-1-.22,1.4,1.4,0,0,1-.69-1.11V4.89H17.77A.79.79,0,0,1,17.79,5.19ZM13,9.3,11.41,8c-.18-.16-.36-.17-.48,0s-.09.32.09.49l.05,0,.91.78.66.56-.29.25L11.1,11.16a1,1,0,0,0-.18.18.27.27,0,0,0,0,.36.3.3,0,0,0,.36.08.27.27,0,0,0,.12-.09c.63-.52,1.24-1,1.86-1.57.21-.19.2-.37,0-.57ZM9.77,6.66a.29.29,0,0,0-.33.24c0,.11,0,.21-.07.31C9,8.8,8.69,10.39,8.36,12c0,.24-.11.49-.14.74a.3.3,0,0,0,.22.35.32.32,0,0,0,.36-.23,1.21,1.21,0,0,0,0-.18c.32-1.55.64-3.1,1-4.64.08-.33.14-.67.2-1S10,6.68,9.77,6.66ZM7.36,11.21l-.6-.53-1-.84c.15-.12.27-.23.38-.33l1.2-1c.22-.18.26-.36.14-.51A.34.34,0,0,0,7,8V8L5.41,9.34l-.28.24a.32.32,0,0,0,0,.52.2.2,0,0,0,.07.06c.58.49,1.16,1,1.75,1.49a1.09,1.09,0,0,0,.17.13.3.3,0,0,0,.35-.06.32.32,0,0,0,0-.38A.64.64,0,0,0,7.36,11.21Z"></path>
      <path class="cls-1" d="M2.25,1.49a1,1,0,0,0-1,.92,1,1,0,1,0,1-.92Zm0,1.3a.34.34,0,0,1-.34-.34.36.36,0,0,1,.37-.36.37.37,0,0,1,.33.37A.36.36,0,0,1,2.23,2.79Z"></path>
      <path class="cls-1" d="M5.19,1.5a.92.92,0,0,0-.94,1,.91.91,0,0,0,1,.95,1,1,0,1,0,0-1.9Zm0,1.31a.38.38,0,0,1-.34-.37.38.38,0,0,1,.37-.34.34.34,0,0,1,.32.36A.35.35,0,0,1,5.18,2.81Z"></path>
      <path class="cls-1" d="M8.16,1.5a1,1,0,1,0,0,1.92,1,1,0,0,0,0-1.92Zm0,1.31a.34.34,0,0,1-.33-.35.33.33,0,0,1,.35-.34.35.35,0,0,1,.34.35A.36.36,0,0,1,8.14,2.81Z"></path>
      <path class="cls-1" d="M7.51,11.34a.32.32,0,0,1,0,.38.3.3,0,0,1-.35.06A1.09,1.09,0,0,1,7,11.65c-.59-.49-1.17-1-1.75-1.49a.2.2,0,0,1-.07-.06.32.32,0,0,1,0-.52l.28-.24L7,8V8a.34.34,0,0,1,.53,0c.12.15.08.33-.14.51l-1.2,1c-.11.1-.23.21-.38.33l1,.84.6.53A.64.64,0,0,1,7.51,11.34Z"></path>
      <path class="cls-1" d="M13.26,10.12c-.62.53-1.23,1.05-1.86,1.57a.27.27,0,0,1-.12.09.3.3,0,0,1-.36-.08.27.27,0,0,1,0-.36,1,1,0,0,1,.18-.18l1.25-1.07.29-.25L12,9.28l-.91-.78-.05,0c-.18-.17-.22-.35-.09-.49s.3-.13.48,0L13,9.3l.29.25C13.46,9.75,13.47,9.93,13.26,10.12Z"></path>
      <path class="cls-1" d="M7.48,11.72a.3.3,0,0,1-.35.06A1.09,1.09,0,0,1,7,11.65c-.59-.49-1.17-1-1.75-1.49a.2.2,0,0,1-.07-.06.32.32,0,0,1,0-.52l.28-.24L7,8V8a.34.34,0,0,1,.53,0c.12.15.08.33-.14.51l-1.2,1c-.11.1-.23.21-.38.33l1,.84.6.53a.64.64,0,0,1,.15.13A.32.32,0,0,1,7.48,11.72Z"></path>
      <path class="cls-1" d="M13.26,10.12c-.62.53-1.23,1.05-1.86,1.57a.27.27,0,0,1-.12.09.3.3,0,0,1-.36-.08.27.27,0,0,1,0-.36,1,1,0,0,1,.18-.18l1.25-1.07.29-.25L12,9.28l-.91-.78-.05,0c-.18-.17-.22-.35-.09-.49s.3-.13.48,0L13,9.3l.29.25C13.46,9.75,13.47,9.93,13.26,10.12Z"></path>
    </g>
  </g>
</svg>
