<?xml version="1.0" encoding="UTF-8"?>
<svg xmlns="http://www.w3.org/2000/svg" viewBox="0 0 25.15 12.56">
  <defs>
    <style>.cls-1{fill:none;stroke:#02568a;stroke-miterlimit:10;stroke-width:0.5px;}</style>
  </defs>
  <title>DevOps1x</title>
  <g id="Layer_2" data-name="Layer 2">
    <g id="Layer_1-2" data-name="Layer 1">
      <g id="Layer_1-2-2" data-name="Layer 1-2">
        <path class="cls-1" d="M6.31,12.27l1.21-1.22L6.29,9.85a.23.23,0,0,1,.18,0A3.52,3.52,0,0,0,9,8.54L11.19,6a.34.34,0,0,1,.3-.13h1.58a.23.23,0,0,1,0,.16c0,.49,0,1,0,1.46a.39.39,0,0,1-.12.28c-.73.84-1.46,1.7-2.2,2.54A5.94,5.94,0,0,1,8.1,12a6.39,6.39,0,0,1-1.74.28Z"></path>
        <path class="cls-1" d="M11.71,5.35l.48-.56c.72-.84,1.43-1.69,2.16-2.51a5.92,5.92,0,0,1,3.77-2,.26.26,0,0,1,.26.08l1,1a.25.25,0,0,1,.11.17l-.81.78c-.13.12-.25.25-.37.37a.56.56,0,0,1-.29.16,3.34,3.34,0,0,0-1.52.83c-.23.22-.43.49-.65.73L13.6,7a.07.07,0,0,1-.07,0V5.4h-1.8Z"></path>
        <path class="cls-1" d="M6.25.29,5,1.49,6.25,2.73a.45.45,0,0,1-.22,0A3.51,3.51,0,0,0,2.85,5.44a.56.56,0,0,1-.16.29L1.6,6.82l-.11.1L1,6.38.37,5.8a.22.22,0,0,1-.08-.23A6,6,0,0,1,3.91.73,5.87,5.87,0,0,1,6.11.25.23.23,0,0,1,6.25.29Z"></path>
        <path class="cls-1" d="M.25,6.31,1.5,7.53,2.69,6.31c.07,0,.05.08.05.12A3.55,3.55,0,0,0,5.48,9.71a.42.42,0,0,1,.18.08L6.9,11.05s0,.06-.07.09c-.34.34-.69.68-1,1a.26.26,0,0,1-.25.08,5.86,5.86,0,0,1-3-1.24A6,6,0,0,1,.33,7.28,6.35,6.35,0,0,1,.25,6.31Z"></path>
        <path class="cls-1" d="M18.22,11.05c.44-.42.85-.83,1.25-1.24a.53.53,0,0,1,.21-.11A3.46,3.46,0,0,0,22.32,7a3.4,3.4,0,0,0,.06-.46.69.69,0,0,1,0-.2l1.21,1.23L24.9,6.29a5.47,5.47,0,0,1-.08.9,5.9,5.9,0,0,1-2,3.62,5.89,5.89,0,0,1-3.23,1.44c-.07,0-.14,0-.2,0Z"></path>
        <path class="cls-1" d="M23.63,6.91c-.29-.29-.55-.58-.84-.84a1.68,1.68,0,0,1-.61-1,3.5,3.5,0,0,0-2.9-2.32l-.18,0h-.23L20.12,1.5,18.89.27a.62.62,0,0,1,.27,0,5.91,5.91,0,0,1,4.61,2.52,5.79,5.79,0,0,1,1.07,2.78.19.19,0,0,1,0,.19Z"></path>
        <path class="cls-1" d="M5.66,1.49c.32-.34.66-.66,1-1a.5.5,0,0,1,.5-.17,6.12,6.12,0,0,1,3,1.35,7,7,0,0,1,.93,1l1.24,1.44.06.09-1.64,1.9a6.17,6.17,0,0,1-.48-.54C9.8,5,9.36,4.49,8.92,4a3.4,3.4,0,0,0-1.77-1.1.73.73,0,0,1-.35-.2C6.45,2.3,6.09,2,5.74,1.6A.21.21,0,0,1,5.66,1.49Z"></path>
        <path class="cls-1" d="M18.84,9.85,17.6,11.07l1.24,1.24a5.22,5.22,0,0,1-1-.08,6,6,0,0,1-3-1.42,6.25,6.25,0,0,1-.67-.69c-.44-.53-.89-1-1.34-1.57a.24.24,0,0,1-.07-.13l1.63-1.9.63.73c.39.45.77.91,1.17,1.35a3.47,3.47,0,0,0,2.42,1.2A.25.25,0,0,1,18.84,9.85Z"></path>
      </g>
    </g>
  </g>
</svg>
