<?xml version="1.0" encoding="UTF-8"?>
<svg xmlns="http://www.w3.org/2000/svg" viewBox="0 0 71.39 72.06">
  <defs>
    <style>.cls-1{fill:#02568a;}</style>
  </defs>
  <g id="Layer_2" data-name="Layer 2">
    <g id="Layer_1-2" data-name="Layer 1">
      <path class="cls-1" d="M30.45,56.62H26.18a3.31,3.31,0,0,1-3.26-2.7L22,49a1.12,1.12,0,0,0-.71-.86c-.68-.24-1.36-.52-2-.83a1.12,1.12,0,0,0-1.09.1L14,50.23a3.32,3.32,0,0,1-4.22-.39l-3-3a3.33,3.33,0,0,1-.4-4.23l2.84-4.14a1.13,1.13,0,0,0,.1-1.11,19,19,0,0,1-.83-2,1.13,1.13,0,0,0-.85-.7l-4.94-.92A3.33,3.33,0,0,1,0,30.44V26.18a3.31,3.31,0,0,1,2.71-3.26L7.64,22a1.12,1.12,0,0,0,.86-.71c.24-.68.52-1.36.83-2a1.1,1.1,0,0,0-.1-1.09L6.39,14a3.32,3.32,0,0,1,.4-4.22l3-3A3.32,3.32,0,0,1,14,6.39l4.14,2.84a1.13,1.13,0,0,0,1.11.1,19.9,19.9,0,0,1,2-.83,1.13,1.13,0,0,0,.7-.85l.93-4.94A3.32,3.32,0,0,1,26.18,0h4.26a3.33,3.33,0,0,1,3.27,2.71l.92,4.93a1.1,1.1,0,0,0,.71.86c.68.24,1.36.52,2,.83a1.09,1.09,0,0,0,1.09-.1L42.6,6.39a3.33,3.33,0,0,1,4.23.4l3,3A3.33,3.33,0,0,1,50.23,14L47.4,18.16a1.14,1.14,0,0,0-.11,1.11c.31.65.59,1.33.84,2A1.1,1.1,0,0,0,49,22l4.94.93a3.31,3.31,0,0,1,2.71,3.26v4.26a3.21,3.21,0,0,1-.06.63l-.19,1-1-.16a2.73,2.73,0,0,0-.5-.05H51.84a3.14,3.14,0,0,0-2.66,1.5c-.15.25-.93,2-1.35,2.88l-.54,1.16s0,.06,0,.11l-.32,1.45-3.45-2.36a3.15,3.15,0,0,0-4,.37l-2.17,2.18a3.14,3.14,0,0,0-.37,4l2.51,3.68-1.32.38a36.51,36.51,0,0,0-4.55,1.69,3.14,3.14,0,0,0-1.39,2.6v3.08a4.1,4.1,0,0,0,.09.68l.2.82-.78.33A3.28,3.28,0,0,1,30.45,56.62ZM18.81,45.19a3.12,3.12,0,0,1,1.3.29,17.52,17.52,0,0,0,1.85.76,3.17,3.17,0,0,1,2,2.38l.92,4.93a1.33,1.33,0,0,0,1.3,1.07h4s0,0,0-.08V51.45a5.14,5.14,0,0,1,2.36-4.32l.13-.07a37.92,37.92,0,0,1,3.58-1.4l-1-1.43a5.15,5.15,0,0,1,.6-6.54l2.18-2.17a5.14,5.14,0,0,1,6.53-.61l1.21.83.18-.37c.85-1.88,1.29-2.82,1.46-3.1a5.17,5.17,0,0,1,4.37-2.45h2.78V26.18a1.33,1.33,0,0,0-1.08-1.3L48.61,24a3.09,3.09,0,0,1-2.36-2,20,20,0,0,0-.77-1.85A3.13,3.13,0,0,1,45.75,17l2.83-4.14a1.32,1.32,0,0,0-.16-1.68l-3-3A1.33,1.33,0,0,0,43.73,8l-4.14,2.84a3.14,3.14,0,0,1-3.08.27,19.39,19.39,0,0,0-1.84-.77,3.13,3.13,0,0,1-2-2.37l-.92-4.93A1.32,1.32,0,0,0,30.44,2H26.18a1.33,1.33,0,0,0-1.3,1.08L24,8a3.12,3.12,0,0,1-2,2.37,17.91,17.91,0,0,0-1.85.76A3.11,3.11,0,0,1,17,10.87L12.89,8a1.33,1.33,0,0,0-1.68.16l-3,3A1.33,1.33,0,0,0,8,12.89L10.88,17a3.09,3.09,0,0,1,.26,3.07c-.28.61-.54,1.23-.76,1.85A3.12,3.12,0,0,1,8,24l-4.92.92A1.33,1.33,0,0,0,2,26.18v4.26a1.32,1.32,0,0,0,1.08,1.3L8,32.67a3.11,3.11,0,0,1,2.37,2,18.69,18.69,0,0,0,.76,1.84,3.11,3.11,0,0,1-.27,3.09L8,43.73a1.33,1.33,0,0,0,.16,1.68l3,3a1.32,1.32,0,0,0,1.68.16L17,45.75A3,3,0,0,1,18.81,45.19Zm9.5-7.12a9.76,9.76,0,1,1,9.76-9.76,9.76,9.76,0,0,1-9.76,9.76Zm0-17.51a7.76,7.76,0,1,0,7.76,7.75A7.76,7.76,0,0,0,28.31,20.56Z"></path>
      <path class="cls-1" d="M55.2,72.06H52.57a2.09,2.09,0,0,1-2-1.69L50,67.32a.65.65,0,0,0-.42-.51,12.57,12.57,0,0,1-1.25-.51.62.62,0,0,0-.64.06l-2.57,1.75a2.08,2.08,0,0,1-2.64-.25L40.58,66a2.07,2.07,0,0,1-.24-2.64l1.75-2.56a.66.66,0,0,0,.06-.65,12.23,12.23,0,0,1-.52-1.25.66.66,0,0,0-.5-.41l-3.05-.58a2.08,2.08,0,0,1-1.7-2V53.24a2.08,2.08,0,0,1,1.7-2l3.05-.57a.67.67,0,0,0,.5-.42A12.23,12.23,0,0,1,42.15,49a.67.67,0,0,0-.06-.64l-1.75-2.57a2.08,2.08,0,0,1,.24-2.64l1.86-1.86A2.06,2.06,0,0,1,45.08,41l2.56,1.74a.66.66,0,0,0,.66.06c.41-.19.83-.36,1.25-.51a.66.66,0,0,0,.41-.5l.57-3a2.1,2.1,0,0,1,2-1.7H55.2a2.1,2.1,0,0,1,2,1.7l.57,3a.65.65,0,0,0,.42.51c.41.15.83.32,1.25.52a.67.67,0,0,0,.64-.06L62.7,41a2.06,2.06,0,0,1,2.64.24l1.86,1.86a2.08,2.08,0,0,1,.24,2.64l-1.75,2.56a.68.68,0,0,0-.06.66,12.62,12.62,0,0,1,.52,1.25.64.64,0,0,0,.49.41l3.06.57a2.07,2.07,0,0,1,1.69,2v2.63a2.07,2.07,0,0,1-1.69,2l-3,.58a.66.66,0,0,0-.51.42,10.81,10.81,0,0,1-.51,1.24.66.66,0,0,0,.06.65l1.75,2.56A2.09,2.09,0,0,1,67.2,66l-1.86,1.86a2.08,2.08,0,0,1-2.65.25l-2.55-1.75a.66.66,0,0,0-.66-.06,12.57,12.57,0,0,1-1.25.51.66.66,0,0,0-.41.5l-.57,3.06A2.09,2.09,0,0,1,55.2,72.06ZM48,64.24a2.58,2.58,0,0,1,1.12.25c.36.17.71.31,1.07.44a2.66,2.66,0,0,1,1.72,2l.57,3,2.7.06L55.85,67a2.67,2.67,0,0,1,1.71-2,10,10,0,0,0,1.07-.44,2.68,2.68,0,0,1,2.64.22l2.55,1.75,2-1.87L64,61.93a2.66,2.66,0,0,1-.22-2.63,10.77,10.77,0,0,0,.44-1.06,2.67,2.67,0,0,1,2-1.72l3-.57.06-2.71.12-1.06-.18,1-3-.58a2.65,2.65,0,0,1-2-1.7,8.3,8.3,0,0,0-.44-1.07,2.68,2.68,0,0,1,.23-2.65l1.74-2.55-1.87-1.95-2.65,1.74a2.7,2.7,0,0,1-2.64.22,8.79,8.79,0,0,0-1.06-.44,2.69,2.69,0,0,1-1.72-2l-.57-3-2.71-.07-.64,3.11a2.67,2.67,0,0,1-1.71,2c-.37.13-.72.28-1.07.44a2.65,2.65,0,0,1-2.64-.22L44,42.66a.09.09,0,0,0-.11,0L42,44.52l1.74,2.66A2.66,2.66,0,0,1,44,49.81a8.92,8.92,0,0,0-.44,1.07,2.69,2.69,0,0,1-2,1.72l-3,.57-.07,2.7,3.12.65a2.63,2.63,0,0,1,2,1.71A9.91,9.91,0,0,0,44,59.29a2.67,2.67,0,0,1-.23,2.65L42,64.49l1.87,2,2.65-1.74A2.67,2.67,0,0,1,48,64.24Zm5.87-2.57A7.12,7.12,0,1,1,61,54.56,7.12,7.12,0,0,1,53.89,61.67Zm0-12.23A5.12,5.12,0,1,0,59,54.56,5.13,5.13,0,0,0,53.89,49.44Z"></path>
    </g>
  </g>
</svg>
