<?xml version="1.0" encoding="UTF-8"?>
<svg xmlns="http://www.w3.org/2000/svg" viewBox="0 0 72.08 72">
  <defs>
    <style>.cls-1{fill:#02568a;}</style>
  </defs>
  <g id="Layer_2" data-name="Layer 2">
    <g id="Layer_1-2" data-name="Layer 1">
      <path class="cls-1" d="M56.42,61H15.56a4.11,4.11,0,0,1-4.11-4.1V33a4.11,4.11,0,0,1,4.11-4.1H56.42A4.11,4.11,0,0,1,60.53,33v23.9A4.11,4.11,0,0,1,56.42,61ZM15.56,30.94A2.11,2.11,0,0,0,13.45,33v23.9A2.11,2.11,0,0,0,15.56,59H56.42a2.11,2.11,0,0,0,2.11-2.1V33a2.11,2.11,0,0,0-2.11-2.1Z"></path>
      <path class="cls-1" d="M50,72a1,1,0,0,1-1-.7l-1.24-4a2.37,2.37,0,0,0-2.28-1.67H26.63a2.38,2.38,0,0,0-2.28,1.67l-1.24,4a1,1,0,0,1-1.91-.6l1.24-4a4.38,4.38,0,0,1,4.19-3.08H45.56a4.37,4.37,0,0,1,4.19,3.08l1.24,4A1,1,0,0,1,50.33,72,.93.93,0,0,1,50,72Z"></path>
      <path class="cls-1" d="M36,9.16a4.58,4.58,0,1,1,4.57-4.58A4.59,4.59,0,0,1,36,9.16ZM36,2a2.58,2.58,0,1,0,2.57,2.58A2.58,2.58,0,0,0,36,2Z"></path>
      <path class="cls-1" d="M36,30.77a1,1,0,0,1-1-1V8.28a1,1,0,0,1,2,0V29.77A1,1,0,0,1,36,30.77Z"></path>
      <path class="cls-1" d="M28.53,22.43a4.58,4.58,0,1,1,4.58-4.58A4.59,4.59,0,0,1,28.53,22.43Zm0-7.16a2.58,2.58,0,1,0,2.58,2.58A2.59,2.59,0,0,0,28.53,15.27Z"></path>
      <path class="cls-1" d="M3,47.6a3,3,0,1,1,3-3A3,3,0,0,1,3,47.6Zm0-4a1,1,0,1,0,1,1A1,1,0,0,0,3,43.65Z"></path>
      <path class="cls-1" d="M6,55.21a3,3,0,1,1,3-3A3,3,0,0,1,6,55.21Zm0-4a1,1,0,1,0,1,1A1,1,0,0,0,6,51.26Z"></path>
      <path class="cls-1" d="M28.53,30.94a1,1,0,0,1-1-1V21.55a1,1,0,1,1,2,0v8.39A1,1,0,0,1,28.53,30.94Z"></path>
      <path class="cls-1" d="M43.56,22.43a4.58,4.58,0,1,1,4.57-4.58A4.59,4.59,0,0,1,43.56,22.43Zm0-7.16a2.58,2.58,0,1,0,2.57,2.58A2.58,2.58,0,0,0,43.56,15.27Z"></path>
      <path class="cls-1" d="M43.55,30.94a1,1,0,0,1-1-1V21.55a1,1,0,1,1,2,0v8.39A1,1,0,0,1,43.55,30.94Z"></path>
      <path class="cls-1" d="M11.94,45.68H4.82a1,1,0,0,1,0-2h7.12a1,1,0,0,1,0,2Z"></path>
      <path class="cls-1" d="M12.3,53.11H8.23a1,1,0,0,1,0-2H12.3a1,1,0,0,1,0,2Z"></path>
      <path class="cls-1" d="M69.1,47.6a3,3,0,1,1,3-3A3,3,0,0,1,69.1,47.6Zm0-4a1,1,0,1,0,1,1A1,1,0,0,0,69.1,43.65Z"></path>
      <path class="cls-1" d="M66.1,55.21a3,3,0,1,1,3-3A3,3,0,0,1,66.1,55.21Zm0-4a1,1,0,1,0,1,1A1,1,0,0,0,66.1,51.26Z"></path>
      <path class="cls-1" d="M67.25,45.68H60.14a1,1,0,0,1,0-2h7.11a1,1,0,0,1,0,2Z"></path>
      <path class="cls-1" d="M63.85,53.11H59.78a1,1,0,0,1,0-2h4.07a1,1,0,1,1,0,2Z"></path>
    </g>
  </g>
</svg>
