<?xml version="1.0" encoding="UTF-8"?>
<svg xmlns="http://www.w3.org/2000/svg" viewBox="0 0 72.16 72.07">
  <defs>
    <style>.cls-1{fill:#02568a;}</style>
  </defs>
  <g id="Layer_2" data-name="Layer 2">
    <g id="Layer_1-2" data-name="Layer 1">
      <path class="cls-1" d="M56.44,71.61a8.28,8.28,0,0,1-4-1,10.9,10.9,0,0,1-5.88-8.52,9.79,9.79,0,0,1,.69-5.3c.1-.24.12-.28-.13-.53Q39.48,48.67,31.85,41l-6.8-6.81-3.82-3.81c-1.87-1.86-3.74-3.72-5.59-5.59a.87.87,0,0,0-.17-.13l-.13,0c-5.56,2.47-10.86-.61-13.22-4.93A14,14,0,0,1,.3,13.72,9.53,9.53,0,0,1,2,7.63,2.46,2.46,0,0,1,2.62,7,1.4,1.4,0,0,1,3.7,6.79a1.4,1.4,0,0,1,.89.66C5,8.07,5.4,8.7,5.8,9.32c.71,1.08,1.41,2.16,2.09,3.25a2.6,2.6,0,0,0,3.29,1.31A7.76,7.76,0,0,0,15,11.39a2.34,2.34,0,0,0,.22-3C14.45,7.2,13.71,6,13,4.83l-1-1.67a1.73,1.73,0,0,1-.24-1.59A1.68,1.68,0,0,1,13,.7c.61-.11,1.22-.18,1.74-.25l.62-.08h.08a9.86,9.86,0,0,1,8.55,5,10.5,10.5,0,0,1,.91,9.78c-.11.28-.12.32.12.56q6.84,6.83,13.65,13.68L47.3,38c1.55,1.56,3.11,3.1,4.67,4.64s3.06,3,4.58,4.56l.13.1.1,0a9.63,9.63,0,0,1,3.91-.88h0a10.11,10.11,0,0,1,8,3.87,13.45,13.45,0,0,1,3.17,8.27,9.22,9.22,0,0,1-1.61,5.7,2.68,2.68,0,0,1-.63.67,1.41,1.41,0,0,1-1.12.3,1.47,1.47,0,0,1-1-.7c-.43-.67-.86-1.34-1.3-2-.66-1-1.33-2-2-3.07A2.56,2.56,0,0,0,61,58.11a7.52,7.52,0,0,0-3.85,2.55,2.27,2.27,0,0,0-.2,2.9c.75,1.26,1.53,2.5,2.3,3.74l1,1.57a1.67,1.67,0,0,1,.23,1.53,1.56,1.56,0,0,1-1.21.87A13.45,13.45,0,0,1,56.44,71.61ZM15.49,22.67a2.17,2.17,0,0,1,1.57.73q2.78,2.79,5.58,5.57l3.83,3.82,6.8,6.81q7.62,7.65,15.27,15.27a2.28,2.28,0,0,1,.55,2.75,7.72,7.72,0,0,0-.54,4.23,8.89,8.89,0,0,0,4.85,7,7.09,7.09,0,0,0,4.85.55l-.67-1.07c-.79-1.25-1.57-2.5-2.33-3.77a4.24,4.24,0,0,1,.37-5.19,9.47,9.47,0,0,1,4.86-3.22A4.56,4.56,0,0,1,66,58.37c.63,1,1.29,2,2,3l.9,1.38a7.27,7.27,0,0,0,1.05-4.16,11.54,11.54,0,0,0-2.7-7.08,8.21,8.21,0,0,0-6.48-3.15h0a7.57,7.57,0,0,0-3.09.71,2.08,2.08,0,0,1-2.47-.48c-1.51-1.52-3-3-4.57-4.54l-4.68-4.65L37.27,30.8,23.62,17.13a2.32,2.32,0,0,1-.56-2.73,8.47,8.47,0,0,0-.76-8,7.83,7.83,0,0,0-6.83-4L15,2.44c-.32,0-.69.08-1.07.14l.75,1.19c.74,1.19,1.49,2.38,2.22,3.59a4.31,4.31,0,0,1-.41,5.32,9.72,9.72,0,0,1-4.74,3.12,4.56,4.56,0,0,1-5.55-2.17c-.67-1.08-1.37-2.15-2.06-3.22L3.35,9.2A7.42,7.42,0,0,0,2.3,13.62a12,12,0,0,0,1.58,5.22c1.92,3.51,6.19,6,10.65,4.05A2.47,2.47,0,0,1,15.49,22.67Zm41.2,24.66h0Z"></path>
      <path class="cls-1" d="M52.06,41.34l-.24,0a1,1,0,0,1-.73-1.21A15.27,15.27,0,0,0,48,26,15.08,15.08,0,0,0,38,20.55,15.59,15.59,0,0,0,32,21a1,1,0,1,1-.5-1.94,17.72,17.72,0,0,1,6.75-.48,17,17,0,0,1,11.35,6.2A17.19,17.19,0,0,1,53,40.58,1,1,0,0,1,52.06,41.34Z"></path>
      <path class="cls-1" d="M69.6,47.77a1.26,1.26,0,0,1-.28,0,1,1,0,0,1-.69-1.24c.36-1.26.72-2.52,1.05-3.79a12.94,12.94,0,0,0,.48-3.62c0-.61-.12-.72-.71-.81a4.07,4.07,0,0,0-.61-.06,7.14,7.14,0,0,1-6.5-3.84,21.08,21.08,0,0,1-2.68-10.23,6.9,6.9,0,0,1,3.28-6.06c.32-.19.62-.41.92-.63.47-.37.48-.54.25-1a8.6,8.6,0,0,0-1-1.52A39.85,39.85,0,0,0,57.6,9.36a11.55,11.55,0,0,0-2-1.35c-.3-.15-.43-.22-.79.24-.22.29-.43.58-.63.88s-.25.35-.38.53A6.49,6.49,0,0,1,50.68,12a9.73,9.73,0,0,1-4.49.4A22.33,22.33,0,0,1,38.06,10a6.86,6.86,0,0,1-3.77-4.49A14.64,14.64,0,0,1,34,3.07c-.08-.9-.3-.95-.47-1A3.13,3.13,0,0,0,33,2l-.86.11c-1.07.13-2.09.26-3.09.48s-2,.49-3,.77a1,1,0,0,1-.54-1.93c1.05-.29,2.08-.57,3.13-.8s2.19-.37,3.26-.5L32.78,0A3.19,3.19,0,0,1,34,.13c1.2.29,1.87,1.21,2,2.74A13.67,13.67,0,0,0,36.23,5,4.9,4.9,0,0,0,39,8.21a20.08,20.08,0,0,0,7.41,2.24,7.92,7.92,0,0,0,3.59-.3,4.46,4.46,0,0,0,2.14-1.66L52.51,8q.33-.48.69-1a2.43,2.43,0,0,1,3.3-.78,13.07,13.07,0,0,1,2.39,1.59,43.22,43.22,0,0,1,5.79,5.86,11.37,11.37,0,0,1,1.21,1.86A2.55,2.55,0,0,1,65.08,19c-.34.26-.7.51-1.06.74a4.85,4.85,0,0,0-2.36,4.38,19,19,0,0,0,2.44,9.26,5.17,5.17,0,0,0,4.8,2.8,6.3,6.3,0,0,1,.85.09A2.57,2.57,0,0,1,72.16,39a14.48,14.48,0,0,1-.55,4.2c-.33,1.28-.69,2.55-1,3.83A1,1,0,0,1,69.6,47.77Z"></path>
      <path class="cls-1" d="M39.29,72.07a4.2,4.2,0,0,1-.7,0,2.7,2.7,0,0,1-2.3-2.82A13.61,13.61,0,0,0,36,67.06a5,5,0,0,0-2.75-3.19,20.44,20.44,0,0,0-6.94-2.19,8.66,8.66,0,0,0-3.85.15,4.45,4.45,0,0,0-2.33,1.64c-.18.23-.34.47-.51.72l-.48.67a2.56,2.56,0,0,1-3.77.82,19.15,19.15,0,0,1-2.84-2.11,40.34,40.34,0,0,1-5.37-5.63,9,9,0,0,1-1-1.6A2.49,2.49,0,0,1,7,53.08c.27-.21.56-.41.84-.61s.56-.39.83-.6A4.74,4.74,0,0,0,10.52,48a18.73,18.73,0,0,0-2.59-9.6,4.8,4.8,0,0,0-4.21-2.51,10.61,10.61,0,0,1-1.42-.17A2.56,2.56,0,0,1,0,33a16,16,0,0,1,.62-4.55c.32-1.21.66-2.42,1-3.63l.09-.31a1,1,0,1,1,1.92.55l-.09.32c-.34,1.19-.68,2.38-1,3.58a14.36,14.36,0,0,0-.56,4c0,.62.15.7.67.8a8.1,8.1,0,0,0,1.14.13,6.82,6.82,0,0,1,5.84,3.51A20.55,20.55,0,0,1,12.52,48a6.73,6.73,0,0,1-2.58,5.46c-.3.23-.6.45-.91.66s-.52.36-.78.56-.41.42-.22.84a6.45,6.45,0,0,0,.72,1.21,38.12,38.12,0,0,0,5.11,5.36A17.78,17.78,0,0,0,16.4,64c.5.3.65.35,1.13-.3.15-.2.3-.41.44-.62s.37-.54.57-.8a6.45,6.45,0,0,1,3.36-2.34,10.67,10.67,0,0,1,4.7-.21,22.55,22.55,0,0,1,7.6,2.41,6.9,6.9,0,0,1,3.74,4.47A15,15,0,0,1,38.28,69c.07.91.27.94.66,1a4,4,0,0,0,.62,0,21.31,21.31,0,0,0,4.89-.88c.8-.21,1.6-.44,2.39-.67l.36.93.2,1c-.81.24-1.62.48-2.44.69a23.06,23.06,0,0,1-5.31.95Z"></path>
      <path class="cls-1" d="M36.06,53.57a17.92,17.92,0,0,1-2-.11,17.63,17.63,0,0,1-15.5-15.63,17.2,17.2,0,0,1,.51-6.4,1,1,0,0,1,1.22-.71,1,1,0,0,1,.71,1.22,15.15,15.15,0,0,0-.46,5.66A15.61,15.61,0,0,0,34.36,51.47,15,15,0,0,0,40.09,51a1,1,0,0,1,1.23.71A1,1,0,0,1,40.61,53,17.64,17.64,0,0,1,36.06,53.57Z"></path>
    </g>
  </g>
</svg>
