<?xml version="1.0" encoding="UTF-8"?>
<svg xmlns="http://www.w3.org/2000/svg" viewBox="0 0 72.23 71.97">
  <defs>
    <style>.cls-1{fill:#02568a;}</style>
  </defs>
  <g id="Layer_2" data-name="Layer 2">
    <g id="Layer_1-2" data-name="Layer 1">
      <path class="cls-1" d="M58.09,72H14.3a14.14,14.14,0,0,1,0-28.28,12.29,12.29,0,0,1,1.49.09,20.62,20.62,0,0,1,40.81,0,12.29,12.29,0,0,1,1.49-.09h0a14.14,14.14,0,0,1,0,28.28ZM14.29,45.69A12.14,12.14,0,0,0,14.3,70H58.09a12.14,12.14,0,0,0,0-24.28,12.31,12.31,0,0,0-2.19.21l-1.07.19L54.73,45a18.62,18.62,0,0,0-37.07,0l-.1,1.08-1.07-.19A12.42,12.42,0,0,0,14.29,45.69Z"></path>
      <path class="cls-1" d="M36,28a1,1,0,0,1-1-1V2.27a1,1,0,0,1,2,0V27A1,1,0,0,1,36,28Z"></path>
      <path class="cls-1" d="M40.82,7.22a1,1,0,0,1-.71-.29L36,2.83l-4.1,4.1a1,1,0,0,1-1.41,0,1,1,0,0,1,0-1.42L36,0l5.51,5.51a1,1,0,0,1-.7,1.71Z"></path>
      <path class="cls-1" d="M48.24,31.68a1,1,0,0,1-1-1V20.87A11.54,11.54,0,0,1,58.76,9.35h9.81a1,1,0,0,1,0,2H58.76a9.53,9.53,0,0,0-9.52,9.52v9.81A1,1,0,0,1,48.24,31.68Z"></path>
      <path class="cls-1" d="M65.7,16.17a1,1,0,0,1-.7-.29,1,1,0,0,1,0-1.42l4.09-4.1L65,6.26a1,1,0,0,1,0-1.41,1,1,0,0,1,1.41,0l5.51,5.51-5.51,5.52A1,1,0,0,1,65.7,16.17Z"></path>
      <path class="cls-1" d="M23.68,32.51a1,1,0,0,1-1-1V20.87a9.53,9.53,0,0,0-9.51-9.52H3.35a1,1,0,1,1,0-2h9.82A11.53,11.53,0,0,1,24.68,20.87V31.51A1,1,0,0,1,23.68,32.51Z"></path>
      <path class="cls-1" d="M6.22,16.17a1,1,0,0,1-.71-.29L0,10.36,5.51,4.85a1,1,0,0,1,1.42,0,1,1,0,0,1,0,1.41l-4.1,4.1,4.1,4.1a1,1,0,0,1,0,1.42A1,1,0,0,1,6.22,16.17Z"></path>
    </g>
  </g>
</svg>
