<?xml version="1.0" encoding="UTF-8"?>
<svg xmlns="http://www.w3.org/2000/svg" viewBox="0 0 72.04 72.01">
  <defs>
    <style>.cls-1{fill:#02568a;}</style>
  </defs>
  <g id="Layer_2" data-name="Layer 2">
    <g id="Layer_1-2" data-name="Layer 1">
      <path class="cls-1" d="M36,72a3.74,3.74,0,0,1-2.66-1.1L1.1,38.66a3.77,3.77,0,0,1,0-5.32L33.37,1.07a3.85,3.85,0,0,1,5.33,0L70.94,33.32a3.76,3.76,0,0,1,0,5.32L38.67,70.91A3.73,3.73,0,0,1,36,72ZM36,2a1.75,1.75,0,0,0-1.24.52L2.52,34.75A1.73,1.73,0,0,0,2,36a1.71,1.71,0,0,0,.52,1.24L34.77,69.49a1.79,1.79,0,0,0,2.49,0L69.53,37.22a1.76,1.76,0,0,0,0-2.49L37.28,2.48A1.77,1.77,0,0,0,36,2Z"></path>
      <path class="cls-1" d="M35.93,26.6a4.81,4.81,0,1,1,4.8-4.81A4.82,4.82,0,0,1,35.93,26.6Zm0-7.61a2.81,2.81,0,1,0,2.8,2.8A2.81,2.81,0,0,0,35.93,19Z"></path>
      <path class="cls-1" d="M35.93,58a4.81,4.81,0,1,1,4.8-4.81A4.82,4.82,0,0,1,35.93,58Zm0-7.61a2.81,2.81,0,1,0,2.8,2.8A2.81,2.81,0,0,0,35.93,50.34Z"></path>
      <path class="cls-1" d="M50.48,41.85a4.8,4.8,0,1,1,4.8-4.8A4.81,4.81,0,0,1,50.48,41.85Zm0-7.6a2.8,2.8,0,1,0,2.8,2.8A2.8,2.8,0,0,0,50.48,34.25Z"></path>
      <path class="cls-1" d="M47.79,34.83a1,1,0,0,1-.71-.29l-9.06-9a1,1,0,0,1,1.42-1.42l9.05,9.06a1,1,0,0,1,0,1.41A1,1,0,0,1,47.79,34.83Z"></path>
      <path class="cls-1" d="M33.12,20.15a1,1,0,0,1-.71-.29l-8.13-8.12a1,1,0,0,1,0-1.41,1,1,0,0,1,1.42,0l8.13,8.13a1,1,0,0,1,0,1.41A1,1,0,0,1,33.12,20.15Z"></path>
      <path class="cls-1" d="M36.14,49.4a1,1,0,0,1-1-1V25.67a1,1,0,0,1,2,0V48.4A1,1,0,0,1,36.14,49.4Z"></path>
    </g>
  </g>
</svg>
