<?xml version="1.0" encoding="UTF-8"?>
<svg xmlns="http://www.w3.org/2000/svg" viewBox="0 0 24.77 23.79">
  <defs>
    <style>.cls-1{fill:#02568a;}</style>
  </defs>
  <title>Global Scale1x</title>
  <g id="Layer_2" data-name="Layer 2">
    <g id="Layer_1-2" data-name="Layer 1">
      <path class="cls-1" d="M23.14,5.85A1.45,1.45,0,0,0,23.2,4a1.43,1.43,0,0,0-1.83-.5l-.78-.73A1.43,1.43,0,0,0,20,1.09a1.44,1.44,0,0,0-1.86.12A12,12,0,0,0,7.6,1.26a.54.54,0,0,1-.22-.15,1.46,1.46,0,0,0-1.7-.05,1.44,1.44,0,0,0-.6,1.59.49.49,0,0,1,0,.32l-.21.2c-.28.28-.57.57-.83.86a.32.32,0,0,0,0,.51.36.36,0,0,0,.52,0l.18-.2a5.23,5.23,0,0,1,.88-.81,1.52,1.52,0,0,0,1.19.19,1.64,1.64,0,0,0,1-.74,14.84,14.84,0,0,1,3.72,1.62,1.63,1.63,0,0,0,.07,1.07A17.44,17.44,0,0,0,9.06,8.39a1.49,1.49,0,0,0-1,.1,1.76,1.76,0,0,0-.73.7,24.73,24.73,0,0,0-4.54.49,2.19,2.19,0,0,0-.56-.61A10.74,10.74,0,0,1,3.35,6.25a2.27,2.27,0,0,0,.19-.34.34.34,0,0,0-.15-.41.36.36,0,0,0-.43,0,1.24,1.24,0,0,0-.14.18A13.77,13.77,0,0,0,2,7.29a13.5,13.5,0,0,0-.54,1.59L1.14,9A1.47,1.47,0,0,0,.8,11.69c.1.05.22.06.28.17a12.17,12.17,0,0,0,4,9,1.39,1.39,0,0,0,.45,1.64,1.46,1.46,0,0,0,1.91,0,12,12,0,0,0,10.93,0,1.4,1.4,0,0,0,1.81.17,1.43,1.43,0,0,0,.57-1.84A12,12,0,0,0,23.14,5.85ZM6.47,3a.75.75,0,0,1-.72-.75.76.76,0,0,1,.74-.73.73.73,0,0,1,.74.77A.74.74,0,0,1,6.47,3ZM22.05,4.15a.72.72,0,0,1,.7.76.74.74,0,0,1-1.47,0A.72.72,0,0,1,22.05,4.15ZM19.2,1.53a.76.76,0,0,1,.75.73.72.72,0,0,1-.74.75.7.7,0,0,1-.72-.73A.74.74,0,0,1,19.2,1.53Zm1,1.91a5.07,5.07,0,0,1,.64.6,1.5,1.5,0,0,0,.48,2.13,21.57,21.57,0,0,1-2.2,5h-.64a17,17,0,0,0-4.22-5.58,1.75,1.75,0,0,0,.14-1.05A12.89,12.89,0,0,1,17.91,3,1.55,1.55,0,0,0,20.18,3.44Zm-.76,9.2a.74.74,0,0,1-.74.74.74.74,0,0,1,0-1.48A.74.74,0,0,1,19.42,12.64ZM8,2.23A.36.36,0,0,1,7.94,2a10.89,10.89,0,0,1,9.85-.07,1.46,1.46,0,0,1-.07.39A17.57,17.57,0,0,0,14,3.9a1.55,1.55,0,0,0-2.15,0A17.14,17.14,0,0,0,8,2.23ZM13.67,5a.75.75,0,0,1-.77.71.76.76,0,0,1-.7-.81A.72.72,0,0,1,13,4.21.71.71,0,0,1,13.67,5ZM12.11,6.17a1.54,1.54,0,0,0,1.66,0,16.07,16.07,0,0,1,4,5.29c-.12.2-.25.14-.41.07a19.1,19.1,0,0,0-2.12-.92,22.15,22.15,0,0,0-4.81-1.2L10,9.34a2.53,2.53,0,0,0-.34-.57A15.24,15.24,0,0,1,12.11,6.17ZM8.64,9.08a.72.72,0,0,1,.74.72.74.74,0,1,1-1.47,0A.72.72,0,0,1,8.64,9.08ZM.72,10.38a.75.75,0,0,1,.74-.74.74.74,0,0,1,0,1.48A.75.75,0,0,1,.72,10.38ZM5.55,20.2a11.8,11.8,0,0,1-3.69-8.37A1.58,1.58,0,0,0,3,10.39a34.2,34.2,0,0,1,4.19-.46,2.19,2.19,0,0,0,.43.91A16.83,16.83,0,0,0,5.92,20l-.18.12Zm1,1.9a.77.77,0,0,1-.77-.75.74.74,0,0,1,1.48,0A.76.76,0,0,1,6.52,22.1Zm.19-2.2a15,15,0,0,1,1.51-8.65,1.54,1.54,0,0,0,1.86-1.1,19,19,0,0,1,7.15,2.14,2.75,2.75,0,0,0,0,.64,3,3,0,0,0,.25.6,22,22,0,0,1-9.73,7A1.68,1.68,0,0,0,6.71,19.9Zm12.71,2.26a.74.74,0,0,1-.71-.76.7.7,0,0,1,.74-.71.73.73,0,0,1,.74.72A.77.77,0,0,1,19.42,22.16Zm.94-2A1.15,1.15,0,0,1,20,20a4.39,4.39,0,0,1,0-.81,9,9,0,0,0,0-1.16.35.35,0,0,0-.3-.39c-.23-.05-.41.09-.43.37s0,.57,0,.85a3.84,3.84,0,0,1-.09,1.06,1.65,1.65,0,0,0-1,.69,1.48,1.48,0,0,0-.2,1.14,10.84,10.84,0,0,1-10.11.06c0-.17,0-.36.07-.58A22.63,22.63,0,0,0,18,14c.15,0,.27.05.4.06l.34.07a15.08,15.08,0,0,1,.35,1.62,1.55,1.55,0,0,0,.05.23.34.34,0,0,0,.4.22.32.32,0,0,0,.28-.32,4,4,0,0,0-.06-.5c-.09-.49-.2-1-.31-1.49a.44.44,0,0,1,.22-.17A18.32,18.32,0,0,1,23,16.53,11,11,0,0,1,20.36,20.2Zm3-4.44A24.53,24.53,0,0,0,20.1,13.1a1.64,1.64,0,0,0-.39-1.5A23.56,23.56,0,0,0,22,6.38l.47-.1A10.93,10.93,0,0,1,23.34,15.76Z"></path>
    </g>
  </g>
</svg>
