<?xml version="1.0" encoding="UTF-8"?>
<svg xmlns="http://www.w3.org/2000/svg" viewBox="0 0 71.76 71.76">
  <defs>
    <style>.cls-1{fill:#02568a;}</style>
  </defs>
  <g id="Layer_2" data-name="Layer 2">
    <g id="Layer_1-2" data-name="Layer 1">
      <path class="cls-1" d="M9.72,36.88H8.93a1,1,0,0,1,0-2h.79a1,1,0,0,1,0,2Z"></path>
      <path class="cls-1" d="M62.83,36.88H62a1,1,0,0,1,0-2h.79a1,1,0,0,1,0,2Z"></path>
      <path class="cls-1" d="M13.22,23.8a1,1,0,0,1-.5-.13l-.68-.4a1,1,0,0,1-.37-1.37A1,1,0,0,1,13,21.54l.68.39a1,1,0,0,1-.5,1.87Z"></path>
      <path class="cls-1" d="M22.8,14.22a1,1,0,0,1-.87-.5L21.54,13a1,1,0,1,1,1.73-1l.4.68a1,1,0,0,1-.87,1.5Z"></path>
      <path class="cls-1" d="M58.54,23.8a1,1,0,0,1-.87-.5A1,1,0,0,1,58,21.93l.69-.39a1,1,0,0,1,1.37.36,1,1,0,0,1-.37,1.37l-.69.4A1,1,0,0,1,58.54,23.8Z"></path>
      <path class="cls-1" d="M49,14.22a1,1,0,0,1-.87-1.5l.4-.68a1,1,0,1,1,1.73,1l-.39.68A1,1,0,0,1,49,14.22Z"></path>
      <path class="cls-1" d="M35.88,10.72a1,1,0,0,1-1-1V8.93a1,1,0,0,1,2,0v.79A1,1,0,0,1,35.88,10.72Z"></path>
      <path class="cls-1" d="M37.14,40.05a1.09,1.09,0,0,1-.26,0,1,1,0,0,1-.71-1.23l5.08-19a1,1,0,0,1,1.94.52l-5.09,19A1,1,0,0,1,37.14,40.05Z"></path>
      <path class="cls-1" d="M35.88,71.76A35.88,35.88,0,1,1,71.76,35.88,35.92,35.92,0,0,1,35.88,71.76ZM35.88,2A33.88,33.88,0,1,0,69.76,35.88,33.92,33.92,0,0,0,35.88,2Z"></path>
      <path class="cls-1" d="M68.38,46.39H50.15a1,1,0,1,1,0-2H68.38a1,1,0,0,1,0,2Z"></path>
      <path class="cls-1" d="M21.61,46.39h-19a1,1,0,1,1,0-2h19a1,1,0,0,1,0,2Z"></path>
      <path class="cls-1" d="M35.88,52.73a7.34,7.34,0,1,1,7.34-7.34A7.34,7.34,0,0,1,35.88,52.73Zm0-12.68a5.34,5.34,0,1,0,5.34,5.34A5.35,5.35,0,0,0,35.88,40.05Z"></path>
    </g>
  </g>
</svg>
