<?xml version="1.0" encoding="UTF-8"?>
<svg xmlns="http://www.w3.org/2000/svg" xmlns:xlink="http://www.w3.org/1999/xlink" width="35" height="35" viewBox="0 0 35 35">
  <defs>
    <clipPath id="clip-path">
      <rect id="Rectangle_117" data-name="Rectangle 117" width="35" height="35" transform="translate(2568 6608)" fill="#fff"></rect>
    </clipPath>
  </defs>
  <g id="in" transform="translate(-2568 -6608)" clip-path="url(#clip-path)">
    <path id="Icon_awesome-instagram" data-name="Icon awesome-instagram" d="M15.5,9.788a7.946,7.946,0,1,0,7.946,7.946A7.934,7.934,0,0,0,15.5,9.788Zm0,13.112a5.166,5.166,0,1,1,5.166-5.166A5.175,5.175,0,0,1,15.5,22.9ZM25.623,9.463A1.853,1.853,0,1,1,23.769,7.61,1.849,1.849,0,0,1,25.623,9.463Zm5.263,1.881a9.172,9.172,0,0,0-2.5-6.494,9.232,9.232,0,0,0-6.494-2.5C19.33,2.2,11.66,2.2,9.1,2.347a9.219,9.219,0,0,0-6.494,2.5A9.2,9.2,0,0,0,.1,11.337C-.042,13.9-.042,21.566.1,24.124a9.172,9.172,0,0,0,2.5,6.494,9.244,9.244,0,0,0,6.494,2.5c2.559.145,10.228.145,12.787,0a9.172,9.172,0,0,0,6.494-2.5,9.232,9.232,0,0,0,2.5-6.494c.145-2.559.145-10.221,0-12.78ZM27.58,26.87a5.23,5.23,0,0,1-2.946,2.946c-2.04.809-6.881.622-9.136.622s-7.1.18-9.136-.622A5.23,5.23,0,0,1,3.416,26.87c-.809-2.04-.622-6.881-.622-9.136s-.18-7.1.622-9.136A5.23,5.23,0,0,1,6.362,5.652C8.4,4.843,13.244,5.03,15.5,5.03s7.1-.18,9.136.622A5.23,5.23,0,0,1,27.58,8.6c.809,2.04.622,6.881.622,9.136S28.389,24.837,27.58,26.87Z" transform="translate(2570.005 6607.762)" fill="#fff"></path>
  </g>
</svg>
