<?xml version="1.0" encoding="UTF-8"?>
<svg xmlns="http://www.w3.org/2000/svg" viewBox="0 0 72.15 72">
  <defs>
    <style>.cls-1{fill:#02568a;}</style>
  </defs>
  <g id="Layer_2" data-name="Layer 2">
    <g id="Layer_1-2" data-name="Layer 1">
      <path class="cls-1" d="M52.14,60H19.92a7.9,7.9,0,0,1-7.9-7.9V19.88a7.9,7.9,0,0,1,7.9-7.9H52.14a7.91,7.91,0,0,1,7.91,7.9V52.11A7.91,7.91,0,0,1,52.14,60ZM19.92,14a5.91,5.91,0,0,0-5.9,5.9V52.11a5.91,5.91,0,0,0,5.9,5.9H52.14a5.91,5.91,0,0,0,5.91-5.9V19.88A5.91,5.91,0,0,0,52.14,14Z"></path>
      <path class="cls-1" d="M42.94,53.11H29.13a3.3,3.3,0,0,1-3.3-3.3V47.5a1.31,1.31,0,0,0-1.31-1.3h-2.3a3.3,3.3,0,0,1-3.3-3.3V29.09a3.3,3.3,0,0,1,3.3-3.3h2.3a1.31,1.31,0,0,0,1.31-1.3V22.18a3.3,3.3,0,0,1,3.3-3.3H42.94a3.3,3.3,0,0,1,3.3,3.3v2.31a1.3,1.3,0,0,0,1.3,1.3h2.3a3.3,3.3,0,0,1,3.3,3.3V42.9a3.3,3.3,0,0,1-3.3,3.3h-2.3a1.3,1.3,0,0,0-1.3,1.3v2.31A3.3,3.3,0,0,1,42.94,53.11ZM22.22,27.79a1.3,1.3,0,0,0-1.3,1.3V42.9a1.3,1.3,0,0,0,1.3,1.3h2.3a3.31,3.31,0,0,1,3.31,3.3v2.31a1.3,1.3,0,0,0,1.3,1.3H42.94a1.3,1.3,0,0,0,1.3-1.3V47.5a3.3,3.3,0,0,1,3.3-3.3h2.3a1.3,1.3,0,0,0,1.3-1.3V29.09a1.3,1.3,0,0,0-1.3-1.3h-2.3a3.3,3.3,0,0,1-3.3-3.3V22.18a1.3,1.3,0,0,0-1.3-1.3H29.13a1.3,1.3,0,0,0-1.3,1.3v2.31a3.31,3.31,0,0,1-3.31,3.3Z"></path>
      <path class="cls-1" d="M36.23,13.52a1,1,0,0,1-1-1V1a1,1,0,0,1,2,0V12.52A1,1,0,0,1,36.23,13.52Z"></path>
      <path class="cls-1" d="M28,13.52a1,1,0,0,1-1-1V1a1,1,0,0,1,2,0V12.52A1,1,0,0,1,28,13.52Z"></path>
      <path class="cls-1" d="M44.49,13.52a1,1,0,0,1-1-1V1a1,1,0,0,1,2,0V12.52A1,1,0,0,1,44.49,13.52Z"></path>
      <path class="cls-1" d="M36.23,72a1,1,0,0,1-1-1V59.48a1,1,0,0,1,2,0V71A1,1,0,0,1,36.23,72Z"></path>
      <path class="cls-1" d="M28,72a1,1,0,0,1-1-1V59.48a1,1,0,1,1,2,0V71A1,1,0,0,1,28,72Z"></path>
      <path class="cls-1" d="M44.49,72a1,1,0,0,1-1-1V59.48a1,1,0,0,1,2,0V71A1,1,0,0,1,44.49,72Z"></path>
      <path class="cls-1" d="M12.52,37H1a1,1,0,0,1,0-2H12.52a1,1,0,1,1,0,2Z"></path>
      <path class="cls-1" d="M12.52,28.71H1a1,1,0,0,1,0-2H12.52a1,1,0,1,1,0,2Z"></path>
      <path class="cls-1" d="M12.52,45.24H1a1,1,0,0,1,0-2H12.52a1,1,0,1,1,0,2Z"></path>
      <path class="cls-1" d="M71.15,37H59.63a1,1,0,0,1,0-2H71.15a1,1,0,0,1,0,2Z"></path>
      <path class="cls-1" d="M71.15,28.71H59.63a1,1,0,0,1,0-2H71.15a1,1,0,0,1,0,2Z"></path>
      <path class="cls-1" d="M71.15,45.24H59.63a1,1,0,0,1,0-2H71.15a1,1,0,0,1,0,2Z"></path>
    </g>
  </g>
</svg>
