<?xml version="1.0" encoding="UTF-8"?>
<svg xmlns="http://www.w3.org/2000/svg" viewBox="0 0 71.72 71.72">
  <defs>
    <style>.cls-1{fill:#02568a;}</style>
  </defs>
  <g id="Layer_2" data-name="Layer 2">
    <g id="Layer_1-2" data-name="Layer 1">
      <path class="cls-1" d="M35.86,71.72A35.86,35.86,0,1,1,71.72,35.86,35.9,35.9,0,0,1,35.86,71.72ZM35.86,2A33.86,33.86,0,1,0,69.72,35.86,33.9,33.9,0,0,0,35.86,2Z"></path>
      <path class="cls-1" d="M17.9,24.09a6.54,6.54,0,0,1-4.63-1.92l-6.1-6.1a1,1,0,0,1,1.41-1.41l6.11,6.1a4.56,4.56,0,0,0,6.43,0L29,12.84a1,1,0,0,1,1.41,1.41l-7.91,7.92A6.54,6.54,0,0,1,17.9,24.09Z"></path>
      <path class="cls-1" d="M32.2,15.27a5,5,0,1,1,5-5A5.05,5.05,0,0,1,32.2,15.27Zm0-8.08a3,3,0,1,0,3,3A3,3,0,0,0,32.2,7.19Z"></path>
      <path class="cls-1" d="M16.67,40.27A6.55,6.55,0,0,1,12,38.36L1.52,27.84a1,1,0,1,1,1.42-1.41L13.45,36.94a4.55,4.55,0,0,0,6.44,0L27.81,29a1,1,0,0,1,1.41,0,1,1,0,0,1,0,1.42L21.3,38.36A6.53,6.53,0,0,1,16.67,40.27Z"></path>
      <path class="cls-1" d="M31,31.45a5,5,0,1,1,5-5A5,5,0,0,1,31,31.45Zm0-8.08a3,3,0,1,0,3,3A3,3,0,0,0,31,23.37Z"></path>
      <path class="cls-1" d="M41.6,58.55a1,1,0,0,1-.71-.29,1,1,0,0,1,0-1.41l7.92-7.92a6.54,6.54,0,0,1,9.26,0l6.1,6.1a1,1,0,0,1,0,1.42,1,1,0,0,1-1.41,0l-6.1-6.11a4.56,4.56,0,0,0-6.44,0L42.3,58.26A1,1,0,0,1,41.6,58.55Z"></path>
      <path class="cls-1" d="M39.15,65.91a5,5,0,1,1,5-5A5,5,0,0,1,39.15,65.91Zm0-8.08a3,3,0,1,0,3,3A3,3,0,0,0,39.15,57.83Z"></path>
      <path class="cls-1" d="M69.11,45a1,1,0,0,1-.7-.29L57.89,34.16a4.55,4.55,0,0,0-6.43,0l-7.92,7.92a1,1,0,0,1-1.42-1.42L50,32.75a6.54,6.54,0,0,1,9.26,0L69.82,43.26a1,1,0,0,1,0,1.42A1,1,0,0,1,69.11,45Z"></path>
      <path class="cls-1" d="M40.38,49.73a5,5,0,1,1,5-5A5,5,0,0,1,40.38,49.73Zm0-8.08a3,3,0,1,0,3,3A3,3,0,0,0,40.38,41.65Z"></path>
    </g>
  </g>
</svg>
