<?xml version="1.0" encoding="UTF-8"?>
<svg xmlns="http://www.w3.org/2000/svg" xmlns:xlink="http://www.w3.org/1999/xlink" width="480" height="250" viewBox="0 0 480 250">
  <defs>
    <clipPath id="clip-path">
      <rect id="Rectangle_538" data-name="Rectangle 538" width="480" height="250" transform="translate(0.468)" fill="#fff"></rect>
    </clipPath>
  </defs>
  <g id="kubernetes" transform="translate(-0.468)" clip-path="url(#clip-path)">
    <g id="Layer_2" data-name="Layer 2" transform="translate(128.266 15)">
      <g id="Layer_1" data-name="Layer 1">
        <path id="Path_9305" data-name="Path 9305" d="M113.189,220H70.548a16.979,16.979,0,0,1-13.771-6.536q-22.509-27.971-44.963-56C9.129,154.112,6.445,150.757,3.7,147.4.163,143.16-.669,138.288.505,133.046,4.908,113.652,9.4,94.277,13.82,74.889c2.054-8.986,3.959-18,6.04-26.971.953-4.027,3.651-6.825,7.268-8.677,3.463-1.778,6.993-3.409,10.489-5.107,22.3-10.8,44.581-21.656,66.935-32.36a16.522,16.522,0,0,1,14.375-.242c9.811,4.51,19.455,9.308,29.152,13.992L196.2,38.784a25.052,25.052,0,0,1,6.214,4.208c2.684,2.517,3.745,5.771,4.53,9.214q5.456,24,10.966,47.99c2.53,11.033,5.114,22.052,7.57,33.1a16.348,16.348,0,0,1-3.3,14.174c-3.953,5.04-8.013,10-12.026,15l-37.011,46.138c-1.342,1.711-2.892,3.315-4.121,5.12-3.074,4.523-7.429,6.281-12.711,6.275Q134.758,219.98,113.189,220Z" transform="translate(-0.006 -0.005)"></path>
        <path id="Path_9306" data-name="Path 9306" d="M79.83,86.56a62.412,62.412,0,0,1,40.38-19.267,5.953,5.953,0,0,1,1.235-3.309c1.342-1.624.718-3.718.671-5.644-.141-3.564-1.389-6.986-1.289-10.583a4.98,4.98,0,0,1,1.913-4.027,4.4,4.4,0,0,1,4.745-.886,4.792,4.792,0,0,1,3.154,3.98,15.434,15.434,0,0,1-.2,5.087,48.2,48.2,0,0,0-.872,9.912,3.249,3.249,0,0,0,.987,2.866c.933.725.389,1.7.94,2.684,15.435,1.765,28.918,7.966,39.91,19.462,1.342-.57,2.577-1.376,4.027-1a45.944,45.944,0,0,0,8.362-7.436q1.168-1.235,2.362-2.456a6.08,6.08,0,0,1,2.443-1.57c1.866-.6,3.745-.6,5.214.906a4.7,4.7,0,0,1,1.06,5.134,8.171,8.171,0,0,1-4.087,4.322,82.806,82.806,0,0,0-7.664,4.7c-1.577,1.121-3.282,2.107-3.449,4.416-.047.6-.825,1.134-1.416,1.9a65.853,65.853,0,0,1,10.066,43.776,4.767,4.767,0,0,1,2.819,1.98,3.437,3.437,0,0,0,2.537,1.282,50.831,50.831,0,0,0,8.416,1.127,25.863,25.863,0,0,1,5.261.819,5.369,5.369,0,0,1,2.886,1.691c1.007,1.148,2.161,2.4,1.476,4.1a4.805,4.805,0,0,1-4.027,3.087,11.066,11.066,0,0,1-5.885-1.188,56.764,56.764,0,0,0-8.724-2.986,4.6,4.6,0,0,0-3.98.262c-.8.55-1.564.04-2.55.141-5.094,14.945-14.227,26.844-27.8,35.239.168,1.248.6,2.362.168,3.61-.362,1.027.3,2.054.765,2.986a52.836,52.836,0,0,0,4.832,7.865,14.247,14.247,0,0,1,2.275,3.986,4.962,4.962,0,0,1-2.356,6.221,5.027,5.027,0,0,1-6.228-1.772,12.49,12.49,0,0,1-1.879-3.912,61.662,61.662,0,0,0-3.463-9.295,4.223,4.223,0,0,0-2.369-2.637c-.966-.309-1.107-1.342-1.9-2.013a68.439,68.439,0,0,1-22.274,3.959,66.4,66.4,0,0,1-22.18-4.08c-.966,1.074-1.684,2.342-3.121,2.9-.738.3-1,1.242-1.342,1.96a52.3,52.3,0,0,0-3.221,8.624,14.623,14.623,0,0,1-2.013,4.4,4.9,4.9,0,0,1-8.61-4.657,20.932,20.932,0,0,1,2.564-4.121,61.067,61.067,0,0,0,4.577-7.738,3.515,3.515,0,0,0,.577-2.785,3.946,3.946,0,0,1,.5-3.53c-13.664-8.194-22.8-20.005-28-34.917-1.342,0-2.53.161-3.631-.6a3.174,3.174,0,0,0-2.6-.06,51.634,51.634,0,0,0-8.724,2.879,23.408,23.408,0,0,1-4.127,1.416c-2.946.631-5.738-.758-6.443-3.3a5.113,5.113,0,0,1,3.584-6.094,20.556,20.556,0,0,1,6.214-.973,51.757,51.757,0,0,0,7.919-1.06,3.557,3.557,0,0,0,2.49-1.382,4.449,4.449,0,0,1,2.832-1.805A64.019,64.019,0,0,1,73.246,95.4c-.671-1.168-1.731-2.013-1.7-3.463,0-.919-.96-1.463-1.678-2.013a60.853,60.853,0,0,0-7.785-4.959,23.327,23.327,0,0,1-3.463-2.241,5.369,5.369,0,0,1-2.174-4.174,4.624,4.624,0,0,1,6.4-4.651,10.917,10.917,0,0,1,3.845,2.913c2.362,2.335,4.409,4.986,7.02,7.087,1.208.966,2.3,2.1,4.027,1.8C78.561,85.6,79.038,86.452,79.83,86.56Z" transform="translate(-13.275 -13.977)" fill="#fefefe"></path>
        <path id="Path_9307" data-name="Path 9307" d="M202.88,223.315c-3.288-7.926-6.53-15.677-9.711-23.448a4.1,4.1,0,0,1,.53-4.563,4.537,4.537,0,0,1,4.563-1.544c7.382,1.3,14.811,2.5,22.22,3.758.792.134,1.564.349,2.342.53C221.919,204.739,212.114,218.362,202.88,223.315Z" transform="translate(-63.39 -63.691)"></path>
        <path id="Path_9308" data-name="Path 9308" d="M115.14,113.221A49.292,49.292,0,0,1,143.756,99.39c.416,1.792-.107,3.456-.195,5.141-.356,6.711-.731,13.422-1.047,20.133a4.7,4.7,0,0,1-2.443,4.2c-1.7.946-3.235.463-4.745-.624-6.429-4.664-12.9-9.288-19.348-13.925a1.778,1.778,0,0,1-.839-1.094Z" transform="translate(-37.874 -32.693)"></path>
        <path id="Path_9309" data-name="Path 9309" d="M92.121,166.4a52.688,52.688,0,0,1,7.114-30.823c.966-.1,1.288.557,1.738.96,5.731,5.134,11.409,10.295,17.187,15.435a4.424,4.424,0,0,1,1.738,4.449,4.244,4.244,0,0,1-3.355,3.4q-11.509,3.355-22.985,6.711A1.617,1.617,0,0,1,92.121,166.4Z" transform="translate(-30.25 -44.591)"></path>
        <path id="Path_9310" data-name="Path 9310" d="M205.626,113.9l-14.838,10.583c-1.98,1.409-3.926,2.879-5.966,4.208a3.934,3.934,0,0,1-5.476-.638,3.543,3.543,0,0,1-1.007-2.4c-.268-4.7-.711-9.4-.825-14.093-.087-3.8-.752-7.577-.51-11.409C185.312,99.613,200.1,107.048,205.626,113.9Z" transform="translate(-58.204 -32.936)"></path>
        <path id="Path_9311" data-name="Path 9311" d="M116.951,223.54c-8.509-5.006-17.6-16.415-19.851-25.233,2.832-.53,5.657-1.094,8.489-1.577,5.261-.893,10.523-1.738,15.784-2.6,4.107-.671,6.6,2.255,5.107,6.161-1.678,4.376-3.53,8.684-5.315,13.019C119.783,216.675,118.394,220.031,116.951,223.54Z" transform="translate(-31.941 -63.822)"></path>
        <path id="Path_9312" data-name="Path 9312" d="M228.469,166.8c-5.047-1.456-9.926-2.845-14.8-4.261-2.946-.852-5.886-1.731-8.825-2.6a11.464,11.464,0,0,1-1.154-.356c-3.074-1.342-3.832-4.852-1.342-7.107,6.208-5.691,12.509-11.281,18.791-16.9.047-.04.148,0,.221-.034C226.194,142.113,229.912,155.978,228.469,166.8Z" transform="translate(-66.068 -44.579)"></path>
        <path id="Path_9313" data-name="Path 9313" d="M175.187,234.3a50.393,50.393,0,0,1-31.877-.074c2.235-4.094,4.362-7.993,6.5-11.878q2.564-4.7,5.147-9.355a11.774,11.774,0,0,1,.98-1.664,3.932,3.932,0,0,1,6.308-.362,7.235,7.235,0,0,1,1.174,1.537q5.8,10.509,11.563,21.046A4.744,4.744,0,0,1,175.187,234.3Z" transform="translate(-47.139 -68.927)"></path>
        <path id="Path_9314" data-name="Path 9314" d="M159.233,162.53h7.738l4.785,6.114c-.517,2.53-1.007,4.892-1.55,7.55-2.241,1.08-4.617,2.235-7.067,3.429l-7.087-3.416q-.886-3.785-1.752-7.51a76.051,76.051,0,0,1,4.933-6.167Z" transform="translate(-50.754 -53.46)"></path>
      </g>
    </g>
  </g>
</svg>
