<?xml version="1.0" encoding="UTF-8"?>
<svg xmlns="http://www.w3.org/2000/svg" viewBox="0 0 72.13 71.91">
  <defs>
    <style>.cls-1{fill:#02568a;}</style>
  </defs>
  <g id="Layer_2" data-name="Layer 2">
    <g id="Layer_1-2" data-name="Layer 1">
      <path class="cls-1" d="M36,56.69A20.73,20.73,0,1,1,56.77,36,20.75,20.75,0,0,1,36,56.69Zm0-39.46A18.73,18.73,0,1,0,54.77,36,18.75,18.75,0,0,0,36,17.23Z"></path>
      <path class="cls-1" d="M63,18.22a9.11,9.11,0,1,1,9.11-9.11A9.12,9.12,0,0,1,63,18.22ZM63,2a7.11,7.11,0,1,0,7.11,7.11A7.12,7.12,0,0,0,63,2Z"></path>
      <path class="cls-1" d="M50.39,22.82a1,1,0,0,1-.71-1.71l6.73-6.73a1,1,0,0,1,1.41,1.41l-6.73,6.73A1,1,0,0,1,50.39,22.82Z"></path>
      <path class="cls-1" d="M9.11,18.22a9.11,9.11,0,1,1,9.11-9.11A9.12,9.12,0,0,1,9.11,18.22ZM9.11,2a7.11,7.11,0,1,0,7.11,7.11A7.12,7.12,0,0,0,9.11,2Z"></path>
      <path class="cls-1" d="M21.74,22.82a1,1,0,0,1-.7-.3l-6.73-6.73a1,1,0,0,1,1.41-1.41l6.73,6.73a1,1,0,0,1-.71,1.71Z"></path>
      <path class="cls-1" d="M9.11,71.91a9.11,9.11,0,1,1,9.11-9.11A9.12,9.12,0,0,1,9.11,71.91Zm0-16.22a7.11,7.11,0,1,0,7.11,7.11A7.12,7.12,0,0,0,9.11,55.69Z"></path>
      <path class="cls-1" d="M15,57.82a1,1,0,0,1-.7-1.71L21,49.38a1,1,0,0,1,1.41,0,1,1,0,0,1,0,1.42l-6.73,6.73A1,1,0,0,1,15,57.82Z"></path>
      <path class="cls-1" d="M63,71.91a9.11,9.11,0,1,1,9.11-9.11A9.12,9.12,0,0,1,63,71.91Zm0-16.22a7.11,7.11,0,1,0,7.11,7.11A7.12,7.12,0,0,0,63,55.69Z"></path>
      <path class="cls-1" d="M57.12,57.82a1,1,0,0,1-.71-.29L49.68,50.8a1,1,0,0,1,0-1.42,1,1,0,0,1,1.41,0l6.73,6.73a1,1,0,0,1-.7,1.71Z"></path>
      <path class="cls-1" d="M24.8,52.88a1,1,0,0,1-1-.87,11.72,11.72,0,0,1-.1-1.57,12.41,12.41,0,1,1,24.74,1.37,1,1,0,1,1-2-.22,10.93,10.93,0,0,0,.06-1.15,10.41,10.41,0,1,0-20.81,0,11.55,11.55,0,0,0,.08,1.32,1,1,0,0,1-.87,1.12Z"></path>
      <path class="cls-1" d="M36,40a7.76,7.76,0,1,1,7.75-7.75A7.77,7.77,0,0,1,36,40ZM36,26.5a5.76,5.76,0,1,0,5.75,5.76A5.76,5.76,0,0,0,36,26.5Z"></path>
    </g>
  </g>
</svg>
