<?xml version="1.0" encoding="UTF-8"?>
<svg xmlns="http://www.w3.org/2000/svg" viewBox="0 0 71.71 71.98">
  <defs>
    <style>.cls-1{fill:#02568a;}</style>
  </defs>
  <g id="Layer_2" data-name="Layer 2">
    <g id="Layer_1-2" data-name="Layer 1">
      <path class="cls-1" d="M57.45,57.86a5.17,5.17,0,0,1-2.55-.67,6,6,0,0,1-2.65-3.34,16.08,16.08,0,0,1-1-4.21h0a6.38,6.38,0,0,1,1.66-4.89A6.07,6.07,0,0,1,57.54,43a5.92,5.92,0,0,1,4.51,1.78,6.43,6.43,0,0,1,1.63,4.89,14.85,14.85,0,0,1-1,4.21,6.07,6.07,0,0,1-2.62,3.33A5.31,5.31,0,0,1,57.45,57.86ZM53.24,49.5a13.82,13.82,0,0,0,.89,3.66,4.06,4.06,0,0,0,1.73,2.28,3.36,3.36,0,0,0,3.2,0,4.1,4.1,0,0,0,1.73-2.28,13.27,13.27,0,0,0,.9-3.66,4.45,4.45,0,0,0-1.09-3.38A4,4,0,0,0,57.54,45a4,4,0,0,0-3.19,1.16A4.44,4.44,0,0,0,53.24,49.5Z"></path>
      <path class="cls-1" d="M69.18,72H45.68a2.52,2.52,0,0,1-2-.91A2.55,2.55,0,0,1,43.19,69l.63-3.3a6.56,6.56,0,0,1,3.94-4.82c2-.83,4.81-2,4.82-2l1.21-.54,1,.75.24.15.16.12a4.32,4.32,0,0,0,4.82-.2l1.08-.79,1.22.54h0s2.79,1.22,4.81,2a6.37,6.37,0,0,1,3.94,4.83h0L71.67,69a2.5,2.5,0,0,1-.55,2.08A2.54,2.54,0,0,1,69.18,72ZM53.55,60.57l-.17.07s-2.82,1.23-4.86,2.07a4.55,4.55,0,0,0-2.73,3.35l-.63,3.29a.52.52,0,0,0,.11.44.53.53,0,0,0,.41.19h23.5a.53.53,0,0,0,.41-.19.51.51,0,0,0,.11-.43l-.59-3.28a4.46,4.46,0,0,0-2.72-3.34c-2-.84-4.86-2.07-4.86-2.07l-.18-.07-.14.1h0a6.28,6.28,0,0,1-7,.3l-.2-.13h0Z"></path>
      <path class="cls-1" d="M14.3,57.86a5.17,5.17,0,0,1-2.55-.67,6,6,0,0,1-2.64-3.34,15.67,15.67,0,0,1-1-4.2h0a6.41,6.41,0,0,1,1.66-4.89A6.1,6.1,0,0,1,14.39,43a5.92,5.92,0,0,1,4.51,1.78,6.43,6.43,0,0,1,1.63,4.89,14.85,14.85,0,0,1-1,4.21,6.07,6.07,0,0,1-2.62,3.33A5.31,5.31,0,0,1,14.3,57.86ZM10.09,49.5A14,14,0,0,0,11,53.16a4.06,4.06,0,0,0,1.73,2.28,3.36,3.36,0,0,0,3.2,0,4.1,4.1,0,0,0,1.73-2.28,13.18,13.18,0,0,0,.9-3.66,4.45,4.45,0,0,0-1.09-3.38A4,4,0,0,0,14.39,45a4,4,0,0,0-3.19,1.16A4.44,4.44,0,0,0,10.09,49.5Z"></path>
      <path class="cls-1" d="M26,72H2.53A2.51,2.51,0,0,1,.05,69l.62-3.3a6.56,6.56,0,0,1,3.94-4.82c2-.83,4.81-2,4.82-2l1.21-.54,1,.75a1.7,1.7,0,0,1,.22.15l.17.12a4.3,4.3,0,0,0,4.82-.21h0c.14-.12.34-.26.6-.45L18,58.3l1.22.54s2.79,1.22,4.81,2a6.37,6.37,0,0,1,3.94,4.83h0L28.52,69A2.49,2.49,0,0,1,28,71.07,2.53,2.53,0,0,1,26,72ZM10.4,60.57l-.17.07s-2.82,1.23-4.86,2.07a4.55,4.55,0,0,0-2.73,3.35L2,69.35a.52.52,0,0,0,.11.44.53.53,0,0,0,.41.19H26a.53.53,0,0,0,.41-.19.51.51,0,0,0,.11-.43L26,66.08a4.46,4.46,0,0,0-2.72-3.34c-2-.84-4.86-2.07-4.86-2.07l-.18-.07-.14.1a6.28,6.28,0,0,1-7,.3l-.2-.13h0Zm8.78-1.73h0Z"></path>
      <path class="cls-1" d="M36,14.89a5.23,5.23,0,0,1-2.56-.67,5.92,5.92,0,0,1-2.64-3.34,16.06,16.06,0,0,1-1-4.2h0a6.45,6.45,0,0,1,1.66-4.89A6,6,0,0,1,36.1,0a5.91,5.91,0,0,1,4.51,1.77,6.4,6.4,0,0,1,1.64,4.89,14.85,14.85,0,0,1-1,4.21,6.07,6.07,0,0,1-2.62,3.33A5.2,5.2,0,0,1,36,14.89ZM31.81,6.53a14,14,0,0,0,.89,3.66,4.06,4.06,0,0,0,1.73,2.28,3.34,3.34,0,0,0,3.19,0,4.07,4.07,0,0,0,1.74-2.28,12.82,12.82,0,0,0,.89-3.66,4.4,4.4,0,0,0-1.08-3.37A4,4,0,0,0,36.11,2a4,4,0,0,0-3.19,1.17A4.36,4.36,0,0,0,31.81,6.53Z"></path>
      <path class="cls-1" d="M47.75,29H24.25a2.53,2.53,0,0,1-2.49-3l.63-3.3a6.57,6.57,0,0,1,3.93-4.82c2-.83,4.82-2.05,4.82-2.05l1.22-.54,1,.75c.08,0,.15.1.23.15l.17.12a4.32,4.32,0,0,0,4.82-.2h0l.61-.45.46-.34,1.22.54h0s2.8,1.22,4.82,2.05a6.39,6.39,0,0,1,3.94,4.83h0L50.24,26a2.52,2.52,0,0,1-2.49,3ZM32.11,17.6l-.16.07s-2.83,1.23-4.86,2.07a4.56,4.56,0,0,0-2.74,3.35l-.62,3.29a.49.49,0,0,0,.11.44.53.53,0,0,0,.41.19h23.5a.5.5,0,0,0,.41-.19.51.51,0,0,0,.11-.43l-.59-3.28A4.48,4.48,0,0,0,45,19.77c-2.05-.84-4.87-2.07-4.87-2.07l-.17-.07-.15.1a6.27,6.27,0,0,1-7,.3l-.2-.13h0Z"></path>
      <path class="cls-1" d="M36,45.17a1,1,0,0,1-1-1V36a1,1,0,0,1,2,0v8.2A1,1,0,0,1,36,45.17Z"></path>
      <path class="cls-1" d="M30.21,50.87a1,1,0,0,1-.71-.29,1,1,0,0,1,0-1.42l5.8-5.79a1,1,0,0,1,1.41,1.41l-5.8,5.8A1,1,0,0,1,30.21,50.87Z"></path>
      <path class="cls-1" d="M41.91,50.87a1,1,0,0,1-.71-.29l-5.8-5.8a1,1,0,0,1,0-1.41,1,1,0,0,1,1.42,0l5.79,5.79a1,1,0,0,1-.7,1.71Z"></path>
    </g>
  </g>
</svg>
