<?xml version="1.0" encoding="UTF-8"?>
<svg xmlns="http://www.w3.org/2000/svg" viewBox="0 0 72.02 71.96">
  <defs>
    <style>.cls-1{fill:#02568a;}</style>
  </defs>
  <g id="Layer_2" data-name="Layer 2">
    <g id="Layer_1-2" data-name="Layer 1">
      <path class="cls-1" d="M56.79,47H3.66A3.66,3.66,0,0,1,0,43.3V3.65A3.66,3.66,0,0,1,3.66,0H33.18a3.66,3.66,0,0,1,3.65,3.65V14.82a1,1,0,0,1-2,0V3.65A1.65,1.65,0,0,0,33.18,2H3.66A1.65,1.65,0,0,0,2,3.65V43.3A1.66,1.66,0,0,0,3.66,45H56.79a1,1,0,0,1,0,2Z"></path>
      <path class="cls-1" d="M50.92,53.72a1,1,0,0,1-.71-.3,1,1,0,0,1,0-1.41l5.43-5.43a.89.89,0,0,0,0-1.28l-5.43-5.43a1,1,0,0,1,0-1.41,1,1,0,0,1,1.42,0l5.43,5.43a2.9,2.9,0,0,1,0,4.1l-5.43,5.43A1,1,0,0,1,50.92,53.72Z"></path>
      <path class="cls-1" d="M68.36,72H38.84a3.66,3.66,0,0,1-3.65-3.66V57.14a1,1,0,0,1,2,0V68.3A1.65,1.65,0,0,0,38.84,70H68.36A1.66,1.66,0,0,0,70,68.3V28.66A1.66,1.66,0,0,0,68.36,27H15.23a1,1,0,0,1,0-2H68.36A3.66,3.66,0,0,1,72,28.66V68.3A3.66,3.66,0,0,1,68.36,72Z"></path>
      <path class="cls-1" d="M21.1,33.8a1,1,0,0,1-.71-.3L15,28.07A2.9,2.9,0,0,1,15,24l5.43-5.43a1,1,0,0,1,1.42,0,1,1,0,0,1,0,1.41l-5.43,5.43a.89.89,0,0,0,0,1.28l5.43,5.43a1,1,0,0,1-.71,1.71Z"></path>
    </g>
  </g>
</svg>
