<?xml version="1.0" encoding="UTF-8"?>
<svg xmlns="http://www.w3.org/2000/svg" viewBox="0 0 72.02 72.02">
  <defs>
    <style>.cls-1{fill:#02568a;}</style>
  </defs>
  <g id="Layer_2" data-name="Layer 2">
    <g id="Layer_1-2" data-name="Layer 1">
      <path class="cls-1" d="M36,72A36,36,0,1,1,72,36,36,36,0,0,1,36,72ZM36,2A34,34,0,1,0,70,36,34.05,34.05,0,0,0,36,2Z"></path>
      <path class="cls-1" d="M23,51.28a2,2,0,0,1-1.91-2.66l6.58-19.74A2,2,0,0,1,29,27.61L48.71,21a2,2,0,0,1,2.55,2.55L44.68,43.32a2,2,0,0,1-1.27,1.28L23.67,51.18A2.1,2.1,0,0,1,23,51.28ZM49.37,22.93,29.6,29.5,23,49.26,42.77,42.7l6.6-19.76Z"></path>
      <path class="cls-1" d="M35.92,6.88a1,1,0,0,1-1-1V1.46a1,1,0,0,1,2,0V5.88A1,1,0,0,1,35.92,6.88Z"></path>
      <path class="cls-1" d="M35.92,71.58a1,1,0,0,1-1-1V66.16a1,1,0,0,1,2,0v4.42A1,1,0,0,1,35.92,71.58Z"></path>
      <path class="cls-1" d="M70.48,37H66.06a1,1,0,0,1,0-2h4.42a1,1,0,0,1,0,2Z"></path>
      <path class="cls-1" d="M5.78,37H1.36a1,1,0,1,1,0-2H5.78a1,1,0,1,1,0,2Z"></path>
    </g>
  </g>
</svg>
