<?xml version="1.0" encoding="UTF-8"?>
<svg xmlns="http://www.w3.org/2000/svg" viewBox="0 0 71.78 72.04">
  <defs>
    <style>.cls-1{fill:#02568a;}</style>
  </defs>
  <g id="Layer_2" data-name="Layer 2">
    <g id="Layer_1-2" data-name="Layer 1">
      <path class="cls-1" d="M27.76,56.1c-2.35,0-14.12-.21-14.12-4.34s11.77-4.35,14.12-4.35,14.13.21,14.13,4.35S30.12,56.1,27.76,56.1Zm0-6.69c-8,0-12.12,1.65-12.12,2.35s4.13,2.34,12.12,2.34,12.13-1.64,12.13-2.34S35.76,49.41,27.76,49.41Z"></path>
      <path class="cls-1" d="M27.76,61.48c-2.35,0-14.12-.21-14.12-4.34V55.36a1,1,0,0,1,2,0v1.78c0,.7,4.13,2.34,12.12,2.34s12.13-1.64,12.13-2.34V55.36a1,1,0,0,1,2,0v1.78C41.89,61.27,30.12,61.48,27.76,61.48Z"></path>
      <path class="cls-1" d="M27.76,66.84c-2.35,0-14.12-.21-14.12-4.34V60.73a1,1,0,0,1,2,0V62.5c0,.7,4.13,2.34,12.12,2.34S39.89,63.2,39.89,62.5V60.73a1,1,0,0,1,2,0V62.5C41.89,66.63,30.12,66.84,27.76,66.84Z"></path>
      <path class="cls-1" d="M27.76,72c-2.35,0-14.12-.21-14.12-4.34V65.92a1,1,0,0,1,2,0V67.7c0,.7,4.13,2.34,12.12,2.34S39.89,68.4,39.89,67.7V65.92a1,1,0,0,1,2,0V67.7C41.89,71.83,30.12,72,27.76,72Z"></path>
      <path class="cls-1" d="M10.75,55H8a7.93,7.93,0,1,1-.08-15.86,1,1,0,0,0,1-.59,8.63,8.63,0,0,1,15.65,0,1,1,0,0,0,.93.59,7.93,7.93,0,0,1,7.36,4.94,1,1,0,0,1-.54,1.3A1,1,0,0,1,31,44.83a5.92,5.92,0,0,0-4.13-3.53,5.68,5.68,0,0,0-1.36-.16,3.06,3.06,0,0,1-2.77-1.75,6.63,6.63,0,0,0-12,0A3,3,0,0,1,8,41.14,5.93,5.93,0,1,0,8,53h2.74a1,1,0,0,1,0,2Z"></path>
      <path class="cls-1" d="M57.66,22.55c-2.36,0-14.13-.21-14.13-4.34s11.77-4.35,14.13-4.35,14.12.21,14.12,4.35S60,22.55,57.66,22.55Zm0-6.69c-8,0-12.13,1.64-12.13,2.35s4.13,2.34,12.13,2.34,12.12-1.64,12.12-2.34S65.66,15.86,57.66,15.86Z"></path>
      <path class="cls-1" d="M57.66,27.93c-2.36,0-14.13-.21-14.13-4.34V21.81a1,1,0,0,1,2,0v1.78c0,.7,4.13,2.34,12.13,2.34s12.12-1.64,12.12-2.34V21.81a1,1,0,0,1,2,0v1.78C71.78,27.72,60,27.93,57.66,27.93Z"></path>
      <path class="cls-1" d="M57.66,33.29c-2.36,0-14.13-.21-14.13-4.34V27.17a1,1,0,0,1,2,0V29c0,.7,4.13,2.34,12.13,2.34S69.78,29.65,69.78,29V27.17a1,1,0,0,1,2,0V29C71.78,33.08,60,33.29,57.66,33.29Z"></path>
      <path class="cls-1" d="M57.66,38.49c-2.36,0-14.13-.21-14.13-4.34V32.37a1,1,0,0,1,2,0v1.78c0,.7,4.13,2.34,12.13,2.34s12.12-1.64,12.12-2.34V32.37a1,1,0,0,1,2,0v1.78C71.78,38.28,60,38.49,57.66,38.49Z"></path>
      <path class="cls-1" d="M40.65,21.45H37.91a7.93,7.93,0,1,1-.09-15.86,1,1,0,0,0,1-.59A8.63,8.63,0,0,1,54.43,5a1,1,0,0,0,.93.59,8,8,0,0,1,1.84.21,7.93,7.93,0,0,1,5.53,4.73,1,1,0,1,1-1.85.75,6,6,0,0,0-4.14-3.53,5.68,5.68,0,0,0-1.36-.16,3,3,0,0,1-2.76-1.75,6.63,6.63,0,0,0-12,0,3,3,0,0,1-2.73,1.75,5.93,5.93,0,1,0,0,11.86h2.74a1,1,0,0,1,0,2Z"></path>
      <path class="cls-1" d="M57.92,60.08H46.07a1,1,0,0,1,0-2H57.92a1,1,0,0,1,0,2Z"></path>
      <path class="cls-1" d="M61.62,55.89a1,1,0,0,1-1-1V43.53a1,1,0,0,1,2,0V54.89A1,1,0,0,1,61.62,55.89Z"></path>
      <path class="cls-1" d="M61.74,63.31a4.64,4.64,0,1,1,4.64-4.64A4.64,4.64,0,0,1,61.74,63.31Zm0-7.27a2.64,2.64,0,1,0,2.64,2.63A2.63,2.63,0,0,0,61.74,56Z"></path>
    </g>
  </g>
</svg>
