<?xml version="1.0" encoding="UTF-8"?>
<svg xmlns="http://www.w3.org/2000/svg" viewBox="0 0 71.93 72">
  <defs>
    <style>.cls-1{fill:#02568a;}</style>
  </defs>
  <g id="Layer_2" data-name="Layer 2">
    <g id="Layer_1-2" data-name="Layer 1">
      <path class="cls-1" d="M68.17,13H3.76A3.73,3.73,0,0,1,0,9.3V3.69A3.73,3.73,0,0,1,3.76,0H68.17a3.73,3.73,0,0,1,3.76,3.69V9.3A3.73,3.73,0,0,1,68.17,13ZM3.76,2A1.73,1.73,0,0,0,2,3.69V9.3A1.73,1.73,0,0,0,3.76,11H68.17A1.73,1.73,0,0,0,69.93,9.3V3.69A1.73,1.73,0,0,0,68.17,2Z"></path>
      <path class="cls-1" d="M28.63,9.51H15.41a2.17,2.17,0,0,1-2.16-2.17V5.49a2.16,2.16,0,0,1,2.16-2.16H28.63A2.17,2.17,0,0,1,30.8,5.49V7.34A2.17,2.17,0,0,1,28.63,9.51ZM15.41,5.33a.16.16,0,0,0-.16.16V7.34a.17.17,0,0,0,.16.17H28.63a.18.18,0,0,0,.17-.17V5.49a.17.17,0,0,0-.17-.16Z"></path>
      <path class="cls-1" d="M61,9.51H56.1a2.17,2.17,0,0,1-2.17-2.17V5.49A2.17,2.17,0,0,1,56.1,3.33H61a2.17,2.17,0,0,1,2.17,2.16V7.34A2.17,2.17,0,0,1,61,9.51ZM56.1,5.33a.16.16,0,0,0-.17.16V7.34a.17.17,0,0,0,.17.17H61a.18.18,0,0,0,.17-.17V5.49A.17.17,0,0,0,61,5.33Z"></path>
      <path class="cls-1" d="M68.17,35.55H3.76A3.73,3.73,0,0,1,0,31.85v-5.6a3.72,3.72,0,0,1,3.76-3.69H68.17a3.73,3.73,0,0,1,3.76,3.69v5.6A3.74,3.74,0,0,1,68.17,35.55Zm-64.41-11A1.72,1.72,0,0,0,2,26.25v5.6a1.73,1.73,0,0,0,1.76,1.7H68.17a1.73,1.73,0,0,0,1.76-1.7v-5.6a1.72,1.72,0,0,0-1.76-1.69Z"></path>
      <path class="cls-1" d="M28.63,32.06H15.41a2.16,2.16,0,0,1-2.16-2.16V28.05a2.17,2.17,0,0,1,2.16-2.17H28.63a2.17,2.17,0,0,1,2.17,2.17V29.9A2.17,2.17,0,0,1,28.63,32.06ZM15.41,27.88a.17.17,0,0,0-.16.17V29.9a.16.16,0,0,0,.16.16H28.63a.17.17,0,0,0,.17-.16V28.05a.18.18,0,0,0-.17-.17Z"></path>
      <path class="cls-1" d="M61,32.06H56.1a2.17,2.17,0,0,1-2.17-2.16V28.05a2.17,2.17,0,0,1,2.17-2.17H61a2.17,2.17,0,0,1,2.17,2.17V29.9A2.17,2.17,0,0,1,61,32.06ZM56.1,27.88a.17.17,0,0,0-.17.17V29.9a.16.16,0,0,0,.17.16H61a.17.17,0,0,0,.17-.16V28.05a.18.18,0,0,0-.17-.17Z"></path>
      <path class="cls-1" d="M68.17,57.87H3.76A3.73,3.73,0,0,1,0,54.18V48.57a3.72,3.72,0,0,1,3.76-3.69H68.17a3.73,3.73,0,0,1,3.76,3.69v5.61A3.73,3.73,0,0,1,68.17,57.87Zm-64.41-11A1.73,1.73,0,0,0,2,48.57v5.61a1.73,1.73,0,0,0,1.76,1.69H68.17a1.73,1.73,0,0,0,1.76-1.69V48.57a1.73,1.73,0,0,0-1.76-1.69Z"></path>
      <path class="cls-1" d="M28.63,54.46H15.41a2.16,2.16,0,0,1-2.16-2.16V50.45a2.17,2.17,0,0,1,2.16-2.17H28.63a2.17,2.17,0,0,1,2.17,2.17V52.3A2.17,2.17,0,0,1,28.63,54.46ZM15.41,50.28a.17.17,0,0,0-.16.17V52.3a.16.16,0,0,0,.16.16H28.63a.17.17,0,0,0,.17-.16V50.45a.18.18,0,0,0-.17-.17Z"></path>
      <path class="cls-1" d="M61,54.46H56.1a2.17,2.17,0,0,1-2.17-2.16V50.45a2.17,2.17,0,0,1,2.17-2.17H61a2.17,2.17,0,0,1,2.17,2.17V52.3A2.17,2.17,0,0,1,61,54.46ZM56.1,50.28a.17.17,0,0,0-.17.17V52.3a.16.16,0,0,0,.17.16H61a.17.17,0,0,0,.17-.16V50.45a.18.18,0,0,0-.17-.17Z"></path>
      <path class="cls-1" d="M6.72,24a1,1,0,0,1-1-1V12.28a1,1,0,0,1,2,0V23A1,1,0,0,1,6.72,24Z"></path>
      <path class="cls-1" d="M64.56,24a1,1,0,0,1-1-1V12.28a1,1,0,0,1,2,0V23A1,1,0,0,1,64.56,24Z"></path>
      <path class="cls-1" d="M6.72,46.42a1,1,0,0,1-1-1V34.74a1,1,0,0,1,2,0V45.42A1,1,0,0,1,6.72,46.42Z"></path>
      <path class="cls-1" d="M35.89,71.36a1,1,0,0,1-1-1V57.68a1,1,0,1,1,2,0V70.36A1,1,0,0,1,35.89,71.36Z"></path>
      <path class="cls-1" d="M64.56,46.42a1,1,0,0,1-1-1V34.74a1,1,0,0,1,2,0V45.42A1,1,0,0,1,64.56,46.42Z"></path>
      <path class="cls-1" d="M57.54,72H14.35a1,1,0,1,1,0-2H57.54a1,1,0,0,1,0,2Z"></path>
    </g>
  </g>
</svg>
