<?xml version="1.0" encoding="UTF-8"?>
<svg xmlns="http://www.w3.org/2000/svg" viewBox="0 0 18.63 21.29">
  <defs>
    <style>.cls-1{fill:#02568a;}</style>
  </defs>
  <title>Operational Reliablility1x</title>
  <g id="Layer_2" data-name="Layer 2">
    <g id="Layer_1-2" data-name="Layer 1">
      <path class="cls-1" d="M12.75,6.7a.36.36,0,0,0-.53,0L12,6.93,8.82,10.1a1.91,1.91,0,0,0-.22.3,1,1,0,0,1-.36-.26L6.56,8.45a1,1,0,0,0-.22-.19.31.31,0,0,0-.46,0,.36.36,0,0,0,0,.46A.55.55,0,0,0,6,8.89l2.21,2.2a.49.49,0,0,0,.13.12.32.32,0,0,0,.44,0A1,1,0,0,0,8.93,11l3.68-3.68.12-.13A.38.38,0,0,0,12.75,6.7ZM9.31,3.22A5.73,5.73,0,1,0,15,8.93,5.72,5.72,0,0,0,9.31,3.22Zm0,10.71a5,5,0,1,1,5-5A5,5,0,0,1,9.29,13.93ZM12.75,6.7a.36.36,0,0,0-.53,0L12,6.93,8.82,10.1a1.91,1.91,0,0,0-.22.3,1,1,0,0,1-.36-.26L6.56,8.45a1,1,0,0,0-.22-.19.31.31,0,0,0-.46,0,.36.36,0,0,0,0,.46A.55.55,0,0,0,6,8.89l2.21,2.2a.49.49,0,0,0,.13.12.32.32,0,0,0,.44,0A1,1,0,0,0,8.93,11l3.68-3.68.12-.13A.38.38,0,0,0,12.75,6.7ZM9.31,3.22A5.73,5.73,0,1,0,15,8.93,5.72,5.72,0,0,0,9.31,3.22Zm0,10.71a5,5,0,1,1,5-5A5,5,0,0,1,9.29,13.93Zm8.57,3.57c-.5-.86-1-1.73-1.54-2.64a1.54,1.54,0,0,0,.79-1.7c0-.32-.05-.64-.1-.95a1.59,1.59,0,0,1,.53-1.46,5.44,5.44,0,0,0,.74-.85,1.49,1.49,0,0,0,0-1.9,4.16,4.16,0,0,0-.7-.81,1.78,1.78,0,0,1-.55-1.83.36.36,0,0,1,0-.1,6.75,6.75,0,0,0,0-1.1,1.3,1.3,0,0,0-.73-1.11,2,2,0,0,0-.48-.19c-.41-.1-.83-.2-1.25-.28a1.29,1.29,0,0,1-.94-.69c-.12-.23-.25-.45-.38-.67a3.5,3.5,0,0,0-.54-.78A1.37,1.37,0,0,0,11.41.05a4,4,0,0,0-1.05.42,1.94,1.94,0,0,1-2,0A4,4,0,0,0,7.19,0,1.34,1.34,0,0,0,5.9.39a2.82,2.82,0,0,0-.54.74c-.15.25-.3.5-.44.76A1.25,1.25,0,0,1,4,2.58l-.36.07A6,6,0,0,0,2.32,3a1.35,1.35,0,0,0-.8,1.22,4.39,4.39,0,0,0,0,.81c0,.28.07.56.09.84a1.15,1.15,0,0,1-.29,1l-.63.71a1.73,1.73,0,0,0,0,2.78c.19.21.37.42.57.62a1.35,1.35,0,0,1,.36,1.15,9.88,9.88,0,0,0-.11,1.54,1.35,1.35,0,0,0,.6,1.11c.06,0,.14.06.14.18-.16.29-.33.6-.51.9-.45.79-.9,1.57-1.36,2.35-.1.18-.19.36,0,.55s.33.16.53.1c.41-.12.82-.22,1.23-.33l1.56-.42c0,.08,0,.12.06.16.18.65.35,1.3.52,1.95.07.26.15.52.22.78a.38.38,0,0,0,.34.33.4.4,0,0,0,.38-.24,2.53,2.53,0,0,1,.13-.22L6.88,18.1c.07-.1.1-.23.24-.26a6.09,6.09,0,0,0,1.5-.59,1.53,1.53,0,0,1,1.41,0l.27.12a5.25,5.25,0,0,0,1.34.49l1.74,3c.11.18.19.42.47.39s.33-.29.39-.51c.22-.82.44-1.63.65-2.44,0-.1,0-.2.14-.25.94.25,1.89.49,2.83.75a.38.38,0,0,0,.45-.13.37.37,0,0,0,0-.45ZM4.94,20l-.32-1.16c-.1-.38-.19-.76-.3-1.13s-.23-.48-.64-.37l-2.09.55s-.09.05-.16,0c.51-.9,1-1.8,1.57-2.73a5.67,5.67,0,0,1,1.41.33,1.16,1.16,0,0,1,.46.47q.19.32.36.63a3.09,3.09,0,0,0,1,1.2C5.81,18.47,5.39,19.18,4.94,20Zm6.19-3-1-.44a2,2,0,0,0-1.61,0l-1,.42c-.81.36-1.08.27-1.53-.49l-.4-.71A2.18,2.18,0,0,0,4,14.54c-.33-.06-.65-.13-1-.21-.66-.17-.8-.36-.76-1a10,10,0,0,1,.1-1.1,2.17,2.17,0,0,0-.68-1.89A9.86,9.86,0,0,1,1,9.54.81.81,0,0,1,1,8.37c.14-.18.3-.35.45-.52s.33-.36.49-.55A1.83,1.83,0,0,0,2.35,6a7.18,7.18,0,0,0-.06-.81,5.92,5.92,0,0,1,0-.84.69.69,0,0,1,.56-.76,8.08,8.08,0,0,1,1-.23,4.51,4.51,0,0,0,.78-.21,1.82,1.82,0,0,0,.77-.6,9.12,9.12,0,0,0,.6-1A3.68,3.68,0,0,1,6.34,1,.69.69,0,0,1,7.07.78,3.66,3.66,0,0,1,7.62,1l.84.37a2,2,0,0,0,1.71,0L11,1a3.77,3.77,0,0,1,.59-.22.62.62,0,0,1,.64.18,2.32,2.32,0,0,1,.37.5c.12.2.25.42.35.63a2.29,2.29,0,0,0,1.84,1.3,6.86,6.86,0,0,1,1,.22.72.72,0,0,1,.59.81,4.79,4.79,0,0,1-.05.85,2.54,2.54,0,0,0,0,.29A2.26,2.26,0,0,0,17,7.64c.21.21.41.43.59.65a.85.85,0,0,1,0,1.31c-.19.23-.39.43-.59.66s-.23.25-.33.38a1.88,1.88,0,0,0-.41,1.23c0,.47.1.92.11,1.31,0,.8-.1,1-.8,1.17l-1.18.25a2,2,0,0,0-1.29,1c-.19.32-.36.64-.55.95C12.14,17.19,11.87,17.28,11.13,17Zm4.13.43-.36-.09c-.35-.09-.49,0-.59.34-.15.53-.28,1.06-.42,1.59-.07.23-.13.45-.21.74l-1.29-2.22a3.53,3.53,0,0,0,1.18-1.55,1.65,1.65,0,0,1,1.37-1,2.82,2.82,0,0,1,.69-.09l1.61,2.79ZM12.75,6.7a.36.36,0,0,0-.53,0L12,6.93,8.82,10.1a1.91,1.91,0,0,0-.22.3,1,1,0,0,1-.36-.26L6.56,8.45a1,1,0,0,0-.22-.19.31.31,0,0,0-.46,0,.36.36,0,0,0,0,.46A.55.55,0,0,0,6,8.89l2.21,2.2a.49.49,0,0,0,.13.12.32.32,0,0,0,.44,0A1,1,0,0,0,8.93,11l3.68-3.68.12-.13A.38.38,0,0,0,12.75,6.7ZM15,8.93a5.72,5.72,0,1,0-5.74,5.74A5.73,5.73,0,0,0,15,8.93Zm-5.74,5a5,5,0,1,1,5-5A5,5,0,0,1,9.29,13.93Z"></path>
      <path class="cls-1" d="M9.31,3.22A5.73,5.73,0,1,0,15,8.93,5.72,5.72,0,0,0,9.31,3.22Zm0,10.71a5,5,0,1,1,5-5A5,5,0,0,1,9.29,13.93Z"></path>
      <path class="cls-1" d="M12.73,7.23l-.12.13L8.93,11a1,1,0,0,1-.19.17.32.32,0,0,1-.44,0,.49.49,0,0,1-.13-.12L6,8.89a.55.55,0,0,1-.12-.14.36.36,0,0,1,0-.46.31.31,0,0,1,.46,0,1,1,0,0,1,.22.19l1.68,1.69a1,1,0,0,0,.36.26,1.91,1.91,0,0,1,.22-.3L12,6.93l.23-.22a.36.36,0,0,1,.53,0A.38.38,0,0,1,12.73,7.23Z"></path>
      <path class="cls-1" d="M9.31,3.22A5.73,5.73,0,1,0,15,8.93,5.72,5.72,0,0,0,9.31,3.22Zm0,10.71a5,5,0,1,1,5-5A5,5,0,0,1,9.29,13.93Z"></path>
      <path class="cls-1" d="M12.73,7.23l-.12.13L8.93,11a1,1,0,0,1-.19.17.32.32,0,0,1-.44,0,.49.49,0,0,1-.13-.12L6,8.89a.55.55,0,0,1-.12-.14.36.36,0,0,1,0-.46.31.31,0,0,1,.46,0,1,1,0,0,1,.22.19l1.68,1.69a1,1,0,0,0,.36.26,1.91,1.91,0,0,1,.22-.3L12,6.93l.23-.22a.36.36,0,0,1,.53,0A.38.38,0,0,1,12.73,7.23Z"></path>
      <path class="cls-1" d="M12.73,7.23l-.12.13L8.93,11a1,1,0,0,1-.19.17.32.32,0,0,1-.44,0,.49.49,0,0,1-.13-.12L6,8.89a.55.55,0,0,1-.12-.14.36.36,0,0,1,0-.46.31.31,0,0,1,.46,0,1,1,0,0,1,.22.19l1.68,1.69a1,1,0,0,0,.36.26,1.91,1.91,0,0,1,.22-.3L12,6.93l.23-.22a.36.36,0,0,1,.53,0A.38.38,0,0,1,12.73,7.23Z"></path>
      <path class="cls-1" d="M12.73,7.23l-.12.13L8.93,11a1,1,0,0,1-.19.17.32.32,0,0,1-.44,0,.49.49,0,0,1-.13-.12L6,8.89a.55.55,0,0,1-.12-.14.36.36,0,0,1,0-.46.31.31,0,0,1,.46,0,1,1,0,0,1,.22.19l1.68,1.69a1,1,0,0,0,.36.26,1.91,1.91,0,0,1,.22-.3L12,6.93l.23-.22a.36.36,0,0,1,.53,0A.38.38,0,0,1,12.73,7.23Z"></path>
    </g>
  </g>
</svg>
