<?xml version="1.0" encoding="UTF-8"?>
<svg xmlns="http://www.w3.org/2000/svg" viewBox="0 0 24.57 17.02">
  <defs>
    <style>.cls-1{fill:none;stroke:#02568a;stroke-miterlimit:10;stroke-width:0.5px;}</style>
  </defs>
  <title>Cloud Platform1x</title>
  <g id="Layer_2" data-name="Layer 2">
    <g id="Layer_1-2" data-name="Layer 1">
      <g id="Layer_1-2-2" data-name="Layer 1-2">
        <path class="cls-1" d="M7.27,12.76c.38.39.77.78,1.15,1.18a.56.56,0,0,1,.12.3c0,.8,0,1.61,0,2.41a.14.14,0,0,1,0,.06.1.1,0,0,1-.07,0c-1,0-2,0-3-.06a5.7,5.7,0,0,1-5-4.38A6,6,0,0,1,1.72,6.75,5.78,5.78,0,0,1,4.81,4.92l.52-.12a7.26,7.26,0,0,1,7-4.55,7.25,7.25,0,0,1,7,4.54c.3.08.61.15.92.25a5.83,5.83,0,0,1,4.1,6.49,5.75,5.75,0,0,1-2.73,4.33,6,6,0,0,1-3,.89c-.75,0-1.5,0-2.25,0l-.2,0c0-.12,0-.22,0-.31,0-.69,0-1.38,0-2.07a.63.63,0,0,1,.2-.5c.37-.35.72-.73,1.1-1.11a2.28,2.28,0,0,0,3.07-1.14,2.23,2.23,0,0,0-3.32-2.68,2.27,2.27,0,0,0-.74,2.8l-.18.21c-.4.4-.79.81-1.2,1.2a1,1,0,0,0-.35.83c0,.79,0,1.58,0,2.37v.39H13V9.85l.3-.16a2.22,2.22,0,1,0-3.23-2,2.24,2.24,0,0,0,1.18,2l.31.15v6.9H10c0-.13,0-.26,0-.4,0-.8,0-1.6,0-2.4a1,1,0,0,0-.32-.77c-.48-.46-1-.93-1.43-1.41a2.19,2.19,0,0,0,.06-1.84,2.22,2.22,0,1,0-4,1.92C4.87,12.83,5.85,13.15,7.27,12.76Z"></path>
        <path class="cls-1" d="M19.14,10.73a.79.79,0,0,1-.78.83h0a.81.81,0,0,1,0-1.62.81.81,0,0,1,.83.79Z"></path>
        <path class="cls-1" d="M5.43,10.74A.8.8,0,0,1,6.26,10a.79.79,0,0,1,.77.82.8.8,0,0,1-1.6,0Z"></path>
        <path class="cls-1" d="M12.3,8.52a.81.81,0,0,1,0-1.61.81.81,0,1,1,0,1.61Z"></path>
      </g>
    </g>
  </g>
</svg>
