<?xml version="1.0" encoding="UTF-8"?>
<svg xmlns="http://www.w3.org/2000/svg" viewBox="0 0 72.07 72.1">
  <defs>
    <style>.cls-1{fill:#02568a;}</style>
  </defs>
  <g id="Layer_2" data-name="Layer 2">
    <g id="Layer_1-2" data-name="Layer 1">
      <path class="cls-1" d="M36,64.36a1,1,0,0,1-1-1V44.82a1,1,0,0,1,2,0V63.36A1,1,0,0,1,36,64.36Z"></path>
      <path class="cls-1" d="M23.86,57.25a1,1,0,0,1-1-1V45.19a1,1,0,0,1,2,0V56.25A1,1,0,0,1,23.86,57.25Z"></path>
      <path class="cls-1" d="M23.92,65.44a4.9,4.9,0,1,1,4.9-4.89A4.9,4.9,0,0,1,23.92,65.44Zm0-7.79a2.9,2.9,0,1,0,2.9,2.9A2.9,2.9,0,0,0,23.92,57.65Z"></path>
      <path class="cls-1" d="M57.93,45.83H14.14a14.14,14.14,0,0,1,0-28.28,12.29,12.29,0,0,1,1.49.09A20.65,20.65,0,0,1,34.09.1,20.62,20.62,0,0,1,56.44,17.64a12.29,12.29,0,0,1,1.49-.09h0a14.14,14.14,0,0,1,0,28.28ZM14.13,19.55a12.14,12.14,0,0,0,0,24.28H57.93a12.14,12.14,0,0,0,0-24.28,12.4,12.4,0,0,0-2.19.21L54.67,20l-.1-1.08a18.62,18.62,0,0,0-37.07,0L17.39,20l-1.07-.19A12.31,12.31,0,0,0,14.13,19.55Z"></path>
      <path class="cls-1" d="M45.79,37.07H26.28V24.12H45.79Zm-17.51-2H43.79V26.12H28.28Z"></path>
      <path class="cls-1" d="M42.6,26.12a1,1,0,0,1-1-1V20.74a5.57,5.57,0,1,0-11.14,0v4.38a1,1,0,0,1-2,0V20.74a7.57,7.57,0,1,1,15.14,0v4.38A1,1,0,0,1,42.6,26.12Z"></path>
      <path class="cls-1" d="M47.9,57.25a1,1,0,0,1-1-1V45.19a1,1,0,0,1,2,0V56.25A1,1,0,0,1,47.9,57.25Z"></path>
      <path class="cls-1" d="M48,65.44a4.9,4.9,0,1,1,4.9-4.89A4.89,4.89,0,0,1,48,65.44Zm0-7.79a2.9,2.9,0,1,0,2.9,2.9A2.9,2.9,0,0,0,48,57.65Z"></path>
      <path class="cls-1" d="M36,72.1a4.9,4.9,0,1,1,4.9-4.9A4.91,4.91,0,0,1,36,72.1Zm0-7.79a2.9,2.9,0,1,0,2.9,2.89A2.9,2.9,0,0,0,36,64.31Z"></path>
    </g>
  </g>
</svg>
