<?xml version="1.0" encoding="UTF-8"?>
<svg xmlns="http://www.w3.org/2000/svg" viewBox="0 0 72.04 71.82">
  <defs>
    <style>.cls-1{fill:#02568a;}</style>
  </defs>
  <g id="Layer_2" data-name="Layer 2">
    <g id="Layer_1-2" data-name="Layer 1">
      <path class="cls-1" d="M36,44a3.14,3.14,0,0,1-2.89-1.9A22.12,22.12,0,0,0,22,30.83,3.16,3.16,0,0,1,22,25,20.69,20.69,0,0,0,33.1,14a3.17,3.17,0,0,1,5.84,0A20.78,20.78,0,0,0,50.07,25.06,3.14,3.14,0,0,1,52,28a3.2,3.2,0,0,1-1.91,2.91A22,22,0,0,0,38.84,42,3.12,3.12,0,0,1,36,44Zm0-29.92a1.17,1.17,0,0,0-1.08.73A22.67,22.67,0,0,1,22.79,26.87a1.16,1.16,0,0,0-.71,1.05A1.18,1.18,0,0,0,22.8,29,24.15,24.15,0,0,1,34.9,41.27,1.17,1.17,0,0,0,36,42a1.12,1.12,0,0,0,1-.71A24,24,0,0,1,49.28,29,1.19,1.19,0,0,0,50,28a1.16,1.16,0,0,0-.71-1.05,22.8,22.8,0,0,1-12.2-12.14A1.14,1.14,0,0,0,36,14.05Z"></path>
      <path class="cls-1" d="M36.16,56A3.45,3.45,0,0,1,34,55.32a3.75,3.75,0,0,1-.82-.82,8.9,8.9,0,0,0-7.3-3.81,9,9,0,0,0-2.94.48A3.52,3.52,0,0,1,20.26,51a3.77,3.77,0,0,1-1.87-2.09,3.26,3.26,0,0,1-.19-1.37A8.88,8.88,0,0,0,12,39a3.68,3.68,0,0,1-2.4-4.55,4.06,4.06,0,0,1,.55-1.08,9,9,0,0,0,0-10.73,3.69,3.69,0,0,1,.73-5.11A3.77,3.77,0,0,1,12,17a8.89,8.89,0,0,0,6.21-8.64A3.52,3.52,0,0,1,19.28,5.7,3.63,3.63,0,0,1,23,4.82a8.36,8.36,0,0,0,2.85.48A8.93,8.93,0,0,0,33.2,1.53,3.65,3.65,0,0,1,38.28.67a4.27,4.27,0,0,1,.83.82A9,9,0,0,0,46.45,5.3a8.56,8.56,0,0,0,2.87-.48A3.55,3.55,0,0,1,52.05,5a3.76,3.76,0,0,1,1.87,2.1,4.37,4.37,0,0,1,.19,1.25A9,9,0,0,0,60.39,17a3.64,3.64,0,0,1,2.13,1.81,3.57,3.57,0,0,1,.23,2.77l-.2.61-.47.54a8.84,8.84,0,0,0,.08,10.62,3.73,3.73,0,0,1,.66,2.75,3.55,3.55,0,0,1-1.4,2.33,3,3,0,0,1-1.13.58A8.92,8.92,0,0,0,54,47.68,3.52,3.52,0,0,1,53,50.28a3.68,3.68,0,0,1-2.44,1.08,3.41,3.41,0,0,1-1.37-.22h0a8.6,8.6,0,0,0-10,3.35A3.58,3.58,0,0,1,36.76,56,3.7,3.7,0,0,1,36.16,56ZM25.92,48.69a10.88,10.88,0,0,1,8.91,4.63,2.23,2.23,0,0,0,.41.4,1.64,1.64,0,0,0,1,.31h.14a1.6,1.6,0,0,0,1.09-.66,10.54,10.54,0,0,1,12.3-4.11,1.71,1.71,0,0,0,.63.11,1.65,1.65,0,0,0,1.13-.49A1.54,1.54,0,0,0,52,47.73,10.91,10.91,0,0,1,59.7,37.09a1.29,1.29,0,0,0,.46-.22,1.62,1.62,0,0,0,.68-1.06,1.72,1.72,0,0,0-.3-1.29,10.86,10.86,0,0,1,0-13.05l.25-.29.08-.24a1.63,1.63,0,0,0-1.06-2A11,11,0,0,1,52.11,8.32a2.08,2.08,0,0,0-.1-.64,1.71,1.71,0,0,0-.85-.92,1.55,1.55,0,0,0-1.18,0,10.63,10.63,0,0,1-3.53.59,11,11,0,0,1-9-4.61,1.76,1.76,0,0,0-.38-.39A1.64,1.64,0,0,0,35.9,2a1.66,1.66,0,0,0-1.07.67A10.93,10.93,0,0,1,25.89,7.3a10.25,10.25,0,0,1-3.52-.6,1.63,1.63,0,0,0-1.65.39,1.5,1.5,0,0,0-.49,1.16,10.88,10.88,0,0,1-7.65,10.61,1.92,1.92,0,0,0-.57.29,1.67,1.67,0,0,0-.3,2.3,11,11,0,0,1,0,13.11,1.83,1.83,0,0,0-.25.48,1.66,1.66,0,0,0,.14,1.26,1.69,1.69,0,0,0,.94.79A10.91,10.91,0,0,1,20.2,47.65a1.31,1.31,0,0,0,.08.6,1.68,1.68,0,0,0,.87,1,1.51,1.51,0,0,0,1.18.06A10.81,10.81,0,0,1,25.92,48.69Z"></path>
      <path class="cls-1" d="M17.53,71.82h-.11a1.79,1.79,0,0,1-1.5-1l-4.49-9.19-9.65,0A1.79,1.79,0,0,1,.29,58.84L9.88,44.17a1,1,0,0,1,1.68,1.1L2.18,59.61l10.5,0,4.87,10,8.94-13.7a1,1,0,0,1,1.39-.3A1,1,0,0,1,28.17,57L19,71A1.79,1.79,0,0,1,17.53,71.82Z"></path>
      <path class="cls-1" d="M54.51,71.82A1.77,1.77,0,0,1,53,71L43.87,57a1,1,0,0,1,.3-1.39,1,1,0,0,1,1.38.3l8.94,13.7,4.87-10,10.5,0L60.49,45.27a1,1,0,1,1,1.67-1.1l9.59,14.67a1.79,1.79,0,0,1-1.49,2.77l-9.65,0-4.49,9.19a1.79,1.79,0,0,1-1.5,1ZM70.08,59.94h0Z"></path>
    </g>
  </g>
</svg>
