<?xml version="1.0" encoding="UTF-8"?>
<svg xmlns="http://www.w3.org/2000/svg" viewBox="0 0 71.93 72.07">
  <defs>
    <style>.cls-1{fill:#02568a;}</style>
  </defs>
  <g id="Layer_2" data-name="Layer 2">
    <g id="Layer_1-2" data-name="Layer 1">
      <path class="cls-1" d="M53.37,15H18.2a3.64,3.64,0,0,1-3.63-3.63V3.63A3.64,3.64,0,0,1,18.2,0H53.37A3.64,3.64,0,0,1,57,3.63v7.75A3.64,3.64,0,0,1,53.37,15ZM18.2,2a1.63,1.63,0,0,0-1.63,1.63v7.75A1.63,1.63,0,0,0,18.2,13H53.37A1.63,1.63,0,0,0,55,11.38V3.63A1.63,1.63,0,0,0,53.37,2Z"></path>
      <path class="cls-1" d="M53.37,28.05H18.2a3.64,3.64,0,0,1-3.63-3.64V16.67A3.64,3.64,0,0,1,18.2,13H53.37A3.64,3.64,0,0,1,57,16.67v7.74A3.64,3.64,0,0,1,53.37,28.05ZM18.2,15a1.63,1.63,0,0,0-1.63,1.63v7.74a1.63,1.63,0,0,0,1.63,1.64H53.37A1.63,1.63,0,0,0,55,24.41V16.67A1.63,1.63,0,0,0,53.37,15Z"></path>
      <path class="cls-1" d="M50.36,11.16H47.57a2.24,2.24,0,0,1-2.24-2.24V6.13a2.24,2.24,0,0,1,2.24-2.24h2.79A2.24,2.24,0,0,1,52.6,6.13V8.92A2.25,2.25,0,0,1,50.36,11.16ZM47.57,5.89a.24.24,0,0,0-.24.24V8.92a.24.24,0,0,0,.24.24h2.79a.24.24,0,0,0,.24-.24V6.13a.24.24,0,0,0-.24-.24Z"></path>
      <path class="cls-1" d="M50.36,24.15H47.57a2.24,2.24,0,0,1-2.24-2.24V19.12a2.24,2.24,0,0,1,2.24-2.24h2.79a2.24,2.24,0,0,1,2.24,2.24v2.79A2.25,2.25,0,0,1,50.36,24.15Zm-2.79-5.27a.24.24,0,0,0-.24.24v2.79a.24.24,0,0,0,.24.24h2.79a.24.24,0,0,0,.24-.24V19.12a.24.24,0,0,0-.24-.24Z"></path>
      <path class="cls-1" d="M35.92,46.87a1,1,0,0,1-1-1v-5.2a1,1,0,0,1,2,0v5.2A1,1,0,0,1,35.92,46.87Z"></path>
      <path class="cls-1" d="M42.08,8.38H20.65a1,1,0,1,1,0-2H42.08a1,1,0,0,1,0,2Z"></path>
      <path class="cls-1" d="M42.08,21.57H20.65a1,1,0,0,1,0-2H42.08a1,1,0,0,1,0,2Z"></path>
      <path class="cls-1" d="M53.37,41H18.2a3.64,3.64,0,0,1-3.63-3.63V29.65A3.64,3.64,0,0,1,18.2,26H53.37A3.64,3.64,0,0,1,57,29.65V37.4A3.64,3.64,0,0,1,53.37,41ZM18.2,28a1.63,1.63,0,0,0-1.63,1.63V37.4A1.63,1.63,0,0,0,18.2,39H53.37A1.63,1.63,0,0,0,55,37.4V29.65A1.63,1.63,0,0,0,53.37,28Z"></path>
      <path class="cls-1" d="M50.36,37.13H47.57a2.24,2.24,0,0,1-2.24-2.24V32.1a2.24,2.24,0,0,1,2.24-2.24h2.79A2.24,2.24,0,0,1,52.6,32.1v2.79A2.25,2.25,0,0,1,50.36,37.13Zm-2.79-5.27a.24.24,0,0,0-.24.24v2.79a.24.24,0,0,0,.24.24h2.79a.24.24,0,0,0,.24-.24V32.1a.24.24,0,0,0-.24-.24Z"></path>
      <path class="cls-1" d="M42.08,34.55H20.65a1,1,0,0,1,0-2H42.08a1,1,0,0,1,0,2Z"></path>
      <path class="cls-1" d="M35.91,53.46a4.27,4.27,0,1,1,4.26-4.27A4.27,4.27,0,0,1,35.91,53.46Zm0-6.53a2.27,2.27,0,1,0,2.26,2.26A2.26,2.26,0,0,0,35.91,46.93Z"></path>
      <path class="cls-1" d="M70.93,49.93H39.35a1,1,0,0,1,0-2H70.93a1,1,0,0,1,0,2Z"></path>
      <path class="cls-1" d="M32.59,49.93H1a1,1,0,0,1,0-2H32.59a1,1,0,0,1,0,2Z"></path>
      <path class="cls-1" d="M36,72.07a1,1,0,0,1-1-1V52.64a1,1,0,0,1,2,0V71.07A1,1,0,0,1,36,72.07Z"></path>
      <path class="cls-1" d="M1,72a1,1,0,0,1-.51-1.85L33,50.61a1,1,0,0,1,1,1.72L1.51,71.86A.94.94,0,0,1,1,72Z"></path>
      <path class="cls-1" d="M70.85,72a.94.94,0,0,1-.51-.14L37.78,52.33a1,1,0,0,1,1-1.72L71.36,70.15A1,1,0,0,1,70.85,72Z"></path>
    </g>
  </g>
</svg>
