<?xml version="1.0" encoding="UTF-8"?>
<svg xmlns="http://www.w3.org/2000/svg" viewBox="0 0 72.06 71.65">
  <defs>
    <style>.cls-1{fill:#02568a;}</style>
  </defs>
  <g id="Layer_2" data-name="Layer 2">
    <g id="Layer_1-2" data-name="Layer 1">
      <path class="cls-1" d="M35.94,45.31a4.7,4.7,0,0,1-2.13-.51l-8.64-4.45a4.64,4.64,0,0,1-2.53-4.14V7.69a4.66,4.66,0,0,1,3.14-4.4l8.77-3a4.65,4.65,0,0,1,3.06,0l8.67,3a4.67,4.67,0,0,1,3.13,4.41v28.5a4.65,4.65,0,0,1-2.55,4.16l-8.81,4.46A4.74,4.74,0,0,1,35.94,45.31ZM36.07,2a2.61,2.61,0,0,0-.87.15l-8.77,3a2.66,2.66,0,0,0-1.79,2.51V36.21a2.67,2.67,0,0,0,1.45,2.37L34.72,43a2.7,2.7,0,0,0,2.43,0L46,38.57a2.66,2.66,0,0,0,1.46-2.38V7.69a2.66,2.66,0,0,0-1.78-2.52L37,2.15A2.62,2.62,0,0,0,36.07,2Z"></path>
      <path class="cls-1" d="M35.93,44.91a1,1,0,0,1-1-1v-32a1,1,0,1,1,2,0v32A1,1,0,0,1,35.93,44.91Z"></path>
      <path class="cls-1" d="M35.7,12.36,24.06,6.53A1,1,0,1,1,25,4.75l10.77,5.39L47,4.78a1,1,0,0,1,.86,1.81Z"></path>
      <path class="cls-1" d="M35.7,28.88,23.19,22.49a1,1,0,1,1,.91-1.78l11.63,5.94,12.16-5.76a1,1,0,0,1,1.33.48,1,1,0,0,1-.48,1.33Z"></path>
      <path class="cls-1" d="M35.62,53a16.94,16.94,0,0,1-7.08-1.55l-28-12.8a1,1,0,1,1,.84-1.82l28,12.8a14.91,14.91,0,0,0,13.2-.36l28-14.68A1,1,0,0,1,72,35a1,1,0,0,1-.42,1.35L43.5,51A16.84,16.84,0,0,1,35.62,53Z"></path>
      <path class="cls-1" d="M35.62,62.72a17.09,17.09,0,0,1-7.08-1.55l-28-12.8a1,1,0,1,1,.84-1.82l28,12.8A14.91,14.91,0,0,0,42.58,59l28-14.68a1,1,0,0,1,1.35.42,1,1,0,0,1-.42,1.35l-28,14.68A16.84,16.84,0,0,1,35.62,62.72Z"></path>
      <path class="cls-1" d="M35.62,71.65a17.09,17.09,0,0,1-7.08-1.55L.58,57.3A1,1,0,0,1,.09,56a1,1,0,0,1,1.33-.49l28,12.8a14.91,14.91,0,0,0,13.2-.36l28-14.68a1,1,0,0,1,1.35.42A1,1,0,0,1,71.53,55l-28,14.68A17,17,0,0,1,35.62,71.65Z"></path>
    </g>
  </g>
</svg>
