<svg xmlns="http://www.w3.org/2000/svg" viewBox="0 0 71.88 71.78"><defs><style>.cls-1{fill:#02568a;}</style></defs><g id="Layer_2" data-name="Layer 2"><g id="Layer_1-2" data-name="Layer 1"><path class="cls-1" d="M40.49,60.41A19.56,19.56,0,1,1,60.05,40.85,19.58,19.58,0,0,1,40.49,60.41Zm0-37.12A17.56,17.56,0,1,0,58.05,40.85,17.58,17.58,0,0,0,40.49,23.29Z"/><path class="cls-1" d="M6.68,35.45a6.68,6.68,0,1,1,6.68-6.68A6.69,6.69,0,0,1,6.68,35.45Zm0-11.36a4.68,4.68,0,1,0,4.68,4.68A4.69,4.69,0,0,0,6.68,24.09Z"/><path class="cls-1" d="M65.18,26.15a6.68,6.68,0,1,1,6.68-6.68A6.69,6.69,0,0,1,65.18,26.15Zm0-11.36a4.68,4.68,0,1,0,4.68,4.68A4.69,4.69,0,0,0,65.18,14.79Z"/><path class="cls-1" d="M27.16,13.36a6.68,6.68,0,1,1,6.68-6.68A6.69,6.69,0,0,1,27.16,13.36ZM27.16,2a4.68,4.68,0,1,0,4.68,4.68A4.69,4.69,0,0,0,27.16,2Z"/><path class="cls-1" d="M9.68,25.08A1,1,0,0,1,9,23.35l13.68-13a1,1,0,0,1,1.42,0,1,1,0,0,1,0,1.41l-13.69,13A1,1,0,0,1,9.68,25.08Z"/><path class="cls-1" d="M37.76,23.2a1,1,0,0,1-.82-.43L29.52,12.13A1,1,0,1,1,31.16,11l7.42,10.65a1,1,0,0,1-.82,1.57Z"/><path class="cls-1" d="M55.65,30.8a1,1,0,0,1-.71-.3,1,1,0,0,1,0-1.41l5.81-5.73a1,1,0,0,1,1.41,1.43l-5.82,5.72A1,1,0,0,1,55.65,30.8Z"/><path class="cls-1" d="M65.6,71.78a6.3,6.3,0,0,1-4.44-1.84l-5.31-5.31a6.28,6.28,0,1,1,8.87-8.88L70,61.06A6.28,6.28,0,0,1,65.6,71.78ZM60.29,55.91a4.28,4.28,0,0,0-3,7.3l5.32,5.32a4.28,4.28,0,0,0,6-6.05l-5.32-5.32A4.27,4.27,0,0,0,60.29,55.91Z"/><path class="cls-1" d="M56.71,57.17a1,1,0,0,1-.71-.29l-2.59-2.59a1,1,0,0,1,0-1.41,1,1,0,0,1,1.42,0l2.58,2.58a1,1,0,0,1-.7,1.71Z"/><path class="cls-1" d="M40.56,48.32a7.89,7.89,0,1,1,7.88-7.88A7.89,7.89,0,0,1,40.56,48.32Zm0-13.77a5.89,5.89,0,1,0,5.88,5.89A5.89,5.89,0,0,0,40.56,34.55Z"/><path class="cls-1" d="M52.23,41.17a1,1,0,0,1-.86-.49,12.56,12.56,0,0,0-21.46-.27,1,1,0,1,1-1.7-1.06,14.56,14.56,0,0,1,24.88.31A1,1,0,0,1,52.74,41,1,1,0,0,1,52.23,41.17Z"/><path class="cls-1" d="M40.56,48.29a14.61,14.61,0,0,1-12.67-7.38,1,1,0,0,1,.38-1.36,1,1,0,0,1,1.36.37,12.56,12.56,0,0,0,21.87,0,1,1,0,0,1,1.36-.38,1,1,0,0,1,.38,1.36A14.58,14.58,0,0,1,40.56,48.29Z"/></g></g></svg>