<svg xmlns="http://www.w3.org/2000/svg" width="16.165" height="23.141" viewBox="0 0 16.165 23.141"><g transform="translate(-41.4 -26.9)"><path d="M57.912,27.285a8.012,8.012,0,0,0-8.612,2.5l3.825,3.2Z" transform="translate(-6 0)" fill="#1a73e8"/><path d="M43.3,38.9a8.059,8.059,0,0,0-1.9,5.2,9.369,9.369,0,0,0,.794,3.849L47.1,42.123Z" transform="translate(0 -9.113)" fill="#ea4335"/><path d="M67.557,33.019A3.07,3.07,0,0,1,70.637,36.1a3.031,3.031,0,0,1-.722,2s2.43-2.911,4.811-5.725A8.118,8.118,0,0,0,70.011,28.4L65.2,34.125a3.031,3.031,0,0,1,2.357-1.107" transform="translate(-18.075 -1.139)" fill="#4285f4"/><path d="M52.065,57.352a3.07,3.07,0,0,1-3.079-3.079,3.014,3.014,0,0,1,.722-1.973L44.8,58.121a27.2,27.2,0,0,0,3.656,5.22l5.966-7.1a3.068,3.068,0,0,1-2.357,1.107" transform="translate(-2.582 -19.29)" fill="#fbbc04"/><path d="M65.845,59.746c2.694-4.21,5.845-6.134,5.845-11.017A8.137,8.137,0,0,0,70.777,45L60,57.8c.457.6.914,1.227,1.371,1.948,1.636,2.526,1.179,4.041,2.237,4.041s.6-1.515,2.237-4.041" transform="translate(-14.126 -13.746)" fill="#34a853"/></g></svg>