<svg xmlns="http://www.w3.org/2000/svg" viewBox="0 0 69.98 69.94"><defs><style>.cls-1{fill:#02568a;}</style></defs><g id="Layer_2" data-name="Layer 2"><g id="Layer_1-2" data-name="Layer 1"><path class="cls-1" d="M47.63,33.28H7.45c-4.1,0-7.44-2.8-7.45-6.23v-6c0-3.43,3.35-6.22,7.45-6.23H35.06v2H7.45c-3,0-5.44,1.9-5.45,4.24v5.95c0,2.33,2.45,4.23,5.45,4.23H47.63Z"/><path class="cls-1" d="M35.19,27.39a3.28,3.28,0,1,1,3.28-3.28A3.28,3.28,0,0,1,35.19,27.39Zm0-4.55a1.28,1.28,0,1,0,1.28,1.27A1.27,1.27,0,0,0,35.19,22.84Z"/><path class="cls-1" d="M35.35,45.1a3.28,3.28,0,1,1,3.28-3.28A3.28,3.28,0,0,1,35.35,45.1Zm0-4.55a1.28,1.28,0,1,0,1.28,1.27A1.27,1.27,0,0,0,35.35,40.55Z"/><path class="cls-1" d="M43.9,45.1a3.28,3.28,0,1,1,3.28-3.28A3.28,3.28,0,0,1,43.9,45.1Zm0-4.55a1.28,1.28,0,1,0,1.28,1.27A1.27,1.27,0,0,0,43.9,40.55Z"/><path class="cls-1" d="M35.35,62.93a3.28,3.28,0,1,1,3.28-3.27A3.28,3.28,0,0,1,35.35,62.93Zm0-4.55a1.28,1.28,0,1,0,1.28,1.28A1.27,1.27,0,0,0,35.35,58.38Z"/><path class="cls-1" d="M43.9,62.93a3.28,3.28,0,1,1,3.28-3.27A3.28,3.28,0,0,1,43.9,62.93Zm0-4.55a1.28,1.28,0,1,0,1.28,1.28A1.27,1.27,0,0,0,43.9,58.38Z"/><path class="cls-1" d="M47.64,52H7.45a7.26,7.26,0,0,1-7.45-7V38.26a7.24,7.24,0,0,1,7.45-7H47.63a7.24,7.24,0,0,1,7.45,7v6.79A7.25,7.25,0,0,1,47.64,52ZM7.45,33.29a5.24,5.24,0,0,0-5.45,5v6.79a5.26,5.26,0,0,0,5.45,5H47.63a5.25,5.25,0,0,0,5.45-5V38.26a5.24,5.24,0,0,0-5.45-5Z"/><path class="cls-1" d="M47.64,69.94H7.45c-4.1,0-7.44-3-7.45-6.71v-6.5C0,53,3.35,50,7.45,50H47.63c4.1,0,7.44,3,7.45,6.71v6.5C55.08,66.92,51.74,69.93,47.64,69.94ZM7.45,52C4.45,52,2,54.14,2,56.73v6.5c0,2.59,2.45,4.71,5.45,4.71H47.63c3,0,5.45-2.12,5.45-4.72V56.73c0-2.6-2.45-4.71-5.45-4.72Z"/><path class="cls-1" d="M7.6,63.93h0A2.63,2.63,0,0,1,5,61.3V58.68a2.64,2.64,0,0,1,5.27,0v2.61A2.65,2.65,0,0,1,7.6,63.93Zm0-5.88a.63.63,0,0,0-.63.63v2.61a.63.63,0,0,0,.63.64h0A.6.6,0,0,0,8,61.75a.64.64,0,0,0,.19-.45V58.68A.64.64,0,0,0,7.59,58.05Z"/><path class="cls-1" d="M7.6,45.93h0A2.63,2.63,0,0,1,5,43.3V40.68a2.64,2.64,0,0,1,5.27,0v2.61A2.65,2.65,0,0,1,7.6,45.93Zm0-5.88a.63.63,0,0,0-.63.63v2.61a.63.63,0,0,0,.63.64h0A.6.6,0,0,0,8,43.75a.64.64,0,0,0,.19-.45V40.68A.64.64,0,0,0,7.59,40.05Z"/><path class="cls-1" d="M7.6,27.93h0A2.63,2.63,0,0,1,5,25.3V22.68a2.64,2.64,0,0,1,5.27,0v2.61A2.65,2.65,0,0,1,7.6,27.93Zm0-5.88a.63.63,0,0,0-.63.63v2.61a.63.63,0,0,0,.63.64h0A.6.6,0,0,0,8,25.75a.64.64,0,0,0,.19-.45V22.68A.64.64,0,0,0,7.59,22.05Z"/><path class="cls-1" d="M51.85,14.67a3.46,3.46,0,1,0,3.46,3.46A3.46,3.46,0,0,0,51.85,14.67Z"/><path class="cls-1" d="M51.85,0A18.13,18.13,0,1,0,70,18.13,18.13,18.13,0,0,0,51.85,0ZM62.91,19.84a4.35,4.35,0,0,0-2,4.79,2,2,0,0,1-2.55,2.5A4.4,4.4,0,0,0,53.68,29c-1,1.54-2.6,1.55-3.63,0a4.37,4.37,0,0,0-4.68-1.9c-.18,0-.38.05-.47.07a2,2,0,0,1-2.08-2.41,4.45,4.45,0,0,0-2-5,2,2,0,0,1,0-3.37,4.47,4.47,0,0,0,2-5A2,2,0,0,1,45.18,9.1,4.51,4.51,0,0,0,50.2,7a2,2,0,0,1,3.34,0,4.42,4.42,0,0,0,4.9,2.06,2,2,0,0,1,2.44,2.4,4.5,4.5,0,0,0,2.08,5A2,2,0,0,1,62.91,19.84Z"/></g></g></svg>