<svg xmlns="http://www.w3.org/2000/svg" viewBox="0 0 72.08 72.08"><defs><style>.cls-1{fill:#02568a;}</style></defs><g id="Layer_2" data-name="Layer 2"><g id="Layer_1-2" data-name="Layer 1"><path class="cls-1" d="M36.3,72.08a7.37,7.37,0,0,1-7.37-7.37v-.28a4.23,4.23,0,0,0-2.79-3.87,4.26,4.26,0,0,0-4.75.82l-.19.19A7.32,7.32,0,0,1,16,63.73h0a7.32,7.32,0,0,1-5.21-2.16l-.08-.08a7.39,7.39,0,0,1,.07-10.35l.2-.2a4.3,4.3,0,0,0-3.06-7.27H7.37a7.37,7.37,0,0,1,0-14.74h.29a4.24,4.24,0,0,0,3.87-2.79,4.25,4.25,0,0,0-.83-4.75l-.18-.19a7.37,7.37,0,0,1-.07-10.35l.06-.06h0a7.37,7.37,0,0,1,10.42,0l.2.19a4.36,4.36,0,0,0,4.74.95l.17-.09a4.26,4.26,0,0,0,2.62-3.91V7.37a7.37,7.37,0,1,1,14.74,0v.29a4.3,4.3,0,0,0,7.29,3l.18-.18a7.32,7.32,0,0,1,5.21-2.16h0a7.37,7.37,0,0,1,5.28,12.52l-.07.07-.19.19a4.22,4.22,0,0,0-.84,4.69l.08.19v.25a4.26,4.26,0,0,0,3.82,2.4h.53a7.37,7.37,0,1,1,0,14.74h-.28A4.24,4.24,0,0,0,60.54,46h0a4.26,4.26,0,0,0,.85,4.7l.19.18a7.39,7.39,0,0,1,0,10.43l0,0a7.34,7.34,0,0,1-5.16,2.11h0a7.33,7.33,0,0,1-5.16-2.1L51,61.12a4.3,4.3,0,0,0-7.28,3.06v.53A7.38,7.38,0,0,1,36.3,72.08ZM24.35,58.16a6.3,6.3,0,0,1,2.54.54,6.22,6.22,0,0,1,4,5.7v.31a5.37,5.37,0,0,0,10.74,0v-.54A6.29,6.29,0,0,1,52.35,59.7l.22.21a5.3,5.3,0,0,0,3.78,1.56h0a5.34,5.34,0,0,0,3.8-1.57l.05,0a5.38,5.38,0,0,0-.05-7.55L60,52.1a6.3,6.3,0,0,1,4.46-10.69h.29a5.37,5.37,0,1,0,0-10.74h-.54a6.26,6.26,0,0,1-5.73-3.79l-.08-.19v-.26a6.23,6.23,0,0,1,1.34-6.7l.23-.23a5.37,5.37,0,0,0-3.83-9.14h0a5.33,5.33,0,0,0-3.79,1.57l-.2.19A6.3,6.3,0,0,1,41.41,7.66V7.37a5.37,5.37,0,1,0-10.74,0v.54a6.26,6.26,0,0,1-3.79,5.73l-.16.08a6.39,6.39,0,0,1-7-1.33l-.19-.2A5.38,5.38,0,0,0,12,12.12l-.1.1a5.37,5.37,0,0,0,0,7.57l.19.19a6.23,6.23,0,0,1,1.26,6.91,6.19,6.19,0,0,1-5.7,4H7.37a5.37,5.37,0,0,0,0,10.74h.54a6.3,6.3,0,0,1,4.48,10.68l-.2.2a5.37,5.37,0,0,0,0,7.6h0A5.33,5.33,0,0,0,16,61.73h0a5.32,5.32,0,0,0,3.8-1.58L20,60A6.22,6.22,0,0,1,24.35,58.16Z"/><polygon class="cls-1" points="28.37 33.49 27.11 30.36 16.2 34.74 16.2 38.19 26.98 42.46 28.22 39.33 20.98 36.45 28.37 33.49"/><polygon class="cls-1" points="42.75 33.49 44 30.36 54.92 34.74 54.92 38.19 44.14 42.46 42.9 39.33 50.13 36.45 42.75 33.49"/><polygon class="cls-1" points="37.48 25.07 29.78 47.75 33.85 47.75 41.55 25.07 37.48 25.07"/></g></g></svg>