<svg xmlns="http://www.w3.org/2000/svg" viewBox="0 0 63.17 72.1"><defs><style>.cls-1{fill:#02568a;}</style></defs><g id="Layer_2" data-name="Layer 2"><g id="Layer_1-2" data-name="Layer 1"><path class="cls-1" d="M49,48.35H14.19V28A31.05,31.05,0,0,1,29.05,1.6L31.69,0l2.58,1.58A31.07,31.07,0,0,1,49,27.88Zm-32.79-2H47V27.88A29,29,0,0,0,33.22,3.29l-1.53-1-1.6,1A29,29,0,0,0,16.19,28Z"/><path class="cls-1" d="M16.19,48.35H0V46.58a11.38,11.38,0,0,1,5.74-9.87h0l.48.87-.46-.88a17.56,17.56,0,0,0,8.14-9.47l2.28-6.63ZM2,46.35H14.19v-15a20.18,20.18,0,0,1-7.41,7.11l-.55-.85.5.87A9.4,9.4,0,0,0,2,46.35Z"/><path class="cls-1" d="M63.17,48.35H47V20.59l2.28,6.63a17.5,17.5,0,0,0,8.12,9.45l0,0a11.38,11.38,0,0,1,5.74,9.87ZM49,46.35H61.17a9.4,9.4,0,0,0-4.73-7.91h0l.5-.87-.54.85A20.19,20.19,0,0,1,49,31.32Z"/><path class="cls-1" d="M31.61,18.16a17.17,17.17,0,0,1-12.55-5.48l1.46-1.36a15.18,15.18,0,0,0,11.09,4.84,15,15,0,0,0,10.94-4.68L44,12.86A17,17,0,0,1,31.61,18.16Z"/><path class="cls-1" d="M50.19,62.43h0a2.5,2.5,0,0,0-3.41-.34A25.6,25.6,0,0,1,16.21,62a2.5,2.5,0,0,0-3.42.34h0a2.49,2.49,0,0,0,.35,3.6,30.59,30.59,0,0,0,36.7.09A2.49,2.49,0,0,0,50.19,62.43Z"/><path class="cls-1" d="M45.05,56.47h0A2.46,2.46,0,0,0,41.78,56a17.72,17.72,0,0,1-20.58-.07,2.46,2.46,0,0,0-3.28.44h0a2.51,2.51,0,0,0,.46,3.69,22.73,22.73,0,0,0,26.2.09A2.5,2.5,0,0,0,45.05,56.47Z"/><path class="cls-1" d="M40,50.63l0,0a2.53,2.53,0,0,0-3.25-.46,10,10,0,0,1-10.54-.06,2.52,2.52,0,0,0-3.27.45l0,0a2.48,2.48,0,0,0,.49,3.7,15.15,15.15,0,0,0,16,.16A2.51,2.51,0,0,0,40,50.63Z"/><path class="cls-1" d="M31.58,41.21a7.9,7.9,0,1,1,7.89-7.89A7.9,7.9,0,0,1,31.58,41.21Zm0-13.79a5.9,5.9,0,1,0,5.89,5.9A5.91,5.91,0,0,0,31.58,27.42Z"/></g></g></svg>