<svg xmlns="http://www.w3.org/2000/svg" viewBox="0 0 71.97 71.86"><defs><style>.cls-1{fill:#02568a;}</style></defs><g id="Layer_2" data-name="Layer 2"><g id="Layer_1-2" data-name="Layer 1"><path class="cls-1" d="M54.64,48.64H15a15,15,0,0,1-.75-30,22,22,0,0,1,42.28-4.59,17.33,17.33,0,0,1-1.88,34.55ZM15,20.66a13,13,0,0,0,0,26H54.64A15.32,15.32,0,0,0,55.73,16L55.07,16l-.22-.62a20,20,0,0,0-38.73,4.41l-.1.89Z"/><path class="cls-1" d="M35.93,71.86a7.19,7.19,0,1,1,7.19-7.19A7.19,7.19,0,0,1,35.93,71.86Zm0-9.58a2.4,2.4,0,1,0,2.4,2.39A2.39,2.39,0,0,0,35.93,62.28Z"/><path class="cls-1" d="M55.09,66.86a7.19,7.19,0,1,1,7.19-7.19A7.19,7.19,0,0,1,55.09,66.86Zm0-9.58a2.4,2.4,0,1,0,2.4,2.39A2.39,2.39,0,0,0,55.09,57.28Z"/><path class="cls-1" d="M16.77,66.86A7.19,7.19,0,1,1,24,59.67,7.2,7.2,0,0,1,16.77,66.86Zm0-9.58a2.4,2.4,0,1,0,2.4,2.39A2.39,2.39,0,0,0,16.77,57.28Z"/><path class="cls-1" d="M16.73,51.46a1,1,0,0,1-1-1V47.85a1,1,0,0,1,2,0v2.61A1,1,0,0,1,16.73,51.46Z"/><path class="cls-1" d="M55,51.46a1,1,0,0,1-1-1V47.85a1,1,0,1,1,2,0v2.61A1,1,0,0,1,55,51.46Z"/><path class="cls-1" d="M36,56.1a1,1,0,0,1-1-1V47.85a1,1,0,1,1,2,0V55.1A1,1,0,0,1,36,56.1Z"/></g></g></svg>